<?xml version="1.0" standalone="no"?>
<!DOCTYPE svg PUBLIC "-//W3C//DTD SVG 1.1//EN"
"http://www.w3.org/Graphics/SVG/1.1/DTD/svg11.dtd">
<svg width="1250.000000" height="550.000000"
xmlns="http://www.w3.org/2000/svg">
<polyline points="150,75 165,75 181,75 197,75 213,75 229,75 245,75 261,75 276,75 292,75 308,75 324,75 340,75 356,175 372,175 388,175 403,175 419,175 435,175 451,175 467,175 483,175 499,175 515,175 530,175 546,175 562,175 578,175 594,175 610,75 626,75 642,75 657,75 673,75 689,75 705,75 721,75 737,75 753,175 769,175 784,175 800,175 816,175 832,175 848,175 864,175 880,75 896,75 911,75 927,75 943,75 959,75 975,75 991,75 1007,75 1023,75 1038,75 1054,75 1070,75 1086,75 1102,75 1118,75 1134,75 1150,75 " style="fill:none;stroke:#32C814;stroke-width:3;stroke-linejoin:bevel" /><line x1="150" y1="75" x2="150" y2="475" style="stroke:black;stroke-width:2"/>
<line x1="150" y1="475" x2="1400" y2="475" style="stroke:black;stroke-width:2"/>
<text x="450.000000" y="25">Cycles_de_nourriture</text>
<text x="10" y="275.000000">Qtt de nourriture</text>
<text x="600.000000" y="515.000000">Temps</text>
<text x="100.000000" y="475.000000">0.000</text>
<text x="100.000000" y="417.857147">0.571</text>
<text x="100.000000" y="360.714294">1.142</text>
<text x="100.000000" y="303.571411">1.714</text>
<text x="100.000000" y="246.428558">2.285</text>
<text x="100.000000" y="189.285706">2.857</text>
<text x="100.000000" y="132.142853">3.428</text>
<text x="100.000000" y="75.000000">4.000</text>
<text x="150.000000" y="490.000000">0.000</text>
<text x="350.000000" y="490.000000">30.40</text>
<text x="550.000000" y="490.000000">60.79</text>
<text x="750.000000" y="490.000000">91.20</text>
<text x="950.000000" y="490.000000">121.5</text>
<text x="1150.000000" y="490.000000">152.0</text>
</svg>
