<?xml version="1.0" standalone="no"?>
<!DOCTYPE svg PUBLIC "-//W3C//DTD SVG 1.1//EN"
"http://www.w3.org/Graphics/SVG/1.1/DTD/svg11.dtd">
<svg width="1250.000000" height="550.000000"
xmlns="http://www.w3.org/2000/svg">
<polyline points="150,132 184,132 218,75 253,75 287,75 322,75 356,75 391,75 425,75 460,75 494,75 529,75 563,75 598,75 632,75 667,75 701,75 736,75 770,132 805,132 839,132 874,132 908,189 943,189 977,189 1012,189 1046,189 1081,189 1115,189 1150,189 " style="fill:none;stroke:#32C814;stroke-width:3;stroke-linejoin:bevel" /><line x1="150" y1="75" x2="150" y2="475" style="stroke:black;stroke-width:2"/>
<line x1="150" y1="475" x2="1400" y2="475" style="stroke:black;stroke-width:2"/>
<text x="450.000000" y="25">Food_cycles</text>
<text x="10" y="275.000000">Qtt of food</text>
<text x="600.000000" y="515.000000">Time</text>
<text x="100.000000" y="475.000000">0.000</text>
<text x="100.000000" y="417.857147">1.000</text>
<text x="100.000000" y="360.714294">2.000</text>
<text x="100.000000" y="303.571411">3.000</text>
<text x="100.000000" y="246.428574">4.000</text>
<text x="100.000000" y="189.285706">5.000</text>
<text x="100.000000" y="132.142853">6.000</text>
<text x="100.000000" y="75.000000">7.000</text>
<text x="150.000000" y="490.000000">0.000</text>
<text x="350.000000" y="490.000000">9.400</text>
<text x="550.000000" y="490.000000">18.80</text>
<text x="750.000000" y="490.000000">28.20</text>
<text x="950.000000" y="490.000000">37.60</text>
<text x="1150.000000" y="490.000000">47.00</text>
</svg>
