<?xml version="1.0" standalone="no"?>
<!DOCTYPE svg PUBLIC "-//W3C//DTD SVG 1.1//EN"
"http://www.w3.org/Graphics/SVG/1.1/DTD/svg11.dtd">
<svg width="1250.000000" height="550.000000"
xmlns="http://www.w3.org/2000/svg">
<polyline points="150,75 202,75 255,75 307,75 360,75 413,75 465,132 518,132 571,189 623,189 676,189 728,189 781,189 834,132 886,132 939,75 992,75 1044,75 1097,75 1150,75 " style="fill:none;stroke:#32C814;stroke-width:3;stroke-linejoin:bevel" /><line x1="150" y1="75" x2="150" y2="475" style="stroke:black;stroke-width:2"/>
<line x1="150" y1="475" x2="1400" y2="475" style="stroke:black;stroke-width:2"/>
<text x="450.000000" y="25">Food_cycles</text>
<text x="10" y="275.000000">Qtt of food</text>
<text x="600.000000" y="515.000000">Time</text>
<text x="100.000000" y="475.000000">0.000</text>
<text x="100.000000" y="417.857147">1.000</text>
<text x="100.000000" y="360.714294">2.000</text>
<text x="100.000000" y="303.571411">3.000</text>
<text x="100.000000" y="246.428574">4.000</text>
<text x="100.000000" y="189.285706">5.000</text>
<text x="100.000000" y="132.142853">6.000</text>
<text x="100.000000" y="75.000000">7.000</text>
<text x="150.000000" y="490.000000">0.000</text>
<text x="350.000000" y="490.000000">5.600</text>
<text x="550.000000" y="490.000000">11.20</text>
<text x="750.000000" y="490.000000">16.80</text>
<text x="950.000000" y="490.000000">22.40</text>
<text x="1150.000000" y="490.000000">28.00</text>
</svg>
