<?xml version="1.0" standalone="no"?>
<!DOCTYPE svg PUBLIC "-//W3C//DTD SVG 1.1//EN"
"http://www.w3.org/Graphics/SVG/1.1/DTD/svg11.dtd">
<svg width="1250.000000" height="550.000000"
xmlns="http://www.w3.org/2000/svg">
<polyline points="150,189 150,189 150,189 150,189 150,189 150,189 150,189 150,189 150,189 150,189 150,189 151,189 151,189 151,189 151,189 151,189 151,189 151,189 151,189 151,189 151,189 152,189 152,189 152,189 152,189 152,189 152,189 152,189 152,189 152,160 152,160 153,160 153,160 153,160 153,160 153,160 153,160 153,160 153,160 153,160 153,160 153,160 154,160 154,160 154,160 154,160 154,160 154,160 154,160 154,160 154,160 154,160 155,160 155,160 155,132 155,132 155,132 155,132 155,132 155,132 155,132 155,132 156,132 156,132 156,132 156,132 156,132 156,132 156,132 156,132 156,132 156,132 156,132 157,132 157,132 157,132 157,132 157,132 157,132 157,132 157,132 157,103 157,103 158,103 158,103 158,103 158,103 158,103 158,103 158,103 158,103 158,103 158,103 159,103 159,103 159,103 159,103 159,103 159,103 159,103 159,103 159,103 159,103 159,103 160,103 160,103 160,103 160,103 160,103 160,103 160,103 160,103 160,75 160,75 161,75 161,75 161,75 161,75 161,75 161,75 161,75 161,75 161,75 161,75 162,75 162,75 162,75 162,75 162,75 162,75 162,75 162,75 162,75 162,75 162,75 163,75 163,75 163,75 163,75 163,75 163,75 163,75 163,75 163,75 163,75 164,75 164,75 164,75 164,75 164,75 164,75 164,75 164,75 164,75 164,75 165,75 165,75 165,75 165,75 165,75 165,75 165,75 165,75 165,75 165,75 165,75 166,75 166,75 166,75 166,75 166,75 166,75 166,75 166,75 166,75 166,75 167,75 167,75 167,75 167,75 167,75 167,75 167,75 167,75 167,75 167,75 168,75 168,75 168,75 168,75 168,75 168,75 168,75 168,75 168,75 168,75 168,75 169,75 169,75 169,75 169,75 169,75 169,75 169,75 169,75 169,75 169,75 170,75 170,75 170,75 170,75 170,75 170,75 170,75 170,75 170,75 170,75 171,75 171,75 171,75 171,75 171,75 171,75 171,75 171,75 171,75 171,75 171,75 172,75 172,75 172,75 172,75 172,75 172,75 172,75 172,75 172,75 172,75 173,75 173,75 173,75 173,75 173,75 173,75 173,75 173,75 173,75 173,75 174,75 174,75 174,103 174,103 174,103 174,103 174,103 174,103 174,103 174,103 174,103 175,103 175,103 175,103 175,103 175,103 175,103 175,103 175,103 175,103 175,103 176,103 176,103 176,103 176,103 176,103 176,103 176,103 176,103 176,103 176,103 177,103 177,103 177,132 177,132 177,132 177,132 177,132 177,132 177,132 177,132 177,132 178,132 178,132 178,132 178,132 178,132 178,132 178,132 178,132 178,132 178,132 179,132 179,132 179,132 179,132 179,132 179,132 179,160 179,160 179,160 179,160 180,160 180,160 180,160 180,160 180,160 180,160 180,160 180,160 180,160 180,160 180,160 181,160 181,160 181,160 181,160 181,160 181,160 181,160 181,160 181,160 181,189 182,189 182,189 182,189 182,189 182,189 182,189 182,189 182,189 182,189 182,189 183,189 183,189 183,189 183,189 183,189 183,189 183,189 183,189 183,189 183,189 183,189 184,189 184,189 184,217 184,217 184,217 184,217 184,217 184,217 184,217 184,217 185,217 185,217 185,217 185,217 185,217 185,217 185,217 185,217 185,217 185,217 186,217 186,217 186,217 186,217 186,217 186,217 186,217 186,217 186,246 186,246 186,246 187,246 187,246 187,246 187,246 187,246 187,246 187,246 187,246 187,246 187,246 188,246 188,246 188,246 188,246 188,246 188,246 188,246 188,246 188,246 188,246 189,246 189,246 189,246 189,246 189,246 189,275 189,275 189,275 189,275 189,275 189,275 190,275 190,275 190,275 190,275 190,275 190,275 190,275 190,275 190,275 190,275 191,275 191,275 191,275 191,275 191,275 191,275 191,275 191,275 191,275 191,275 192,275 192,275 192,275 192,275 192,275 192,275 192,275 192,303 192,303 192,303 192,303 193,303 193,303 193,303 193,303 193,303 193,303 193,303 193,303 193,303 193,303 194,303 194,303 194,303 194,303 194,303 194,303 194,303 194,303 194,303 194,303 195,303 195,303 195,303 195,303 195,303 195,303 195,303 195,303 195,303 195,303 195,303 196,303 196,303 196,303 196,303 196,303 196,303 196,303 196,332 196,332 196,332 197,332 197,332 197,332 197,332 197,332 197,332 197,332 197,332 197,332 197,332 198,332 198,332 198,332 198,332 198,332 198,332 198,332 198,332 198,332 198,332 198,332 199,332 199,332 199,332 199,332 199,332 199,332 199,332 199,332 199,332 199,332 200,332 200,332 200,332 200,332 200,332 200,332 200,332 200,332 200,332 200,332 201,332 201,332 201,332 201,332 201,332 201,332 201,332 201,332 201,332 201,332 201,332 202,332 202,332 202,332 202,332 202,332 202,332 202,332 202,332 202,332 202,332 203,332 203,332 203,332 203,332 203,332 203,332 203,332 203,332 203,332 203,332 204,332 204,332 204,332 204,332 204,332 204,332 204,332 204,332 204,332 204,332 204,332 205,332 205,332 205,332 205,332 205,332 205,332 205,332 205,332 205,332 205,332 206,332 206,332 206,332 206,332 206,332 206,332 206,332 206,332 206,332 206,332 207,332 207,332 207,332 207,332 207,332 207,332 207,332 207,332 207,332 207,332 207,332 208,332 208,332 208,332 208,332 208,332 208,332 208,332 208,332 208,332 208,332 209,332 209,332 209,332 209,332 209,332 209,332 209,332 209,332 209,332 209,332 210,332 210,332 210,332 210,332 210,332 210,332 210,332 210,332 210,332 210,332 210,332 211,332 211,332 211,332 211,332 211,332 211,332 211,332 211,332 211,332 211,332 212,332 212,332 212,332 212,332 212,332 212,332 212,332 212,332 212,332 212,332 213,332 213,332 213,332 213,332 213,332 213,332 213,332 213,332 213,332 213,332 213,332 214,332 214,332 214,332 214,332 214,332 214,332 214,332 214,332 214,332 214,332 215,332 215,332 215,332 215,332 215,332 215,332 215,332 215,332 215,332 215,332 216,332 216,332 216,332 216,332 216,332 216,332 216,332 216,332 216,332 216,332 216,332 217,332 217,303 217,303 217,303 217,303 217,303 217,303 217,303 217,303 217,303 218,303 218,303 218,303 218,303 218,303 218,303 218,303 218,303 218,303 218,303 219,303 219,303 219,303 219,303 219,303 219,303 219,303 219,303 219,303 219,303 219,303 220,303 220,303 220,303 220,303 220,303 220,303 220,303 220,303 220,303 220,303 221,303 221,303 221,303 221,303 221,275 221,275 221,275 221,275 221,275 221,275 222,275 222,275 222,275 222,275 222,275 222,275 222,275 222,275 222,275 222,275 222,275 223,275 223,275 223,275 223,275 223,275 223,275 223,275 223,275 223,275 223,275 224,275 224,275 224,275 224,275 224,275 224,275 224,246 224,246 224,246 224,246 225,246 225,246 225,246 225,246 225,246 225,246 225,246 225,246 225,246 225,246 225,246 226,246 226,246 226,246 226,246 226,246 226,246 226,246 226,246 226,246 226,246 227,246 227,246 227,246 227,217 227,217 227,217 227,217 227,217 227,217 227,217 228,217 228,217 228,217 228,217 228,217 228,217 228,217 228,217 228,217 228,217 229,217 229,217 229,217 229,217 229,217 229,217 229,217 229,217 229,217 229,189 229,189 230,189 230,189 230,189 230,189 230,189 230,189 230,189 230,189 230,189 230,189 231,189 231,189 231,189 231,189 231,189 231,189 231,189 231,189 231,189 231,189 232,189 232,189 232,160 232,160 232,160 232,160 232,160 232,160 232,160 232,160 232,160 233,160 233,160 233,160 233,160 233,160 233,160 233,160 233,160 233,160 233,160 234,160 234,160 234,160 234,160 234,160 234,160 234,132 234,132 234,132 234,132 235,132 235,132 235,132 235,132 235,132 235,132 235,132 235,132 235,132 235,132 235,132 236,132 236,132 236,132 236,132 236,132 236,132 236,132 236,132 236,132 236,132 237,103 237,103 237,103 237,103 237,103 237,103 237,103 237,103 237,103 237,103 238,103 238,103 238,103 238,103 238,103 238,103 238,103 238,103 238,103 238,103 238,103 239,103 239,103 239,103 239,103 239,103 239,103 239,103 239,103 239,103 239,75 240,75 240,75 240,75 240,75 240,75 240,75 240,75 240,75 240,75 240,75 241,75 241,75 241,75 241,75 241,75 241,75 241,75 241,75 241,75 241,75 241,75 242,75 242,75 242,75 242,75 242,75 242,75 242,75 242,75 242,75 242,75 243,75 243,75 243,75 243,75 243,75 243,75 243,75 243,75 243,75 243,75 244,75 244,75 244,75 244,75 244,75 244,75 244,75 244,75 244,75 244,75 244,75 245,75 245,75 245,75 245,75 245,75 245,75 245,75 245,75 245,75 245,75 246,75 246,75 246,75 246,75 246,75 246,75 246,75 246,75 246,75 246,75 247,75 247,75 247,75 247,75 247,75 247,75 247,75 247,75 247,75 247,75 247,75 248,75 248,75 248,75 248,75 248,75 248,75 248,75 248,75 248,75 248,75 249,75 249,75 249,75 249,75 249,75 249,75 249,75 249,75 249,75 249,75 250,75 250,75 250,75 250,75 250,75 250,75 250,75 250,75 250,75 250,75 250,75 251,75 251,75 251,75 251,75 251,75 251,75 251,75 251,75 251,75 251,75 252,75 252,75 252,75 252,75 252,75 252,75 252,103 252,103 252,103 252,103 253,103 253,103 253,103 253,103 253,103 253,103 253,103 253,103 253,103 253,103 253,103 254,103 254,103 254,103 254,103 254,103 254,103 254,103 254,103 254,103 254,103 255,103 255,103 255,103 255,103 255,103 255,132 255,132 255,132 255,132 255,132 256,132 256,132 256,132 256,132 256,132 256,132 256,132 256,132 256,132 256,132 256,132 257,132 257,132 257,132 257,132 257,132 257,132 257,132 257,132 257,132 257,132 258,160 258,160 258,160 258,160 258,160 258,160 258,160 258,160 258,160 258,160 259,160 259,160 259,160 259,160 259,160 259,160 259,160 259,160 259,160 259,160 259,160 260,160 260,160 260,160 260,189 260,189 260,189 260,189 260,189 260,189 260,189 261,189 261,189 261,189 261,189 261,189 261,189 261,189 261,189 261,189 261,189 262,189 262,189 262,189 262,189 262,189 262,189 262,189 262,217 262,217 262,217 262,217 263,217 263,217 263,217 263,217 263,217 263,217 263,217 263,217 263,217 263,217 264,217 264,217 264,217 264,217 264,217 264,217 264,217 264,217 264,217 264,217 265,217 265,217 265,217 265,246 265,246 265,246 265,246 265,246 265,246 265,246 265,246 266,246 266,246 266,246 266,246 266,246 266,246 266,246 266,246 266,246 266,246 267,246 267,246 267,246 267,246 267,246 267,246 267,246 267,246 267,246 267,246 268,246 268,275 268,275 268,275 268,275 268,275 268,275 268,275 268,275 268,275 268,275 269,275 269,275 269,275 269,275 269,275 269,275 269,275 269,275 269,275 269,275 270,275 270,275 270,275 270,275 270,275 270,275 270,275 270,275 270,275 270,275 271,275 271,275 271,275 271,275 271,303 271,303 271,303 271,303 271,303 271,303 271,303 272,303 272,303 272,303 272,303 272,303 272,303 272,303 272,303 272,303 272,303 273,303 273,303 273,303 273,303 273,303 273,303 273,303 273,303 273,303 273,303 274,303 274,303 274,303 274,303 274,303 274,303 274,303 274,303 274,303 274,303 274,303 275,303 275,303 275,303 275,303 275,303 275,303 275,303 275,332 275,332 275,332 276,332 276,332 276,332 276,332 276,332 276,332 276,332 276,332 276,332 276,332 277,332 277,332 277,332 277,332 277,332 277,332 277,332 277,332 277,332 277,332 277,332 278,332 278,332 278,332 278,332 278,332 278,332 278,332 278,332 278,332 278,332 279,332 279,332 279,332 279,332 279,332 279,332 279,332 279,332 279,332 279,332 280,332 280,332 280,332 280,332 280,332 280,332 280,332 280,332 280,332 280,332 280,332 281,332 281,332 281,332 281,332 281,332 281,332 281,332 281,332 281,332 281,332 282,332 282,332 282,332 282,332 282,332 282,332 282,332 282,332 282,332 282,332 283,332 283,332 283,332 283,332 283,332 283,332 283,332 283,332 283,332 283,332 283,332 284,332 284,332 284,332 284,332 284,332 284,332 284,332 284,332 284,332 284,332 285,332 285,332 285,332 285,332 285,332 285,332 285,332 285,332 285,332 285,332 286,332 286,332 286,332 286,332 286,332 286,332 286,332 286,332 286,332 286,332 286,332 287,332 287,332 287,332 287,332 287,332 287,332 287,332 287,332 287,332 287,332 288,332 288,332 288,332 288,332 288,332 288,332 288,332 288,332 288,332 288,332 289,332 289,332 289,332 289,332 289,332 289,332 289,332 289,332 289,332 289,332 289,332 290,332 290,332 290,332 290,332 290,332 290,332 290,332 290,332 290,332 290,332 291,332 291,332 291,332 291,332 291,332 291,332 291,332 291,332 291,332 291,332 292,332 292,332 292,332 292,332 292,332 292,332 292,332 292,332 292,332 292,332 292,332 293,332 293,332 293,332 293,332 293,332 293,332 293,332 293,332 293,332 293,332 294,332 294,332 294,332 294,332 294,332 294,332 294,332 294,332 294,332 294,332 295,332 295,332 295,332 295,332 295,332 295,332 295,332 295,332 295,332 295,332 295,332 296,332 296,332 296,303 296,303 296,303 296,303 296,303 296,303 296,303 296,303 297,303 297,303 297,303 297,303 297,303 297,303 297,303 297,303 297,303 297,303 298,303 298,303 298,303 298,303 298,303 298,303 298,303 298,303 298,303 298,303 298,303 299,303 299,303 299,303 299,303 299,303 299,303 299,303 299,303 299,303 299,303 300,303 300,303 300,303 300,303 300,303 300,275 300,275 300,275 300,275 300,275 301,275 301,275 301,275 301,275 301,275 301,275 301,275 301,275 301,275 301,275 301,275 302,275 302,275 302,275 302,275 302,275 302,275 302,275 302,275 302,275 302,275 303,275 303,275 303,275 303,275 303,275 303,275 303,275 303,246 303,246 303,246 304,246 304,246 304,246 304,246 304,246 304,246 304,246 304,246 304,246 304,246 305,246 305,246 305,246 305,246 305,246 305,246 305,246 305,246 305,246 305,246 305,246 306,246 306,246 306,246 306,246 306,217 306,217 306,217 306,217 306,217 306,217 307,217 307,217 307,217 307,217 307,217 307,217 307,217 307,217 307,217 307,217 308,217 308,217 308,217 308,217 308,217 308,217 308,217 308,217 308,217 308,189 308,189 309,189 309,189 309,189 309,189 309,189 309,189 309,189 309,189 309,189 309,189 310,189 310,189 310,189 310,189 310,189 310,189 310,189 310,189 310,189 310,189 311,189 311,189 311,189 311,160 311,160 311,160 311,160 311,160 311,160 311,160 311,160 312,160 312,160 312,160 312,160 312,160 312,160 312,160 312,160 312,160 312,160 313,160 313,160 313,160 313,160 313,160 313,160 313,132 313,132 313,132 313,132 314,132 314,132 314,132 314,132 314,132 314,132 314,132 314,132 314,132 314,132 314,132 315,132 315,132 315,132 315,132 315,132 315,132 315,132 315,132 315,132 315,132 316,132 316,103 316,103 316,103 316,103 316,103 316,103 316,103 316,103 316,103 317,103 317,103 317,103 317,103 317,103 317,103 317,103 317,103 317,103 317,103 317,103 318,103 318,103 318,103 318,103 318,103 318,103 318,103 318,103 318,103 318,103 319,75 319,75 319,75 319,75 319,75 319,75 319,75 319,75 319,75 319,75 320,75 320,75 320,75 320,75 320,75 320,75 320,75 320,75 320,75 320,75 320,75 321,75 321,75 321,75 321,75 321,75 321,75 321,75 321,75 321,75 321,75 322,75 322,75 322,75 322,75 322,75 322,75 322,75 322,75 322,75 322,75 323,75 323,75 323,75 323,75 323,75 323,75 323,75 323,75 323,75 323,75 323,75 324,75 324,75 324,75 324,75 324,75 324,75 324,75 324,75 324,75 324,75 325,75 325,75 325,75 325,75 325,75 325,75 325,75 325,75 325,75 325,75 326,75 326,75 326,75 326,75 326,75 326,75 326,75 326,75 326,75 326,75 326,75 327,75 327,75 327,75 327,75 327,75 327,75 327,75 327,75 327,75 327,75 328,75 328,75 328,75 328,75 328,75 328,75 328,75 328,75 328,75 328,75 329,75 329,75 329,75 329,75 329,75 329,75 329,75 329,75 329,75 329,75 329,75 330,75 330,75 330,75 330,75 330,75 330,75 330,75 330,75 330,75 330,75 331,75 331,75 331,75 331,75 331,75 331,75 331,103 331,103 331,103 331,103 332,103 332,103 332,103 332,103 332,103 332,103 332,103 332,103 332,103 332,103 332,103 333,103 333,103 333,103 333,103 333,103 333,103 333,103 333,103 333,103 333,103 334,103 334,103 334,103 334,103 334,103 334,132 334,132 334,132 334,132 334,132 335,132 335,132 335,132 335,132 335,132 335,132 335,132 335,132 335,132 335,132 335,132 336,132 336,132 336,132 336,132 336,132 336,132 336,132 336,132 336,132 336,132 337,160 337,160 337,160 337,160 337,160 337,160 337,160 337,160 337,160 337,160 338,160 338,160 338,160 338,160 338,160 338,160 338,160 338,160 338,160 338,160 338,160 339,160 339,160 339,189 339,189 339,189 339,189 339,189 339,189 339,189 339,189 340,189 340,189 340,189 340,189 340,189 340,189 340,189 340,189 340,189 340,189 341,189 341,189 341,189 341,189 341,189 341,189 341,217 341,217 341,217 341,217 341,217 342,217 342,217 342,217 342,217 342,217 342,217 342,217 342,217 342,217 342,217 343,217 343,217 343,217 343,217 343,217 343,217 343,217 343,217 343,217 343,217 344,217 344,246 344,246 344,246 344,246 344,246 344,246 344,246 344,246 344,246 344,246 345,246 345,246 345,246 345,246 345,246 345,246 345,246 345,246 345,246 345,246 346,246 346,246 346,246 346,246 346,246 346,246 346,246 346,246 346,275 346,275 347,275 347,275 347,275 347,275 347,275 347,275 347,275 347,275 347,275 347,275 347,275 348,275 348,275 348,275 348,275 348,275 348,275 348,275 348,275 348,275 348,275 349,275 349,275 349,275 349,275 349,275 349,275 349,275 349,275 349,275 349,275 350,303 350,303 350,303 350,303 350,303 350,303 350,303 350,303 350,303 350,303 350,303 351,303 351,303 351,303 351,303 351,303 351,303 351,303 351,303 351,303 351,303 352,303 352,303 352,303 352,303 352,303 352,303 352,303 352,303 352,303 352,303 353,303 353,303 353,303 353,303 353,303 353,303 353,303 353,303 353,303 353,303 353,303 354,303 354,332 354,332 354,332 354,332 354,332 354,332 354,332 354,332 354,332 355,332 355,332 355,332 355,332 355,332 355,332 355,332 355,332 355,332 355,332 356,332 356,332 356,332 356,332 356,332 356,332 356,332 356,332 356,332 356,332 356,332 357,332 357,332 357,332 357,332 357,332 357,332 357,332 357,332 357,332 357,332 358,332 358,332 358,332 358,332 358,332 358,332 358,332 358,332 358,332 358,332 359,332 359,332 359,332 359,332 359,332 359,332 359,332 359,332 359,332 359,332 359,332 360,332 360,332 360,332 360,332 360,332 360,332 360,332 360,332 360,332 360,332 361,332 361,332 361,332 361,332 361,332 361,332 361,332 361,332 361,332 361,332 362,332 362,332 362,332 362,332 362,332 362,332 362,332 362,332 362,332 362,332 362,332 363,332 363,332 363,332 363,332 363,332 363,332 363,332 363,332 363,332 363,332 364,332 364,332 364,332 364,332 364,332 364,332 364,332 364,332 364,332 364,332 365,332 365,332 365,332 365,332 365,332 365,332 365,332 365,332 365,332 365,332 365,332 366,332 366,332 366,332 366,332 366,332 366,332 366,332 366,332 366,332 366,332 367,332 367,332 367,332 367,332 367,332 367,332 367,332 367,332 367,332 367,332 368,332 368,332 368,332 368,332 368,332 368,332 368,332 368,332 368,332 368,332 368,332 369,332 369,332 369,332 369,332 369,332 369,332 369,332 369,332 369,332 369,332 370,332 370,332 370,332 370,332 370,332 370,332 370,332 370,332 370,332 370,332 371,332 371,332 371,332 371,332 371,332 371,332 371,332 371,332 371,332 371,332 371,332 372,332 372,332 372,332 372,332 372,332 372,332 372,332 372,332 372,332 372,332 373,332 373,332 373,332 373,332 373,332 373,332 373,332 373,332 373,332 373,332 374,332 374,332 374,303 374,303 374,303 374,303 374,303 374,303 374,303 374,303 374,303 375,303 375,303 375,303 375,303 375,303 375,303 375,303 375,303 375,303 375,303 376,303 376,303 376,303 376,303 376,303 376,303 376,303 376,303 376,303 376,303 377,303 377,303 377,303 377,303 377,303 377,303 377,303 377,303 377,303 377,303 377,303 378,303 378,275 378,275 378,275 378,275 378,275 378,275 378,275 378,275 378,275 379,275 379,275 379,275 379,275 379,275 379,275 379,275 379,275 379,275 379,275 380,275 380,275 380,275 380,275 380,275 380,275 380,275 380,275 380,275 380,275 381,275 381,275 381,275 381,246 381,246 381,246 381,246 381,246 381,246 381,246 381,246 382,246 382,246 382,246 382,246 382,246 382,246 382,246 382,246 382,246 382,246 383,246 383,246 383,246 383,246 383,246 383,246 383,246 383,246 383,246 383,246 384,217 384,217 384,217 384,217 384,217 384,217 384,217 384,217 384,217 384,217 384,217 385,217 385,217 385,217 385,217 385,217 385,217 385,217 385,217 385,217 385,217 386,217 386,217 386,217 386,217 386,189 386,189 386,189 386,189 386,189 386,189 387,189 387,189 387,189 387,189 387,189 387,189 387,189 387,189 387,189 387,189 387,189 388,189 388,189 388,189 388,189 388,189 388,189 388,189 388,160 388,160 388,160 389,160 389,160 389,160 389,160 389,160 389,160 389,160 389,160 389,160 389,160 390,160 390,160 390,160 390,160 390,160 390,160 390,160 390,160 390,160 390,160 390,160 391,132 391,132 391,132 391,132 391,132 391,132 391,132 391,132 391,132 391,132 392,132 392,132 392,132 392,132 392,132 392,132 392,132 392,132 392,132 392,132 393,132 393,132 393,132 393,132 393,132 393,132 393,103 393,103 393,103 393,103 393,103 394,103 394,103 394,103 394,103 394,103 394,103 394,103 394,103 394,103 394,103 395,103 395,103 395,103 395,103 395,103 395,103 395,103 395,103 395,103 395,103 396,103 396,103 396,103 396,103 396,103 396,75 396,75 396,75 396,75 396,75 396,75 397,75 397,75 397,75 397,75 397,75 397,75 397,75 397,75 397,75 397,75 398,75 398,75 398,75 398,75 398,75 398,75 398,75 398,75 398,75 398,75 399,75 399,75 399,75 399,75 399,75 399,75 399,75 399,75 399,75 399,75 399,75 400,75 400,75 400,75 400,75 400,75 400,75 400,75 400,75 400,75 400,75 401,75 401,75 401,75 401,75 401,75 401,75 401,75 401,75 401,75 401,75 402,75 402,75 402,75 402,75 402,75 402,75 402,75 402,75 402,75 402,75 402,75 403,75 403,75 403,75 403,75 403,75 403,75 403,75 403,75 403,75 403,75 404,75 404,75 404,75 404,75 404,75 404,75 404,75 404,75 404,75 404,75 405,75 405,75 405,75 405,75 405,75 405,75 405,75 405,75 405,75 405,75 405,75 406,75 406,75 406,75 406,75 406,75 406,75 406,75 406,75 406,75 406,75 407,75 407,75 407,75 407,75 407,75 407,75 407,75 407,75 407,75 407,75 408,75 408,75 408,75 408,75 408,75 408,75 408,75 408,75 408,75 408,75 408,75 409,103 409,103 409,103 409,103 409,103 409,103 409,103 409,103 409,103 409,103 410,103 410,103 410,103 410,103 410,103 410,103 410,103 410,103 410,103 410,103 411,103 411,103 411,103 411,103 411,103 411,103 411,103 411,103 411,132 411,132 411,132 412,132 412,132 412,132 412,132 412,132 412,132 412,132 412,132 412,132 412,132 413,132 413,132 413,132 413,132 413,132 413,132 413,132 413,132 413,132 413,132 414,132 414,132 414,160 414,160 414,160 414,160 414,160 414,160 414,160 414,160 414,160 415,160 415,160 415,160 415,160 415,160 415,160 415,160 415,160 415,160 415,160 416,160 416,160 416,160 416,160 416,160 416,189 416,189 416,189 416,189 416,189 417,189 417,189 417,189 417,189 417,189 417,189 417,189 417,189 417,189 417,189 417,189 418,189 418,189 418,189 418,189 418,189 418,189 418,189 418,189 418,217 418,217 419,217 419,217 419,217 419,217 419,217 419,217 419,217 419,217 419,217 419,217 420,217 420,217 420,217 420,217 420,217 420,217 420,217 420,217 420,217 420,217 420,217 421,217 421,217 421,217 421,246 421,246 421,246 421,246 421,246 421,246 421,246 422,246 422,246 422,246 422,246 422,246 422,246 422,246 422,246 422,246 422,246 423,246 423,246 423,246 423,246 423,246 423,246 423,246 423,246 423,246 423,246 423,246 424,275 424,275 424,275 424,275 424,275 424,275 424,275 424,275 424,275 424,275 425,275 425,275 425,275 425,275 425,275 425,275 425,275 425,275 425,275 425,275 426,275 426,275 426,275 426,275 426,275 426,275 426,275 426,275 426,275 426,275 426,275 427,275 427,303 427,303 427,303 427,303 427,303 427,303 427,303 427,303 427,303 428,303 428,303 428,303 428,303 428,303 428,303 428,303 428,303 428,303 428,303 429,303 429,303 429,303 429,303 429,303 429,303 429,303 429,303 429,303 429,303 429,303 430,303 430,303 430,303 430,303 430,303 430,303 430,303 430,303 430,303 430,303 431,303 431,332 431,332 431,332 431,332 431,332 431,332 431,332 431,332 431,332 432,332 432,332 432,332 432,332 432,332 432,332 432,332 432,332 432,332 432,332 432,332 433,332 433,332 433,332 433,332 433,332 433,332 433,332 433,332 433,332 433,332 434,332 434,332 434,332 434,332 434,332 434,332 434,332 434,332 434,332 434,332 435,332 435,332 435,332 435,332 435,332 435,332 435,332 435,332 435,332 435,332 435,332 436,332 436,332 436,332 436,332 436,332 436,332 436,332 436,332 436,332 436,332 437,332 437,332 437,332 437,332 437,332 437,332 437,332 437,332 437,332 437,332 438,332 438,332 438,332 438,332 438,332 438,332 438,332 438,332 438,332 438,332 438,332 439,332 439,332 439,332 439,332 439,332 439,332 439,332 439,332 439,332 439,332 440,332 440,332 440,332 440,332 440,332 440,332 440,332 440,332 440,332 440,332 441,332 441,332 441,332 441,332 441,332 441,332 441,332 441,332 441,332 441,332 441,332 442,332 442,332 442,332 442,332 442,332 442,332 442,332 442,332 442,332 442,332 443,332 443,332 443,332 443,332 443,332 443,332 443,332 443,332 443,332 443,332 444,332 444,332 444,332 444,332 444,332 444,332 444,332 444,332 444,332 444,332 444,332 445,332 445,332 445,332 445,332 445,332 445,332 445,332 445,332 445,332 445,332 446,332 446,332 446,332 446,332 446,332 446,332 446,332 446,332 446,332 446,332 447,332 447,332 447,332 447,332 447,332 447,332 447,332 447,332 447,332 447,332 447,332 448,332 448,332 448,332 448,332 448,332 448,332 448,332 448,332 448,332 448,332 449,332 449,332 449,332 449,332 449,332 449,332 449,332 449,332 449,332 449,332 450,332 450,332 450,332 450,332 450,332 450,332 450,332 450,332 450,332 450,332 450,332 451,332 451,332 451,332 451,332 451,332 451,332 451,303 451,303 451,303 451,303 452,303 452,303 452,303 452,303 452,303 452,303 452,303 452,303 452,303 452,303 453,303 453,303 453,303 453,303 453,303 453,303 453,303 453,303 453,303 453,303 453,303 454,303 454,303 454,303 454,303 454,303 454,303 454,303 454,303 454,303 454,303 455,303 455,303 455,303 455,303 455,303 455,303 455,303 455,303 455,303 455,275 456,275 456,275 456,275 456,275 456,275 456,275 456,275 456,275 456,275 456,275 456,275 457,275 457,275 457,275 457,275 457,275 457,275 457,275 457,275 457,275 457,275 458,275 458,275 458,275 458,275 458,275 458,275 458,275 458,275 458,275 458,275 459,275 459,275 459,246 459,246 459,246 459,246 459,246 459,246 459,246 459,246 460,246 460,246 460,246 460,246 460,246 460,246 460,246 460,246 460,246 460,246 460,246 461,246 461,246 461,246 461,246 461,246 461,246 461,246 461,246 461,217 461,217 462,217 462,217 462,217 462,217 462,217 462,217 462,217 462,217 462,217 462,217 463,217 463,217 463,217 463,217 463,217 463,217 463,217 463,217 463,217 463,217 463,217 464,217 464,217 464,189 464,189 464,189 464,189 464,189 464,189 464,189 464,189 465,189 465,189 465,189 465,189 465,189 465,189 465,189 465,189 465,189 465,189 466,189 466,189 466,189 466,189 466,189 466,189 466,160 466,160 466,160 466,160 466,160 467,160 467,160 467,160 467,160 467,160 467,160 467,160 467,160 467,160 467,160 468,160 468,160 468,160 468,160 468,160 468,160 468,160 468,160 468,160 468,132 469,132 469,132 469,132 469,132 469,132 469,132 469,132 469,132 469,132 469,132 469,132 470,132 470,132 470,132 470,132 470,132 470,132 470,132 470,132 470,132 470,132 471,132 471,132 471,132 471,103 471,103 471,103 471,103 471,103 471,103 471,103 472,103 472,103 472,103 472,103 472,103 472,103 472,103 472,103 472,103 472,103 472,103 473,103 473,103 473,103 473,103 473,103 473,103 473,103 473,103 473,103 473,103 474,103 474,103 474,75 474,75 474,75 474,75 474,75 474,75 474,75 474,75 475,75 475,75 475,75 475,75 475,75 475,75 475,75 475,75 475,75 475,75 475,75 476,75 476,75 476,75 476,75 476,75 476,75 476,75 476,75 476,75 476,75 477,75 477,75 477,75 477,75 477,75 477,75 477,75 477,75 477,75 477,75 478,75 478,75 478,75 478,75 478,75 478,75 478,75 478,75 478,75 478,75 478,75 479,75 479,75 479,75 479,75 479,75 479,75 479,75 479,75 479,75 479,75 480,75 480,75 480,75 480,75 480,75 480,75 480,75 480,75 480,75 480,75 481,75 481,75 481,75 481,75 481,75 481,75 481,75 481,75 481,75 481,75 481,75 482,75 482,75 482,75 482,75 482,75 482,75 482,75 482,75 482,75 482,75 483,75 483,75 483,75 483,75 483,75 483,75 483,75 483,75 483,75 483,75 484,75 484,75 484,75 484,75 484,75 484,75 484,75 484,75 484,75 484,75 484,75 485,75 485,75 485,75 485,75 485,75 485,75 485,75 485,75 485,75 485,75 486,75 486,75 486,75 486,75 486,75 486,75 486,75 486,75 486,103 486,103 487,103 487,103 487,103 487,103 487,103 487,103 487,103 487,103 487,103 487,103 487,103 488,103 488,103 488,103 488,103 488,103 488,103 488,103 488,103 488,103 488,103 489,103 489,103 489,103 489,103 489,103 489,103 489,103 489,132 489,132 489,132 490,132 490,132 490,132 490,132 490,132 490,132 490,132 490,132 490,132 490,132 490,132 491,132 491,132 491,132 491,132 491,132 491,132 491,132 491,132 491,132 491,132 492,132 492,160 492,160 492,160 492,160 492,160 492,160 492,160 492,160 492,160 493,160 493,160 493,160 493,160 493,160 493,160 493,160 493,160 493,160 493,160 493,160 494,160 494,160 494,160 494,160 494,160 494,189 494,189 494,189 494,189 494,189 495,189 495,189 495,189 495,189 495,189 495,189 495,189 495,189 495,189 495,189 496,189 496,189 496,189 496,189 496,189 496,189 496,189 496,189 496,189 496,189 496,217 497,217 497,217 497,217 497,217 497,217 497,217 497,217 497,217 497,217 497,217 498,217 498,217 498,217 498,217 498,217 498,217 498,217 498,217 498,217 498,217 499,217 499,217 499,217 499,217 499,246 499,246 499,246 499,246 499,246 499,246 499,246 500,246 500,246 500,246 500,246 500,246 500,246 500,246 500,246 500,246 500,246 501,246 501,246 501,246 501,246 501,246 501,246 501,246 501,246 501,246 501,246 502,246 502,246 502,275 502,275 502,275 502,275 502,275 502,275 502,275 502,275 502,275 503,275 503,275 503,275 503,275 503,275 503,275 503,275 503,275 503,275 503,275 504,275 504,275 504,275 504,275 504,275 504,275 504,275 504,275 504,275 504,275 505,275 505,275 505,275 505,303 505,303 505,303 505,303 505,303 505,303 505,303 505,303 506,303 506,303 506,303 506,303 506,303 506,303 506,303 506,303 506,303 506,303 507,303 507,303 507,303 507,303 507,303 507,303 507,303 507,303 507,303 507,303 508,303 508,303 508,303 508,303 508,303 508,303 508,303 508,303 508,303 508,303 508,303 509,303 509,303 509,303 509,303 509,332 509,332 509,332 509,332 509,332 509,332 510,332 510,332 510,332 510,332 510,332 510,332 510,332 510,332 510,332 510,332 511,332 511,332 511,332 511,332 511,332 511,332 511,332 511,332 511,332 511,332 511,332 512,332 512,332 512,332 512,332 512,332 512,332 512,332 512,332 512,332 512,332 513,332 513,332 513,332 513,332 513,332 513,332 513,332 513,332 513,332 513,332 514,332 514,332 514,332 514,332 514,332 514,332 514,332 514,332 514,332 514,332 514,332 515,332 515,332 515,332 515,332 515,332 515,332 515,332 515,332 515,332 515,332 516,332 516,332 516,332 516,332 516,332 516,332 516,332 516,332 516,332 516,332 517,332 517,332 517,332 517,332 517,332 517,332 517,332 517,332 517,332 517,332 517,332 518,332 518,332 518,332 518,332 518,332 518,332 518,332 518,332 518,332 518,332 519,332 519,332 519,332 519,332 519,332 519,332 519,332 519,332 519,332 519,332 520,332 520,332 520,332 520,332 520,332 520,332 520,332 520,332 520,332 520,332 520,332 521,332 521,332 521,332 521,332 521,332 521,332 521,332 521,332 521,332 521,332 522,332 522,332 522,332 522,332 522,332 522,332 522,332 522,332 522,332 522,332 523,332 523,332 523,332 523,332 523,332 523,332 523,332 523,332 523,332 523,332 523,332 524,332 524,332 524,332 524,332 524,332 524,332 524,332 524,332 524,332 524,332 525,332 525,332 525,332 525,332 525,332 525,332 525,332 525,332 525,332 525,332 526,332 526,332 526,332 526,332 526,332 526,332 526,332 526,332 526,332 526,332 526,332 527,332 527,332 527,332 527,332 527,332 527,332 527,332 527,332 527,332 527,332 528,332 528,332 528,332 528,332 528,332 528,332 528,332 528,332 528,332 528,332 529,332 529,332 529,332 529,303 529,303 529,303 529,303 529,303 529,303 529,303 529,303 530,303 530,303 530,303 530,303 530,303 530,303 530,303 530,303 530,303 530,303 531,303 531,303 531,303 531,303 531,303 531,303 531,303 531,303 531,303 531,303 532,303 532,303 532,303 532,303 532,303 532,303 532,303 532,303 532,303 532,303 532,303 533,303 533,303 533,303 533,275 533,275 533,275 533,275 533,275 533,275 533,275 534,275 534,275 534,275 534,275 534,275 534,275 534,275 534,275 534,275 534,275 535,275 535,275 535,275 535,275 535,275 535,275 535,275 535,275 535,275 535,275 536,275 536,275 536,275 536,275 536,275 536,275 536,246 536,246 536,246 536,246 536,246 537,246 537,246 537,246 537,246 537,246 537,246 537,246 537,246 537,246 537,246 538,246 538,246 538,246 538,246 538,246 538,246 538,246 538,246 538,246 538,246 539,246 539,246 539,217 539,217 539,217 539,217 539,217 539,217 539,217 539,217 539,217 540,217 540,217 540,217 540,217 540,217 540,217 540,217 540,217 540,217 540,217 541,217 541,217 541,217 541,217 541,217 541,217 541,217 541,189 541,189 541,189 542,189 542,189 542,189 542,189 542,189 542,189 542,189 542,189 542,189 542,189 542,189 543,189 543,189 543,189 543,189 543,189 543,189 543,189 543,189 543,189 543,189 544,160 544,160 544,160 544,160 544,160 544,160 544,160 544,160 544,160 544,160 545,160 545,160 545,160 545,160 545,160 545,160 545,160 545,160 545,160 545,160 545,160 546,160 546,160 546,132 546,132 546,132 546,132 546,132 546,132 546,132 546,132 547,132 547,132 547,132 547,132 547,132 547,132 547,132 547,132 547,132 547,132 548,132 548,132 548,132 548,132 548,132 548,132 548,132 548,132 548,103 548,103 548,103 549,103 549,103 549,103 549,103 549,103 549,103 549,103 549,103 549,103 549,103 550,103 550,103 550,103 550,103 550,103 550,103 550,103 550,103 550,103 550,103 551,103 551,103 551,103 551,103 551,103 551,103 551,103 551,75 551,75 551,75 551,75 552,75 552,75 552,75 552,75 552,75 552,75 552,75 552,75 552,75 552,75 553,75 553,75 553,75 553,75 553,75 553,75 553,75 553,75 553,75 553,75 554,75 554,75 554,75 554,75 554,75 554,75 554,75 554,75 554,75 554,75 554,75 555,75 555,75 555,75 555,75 555,75 555,75 555,75 555,75 555,75 555,75 556,75 556,75 556,75 556,75 556,75 556,75 556,75 556,75 556,75 556,75 557,75 557,75 557,75 557,75 557,75 557,75 557,75 557,75 557,75 557,75 557,75 558,75 558,75 558,75 558,75 558,75 558,75 558,75 558,75 558,75 558,75 559,75 559,75 559,75 559,75 559,75 559,75 559,75 559,75 559,75 559,75 560,75 560,75 560,75 560,75 560,75 560,75 560,75 560,75 560,75 560,75 560,75 561,75 561,75 561,75 561,75 561,75 561,75 561,75 561,75 561,75 561,75 562,75 562,75 562,75 562,75 562,75 562,75 562,75 562,75 562,75 562,75 563,75 563,75 563,75 563,75 563,75 563,75 563,75 563,75 563,75 563,75 563,75 564,103 564,103 564,103 564,103 564,103 564,103 564,103 564,103 564,103 564,103 565,103 565,103 565,103 565,103 565,103 565,103 565,103 565,103 565,103 565,103 566,103 566,103 566,103 566,103 566,103 566,103 566,103 566,103 566,103 566,103 566,132 567,132 567,132 567,132 567,132 567,132 567,132 567,132 567,132 567,132 567,132 568,132 568,132 568,132 568,132 568,132 568,132 568,132 568,132 568,132 568,132 569,132 569,132 569,132 569,132 569,160 569,160 569,160 569,160 569,160 569,160 569,160 570,160 570,160 570,160 570,160 570,160 570,160 570,160 570,160 570,160 570,160 571,160 571,160 571,160 571,160 571,160 571,160 571,160 571,189 571,189 571,189 572,189 572,189 572,189 572,189 572,189 572,189 572,189 572,189 572,189 572,189 572,189 573,189 573,189 573,189 573,189 573,189 573,189 573,189 573,189 573,189 573,217 574,217 574,217 574,217 574,217 574,217 574,217 574,217 574,217 574,217 574,217 575,217 575,217 575,217 575,217 575,217 575,217 575,217 575,217 575,217 575,217 575,217 576,217 576,217 576,217 576,246 576,246 576,246 576,246 576,246 576,246 576,246 577,246 577,246 577,246 577,246 577,246 577,246 577,246 577,246 577,246 577,246 578,246 578,246 578,246 578,246 578,246 578,246 578,246 578,246 578,246 578,246 578,246 579,275 579,275 579,275 579,275 579,275 579,275 579,275 579,275 579,275 579,275 580,275 580,275 580,275 580,275 580,275 580,275 580,275 580,275 580,275 580,275 581,275 581,275 581,275 581,275 581,275 581,275 581,275 581,275 581,275 581,275 581,275 582,275 582,303 582,303 582,303 582,303 582,303 582,303 582,303 582,303 582,303 583,303 583,303 583,303 583,303 583,303 583,303 583,303 583,303 583,303 583,303 584,303 584,303 584,303 584,303 584,303 584,303 584,303 584,303 584,303 584,303 584,303 585,303 585,303 585,303 585,303 585,303 585,303 585,303 585,303 585,303 585,303 586,303 586,332 586,332 586,332 586,332 586,332 586,332 586,332 586,332 586,332 587,332 587,332 587,332 587,332 587,332 587,332 587,332 587,332 587,332 587,332 587,332 588,332 588,332 588,332 588,332 588,332 588,332 588,332 588,332 588,332 588,332 589,332 589,332 589,332 589,332 589,332 589,332 589,332 589,332 589,332 589,332 590,332 590,332 590,332 590,332 590,332 590,332 590,332 590,332 590,332 590,332 590,332 591,332 591,332 591,332 591,332 591,332 591,332 591,332 591,332 591,332 591,332 592,332 592,332 592,332 592,332 592,332 592,332 592,332 592,332 592,332 592,332 593,332 593,332 593,332 593,332 593,332 593,332 593,332 593,332 593,332 593,332 593,332 594,332 594,332 594,332 594,332 594,332 594,332 594,332 594,332 594,332 594,332 595,332 595,332 595,332 595,332 595,332 595,332 595,332 595,332 595,332 595,332 596,332 596,332 596,332 596,332 596,332 596,332 596,332 596,332 596,332 596,332 596,332 597,332 597,332 597,332 597,332 597,332 597,332 597,332 597,332 597,332 597,332 598,332 598,332 598,332 598,332 598,332 598,332 598,332 598,332 598,332 598,332 599,332 599,332 599,332 599,332 599,332 599,332 599,332 599,332 599,332 599,332 599,332 600,332 600,332 600,332 600,332 600,332 600,332 600,332 600,332 600,332 600,332 601,332 601,332 601,332 601,332 601,332 601,332 601,332 601,332 601,332 601,332 602,332 602,332 602,332 602,332 602,332 602,332 602,332 602,332 602,332 602,332 602,332 603,332 603,332 603,332 603,332 603,332 603,332 603,332 603,332 603,332 603,332 604,332 604,332 604,332 604,332 604,332 604,332 604,332 604,332 604,332 604,332 605,332 605,332 605,332 605,332 605,332 605,332 605,332 605,332 605,332 605,332 605,332 606,332 606,303 606,303 606,303 606,303 606,303 606,303 606,303 606,303 606,303 607,303 607,303 607,303 607,303 607,303 607,303 607,303 607,303 607,303 607,303 608,303 608,303 608,303 608,303 608,303 608,303 608,303 608,303 608,303 608,303 608,303 609,303 609,303 609,303 609,303 609,303 609,303 609,303 609,303 609,303 609,303 610,303 610,275 610,275 610,275 610,275 610,275 610,275 610,275 610,275 610,275 611,275 611,275 611,275 611,275 611,275 611,275 611,275 611,275 611,275 611,275 612,275 612,275 612,275 612,275 612,275 612,275 612,275 612,275 612,275 612,275 612,275 613,275 613,275 613,246 613,246 613,246 613,246 613,246 613,246 613,246 613,246 614,246 614,246 614,246 614,246 614,246 614,246 614,246 614,246 614,246 614,246 615,246 615,246 615,246 615,246 615,246 615,246 615,246 615,246 615,246 615,246 615,246 616,217 616,217 616,217 616,217 616,217 616,217 616,217 616,217 616,217 616,217 617,217 617,217 617,217 617,217 617,217 617,217 617,217 617,217 617,217 617,217 618,217 618,217 618,217 618,217 618,189 618,189 618,189 618,189 618,189 618,189 618,189 619,189 619,189 619,189 619,189 619,189 619,189 619,189 619,189 619,189 619,189 620,189 620,189 620,189 620,189 620,189 620,189 620,160 620,160 620,160 620,160 621,160 621,160 621,160 621,160 621,160 621,160 621,160 621,160 621,160 621,160 621,160 622,160 622,160 622,160 622,160 622,160 622,160 622,160 622,160 622,160 622,160 623,160 623,132 623,132 623,132 623,132 623,132 623,132 623,132 623,132 623,132 624,132 624,132 624,132 624,132 624,132 624,132 624,132 624,132 624,132 624,132 624,132 625,132 625,132 625,132 625,132 625,132 625,103 625,103 625,103 625,103 625,103 626,103 626,103 626,103 626,103 626,103 626,103 626,103 626,103 626,103 626,103 627,103 627,103 627,103 627,103 627,103 627,103 627,103 627,103 627,103 627,103 627,103 628,103 628,103 628,103 628,103 628,75 628,75 628,75 628,75 628,75 628,75 629,75 629,75 629,75 629,75 629,75 629,75 629,75 629,75 629,75 629,75 630,75 630,75 630,75 630,75 630,75 630,75 630,75 630,75 630,75 630,75 630,75 631,75 631,75 631,75 631,75 631,75 631,75 631,75 631,75 631,75 631,75 632,75 632,75 632,75 632,75 632,75 632,75 632,75 632,75 632,75 632,75 633,75 633,75 633,75 633,75 633,75 633,75 633,75 633,75 633,75 633,75 633,75 634,75 634,75 634,75 634,75 634,75 634,75 634,75 634,75 634,75 634,75 635,75 635,75 635,75 635,75 635,75 635,75 635,75 635,75 635,75 635,75 636,75 636,75 636,75 636,75 636,75 636,75 636,75 636,75 636,75 636,75 636,75 637,75 637,75 637,75 637,75 637,75 637,75 637,75 637,75 637,75 637,75 638,75 638,75 638,75 638,75 638,75 638,75 638,75 638,75 638,75 638,75 639,75 639,75 639,75 639,75 639,75 639,75 639,75 639,75 639,75 639,75 639,75 640,75 640,75 640,75 640,75 640,75 640,75 640,75 640,75 640,75 640,75 641,75 641,103 641,103 641,103 641,103 641,103 641,103 641,103 641,103 641,103 642,103 642,103 642,103 642,103 642,103 642,103 642,103 642,103 642,103 642,103 642,103 643,103 643,103 643,103 643,103 643,103 643,103 643,103 643,103 643,103 643,103 644,132 644,132 644,132 644,132 644,132 644,132 644,132 644,132 644,132 644,132 645,132 645,132 645,132 645,132 645,132 645,132 645,132 645,132 645,132 645,132 645,132 646,132 646,132 646,132 646,132 646,160 646,160 646,160 646,160 646,160 646,160 647,160 647,160 647,160 647,160 647,160 647,160 647,160 647,160 647,160 647,160 648,160 648,160 648,160 648,160 648,160 648,160 648,160 648,160 648,160 648,189 648,189 649,189 649,189 649,189 649,189 649,189 649,189 649,189 649,189 649,189 649,189 650,189 650,189 650,189 650,189 650,189 650,189 650,189 650,189 650,189 650,189 651,189 651,189 651,217 651,217 651,217 651,217 651,217 651,217 651,217 651,217 651,217 652,217 652,217 652,217 652,217 652,217 652,217 652,217 652,217 652,217 652,217 653,217 653,217 653,217 653,217 653,217 653,217 653,246 653,246 653,246 653,246 654,246 654,246 654,246 654,246 654,246 654,246 654,246 654,246 654,246 654,246 654,246 655,246 655,246 655,246 655,246 655,246 655,246 655,246 655,246 655,246 655,246 656,246 656,246 656,246 656,275 656,275 656,275 656,275 656,275 656,275 656,275 657,275 657,275 657,275 657,275 657,275 657,275 657,275 657,275 657,275 657,275 657,275 658,275 658,275 658,275 658,275 658,275 658,275 658,275 658,275 658,275 658,275 659,275 659,275 659,275 659,275 659,303 659,303 659,303 659,303 659,303 659,303 660,303 660,303 660,303 660,303 660,303 660,303 660,303 660,303 660,303 660,303 660,303 661,303 661,303 661,303 661,303 661,303 661,303 661,303 661,303 661,303 661,303 662,303 662,303 662,303 662,303 662,303 662,303 662,303 662,303 662,303 662,303 663,303 663,303 663,303 663,303 663,303 663,332 663,332 663,332 663,332 663,332 663,332 664,332 664,332 664,332 664,332 664,332 664,332 664,332 664,332 664,332 664,332 665,332 665,332 665,332 665,332 665,332 665,332 665,332 665,332 665,332 665,332 666,332 666,332 666,332 666,332 666,332 666,332 666,332 666,332 666,332 666,332 666,332 667,332 667,332 667,332 667,332 667,332 667,332 667,332 667,332 667,332 667,332 668,332 668,332 668,332 668,332 668,332 668,332 668,332 668,332 668,332 668,332 669,332 669,332 669,332 669,332 669,332 669,332 669,332 669,332 669,332 669,332 669,332 670,332 670,332 670,332 670,332 670,332 670,332 670,332 670,332 670,332 670,332 671,332 671,332 671,332 671,332 671,332 671,332 671,332 671,332 671,332 671,332 672,332 672,332 672,332 672,332 672,332 672,332 672,332 672,332 672,332 672,332 672,332 673,332 673,332 673,332 673,332 673,332 673,332 673,332 673,332 673,332 673,332 674,332 674,332 674,332 674,332 674,332 674,332 674,332 674,332 674,332 674,332 675,332 675,332 675,332 675,332 675,332 675,332 675,332 675,332 675,332 675,332 675,332 676,332 676,332 676,332 676,332 676,332 676,332 676,332 676,332 676,332 676,332 677,332 677,332 677,332 677,332 677,332 677,332 677,332 677,332 677,332 677,332 678,332 678,332 678,332 678,332 678,332 678,332 678,332 678,332 678,332 678,332 678,332 679,332 679,332 679,332 679,332 679,332 679,332 679,332 679,332 679,332 679,332 680,332 680,332 680,332 680,332 680,332 680,332 680,332 680,332 680,332 680,332 681,332 681,332 681,332 681,332 681,332 681,332 681,332 681,332 681,332 681,332 681,332 682,332 682,332 682,332 682,332 682,332 682,332 682,332 682,332 682,332 682,332 683,332 683,332 683,332 683,332 683,332 683,332 683,332 683,332 683,332 683,303 684,303 684,303 684,303 684,303 684,303 684,303 684,303 684,303 684,303 684,303 684,303 685,303 685,303 685,303 685,303 685,303 685,303 685,303 685,303 685,303 685,303 686,303 686,303 686,303 686,303 686,303 686,303 686,303 686,303 686,303 686,303 687,303 687,303 687,303 687,303 687,303 687,303 687,303 687,303 687,303 687,303 687,275 688,275 688,275 688,275 688,275 688,275 688,275 688,275 688,275 688,275 688,275 689,275 689,275 689,275 689,275 689,275 689,275 689,275 689,275 689,275 689,275 690,275 690,275 690,275 690,275 690,275 690,275 690,275 690,275 690,275 690,275 691,275 691,275 691,246 691,246 691,246 691,246 691,246 691,246 691,246 691,246 691,246 692,246 692,246 692,246 692,246 692,246 692,246 692,246 692,246 692,246 692,246 693,246 693,246 693,246 693,246 693,246 693,246 693,246 693,246 693,246 693,217 694,217 694,217 694,217 694,217 694,217 694,217 694,217 694,217 694,217 694,217 694,217 695,217 695,217 695,217 695,217 695,217 695,217 695,217 695,217 695,217 695,217 696,217 696,217 696,217 696,217 696,217 696,189 696,189 696,189 696,189 696,189 697,189 697,189 697,189 697,189 697,189 697,189 697,189 697,189 697,189 697,189 697,189 698,189 698,189 698,189 698,189 698,189 698,189 698,189 698,189 698,160 698,160 699,160 699,160 699,160 699,160 699,160 699,160 699,160 699,160 699,160 699,160 700,160 700,160 700,160 700,160 700,160 700,160 700,160 700,160 700,160 700,160 700,160 701,160 701,132 701,132 701,132 701,132 701,132 701,132 701,132 701,132 701,132 702,132 702,132 702,132 702,132 702,132 702,132 702,132 702,132 702,132 702,132 703,132 703,132 703,132 703,132 703,132 703,103 703,103 703,103 703,103 703,103 703,103 704,103 704,103 704,103 704,103 704,103 704,103 704,103 704,103 704,103 704,103 705,103 705,103 705,103 705,103 705,103 705,103 705,103 705,103 705,103 705,103 706,103 706,103 706,103 706,103 706,75 706,75 706,75 706,75 706,75 706,75 706,75 707,75 707,75 707,75 707,75 707,75 707,75 707,75 707,75 707,75 707,75 708,75 708,75 708,75 708,75 708,75 708,75 708,75 708,75 708,75 708,75 709,75 709,75 709,75 709,75 709,75 709,75 709,75 709,75 709,75 709,75 709,75 710,75 710,75 710,75 710,75 710,75 710,75 710,75 710,75 710,75 710,75 711,75 711,75 711,75 711,75 711,75 711,75 711,75 711,75 711,75 711,75 712,75 712,75 712,75 712,75 712,75 712,75 712,75 712,75 712,75 712,75 712,75 713,75 713,75 713,75 713,75 713,75 713,75 713,75 713,75 713,75 713,75 714,75 714,75 714,75 714,75 714,75 714,75 714,75 714,75 714,75 714,75 715,75 715,75 715,75 715,75 715,75 715,75 715,75 715,75 715,75 715,75 715,75 716,75 716,75 716,75 716,75 716,75 716,75 716,75 716,75 716,75 716,75 717,75 717,75 717,75 717,75 717,75 717,75 717,75 717,75 717,75 717,75 718,75 718,75 718,75 718,75 718,75 718,75 718,75 718,103 718,103 718,103 718,103 719,103 719,103 719,103 719,103 719,103 719,103 719,103 719,103 719,103 719,103 720,103 720,103 720,103 720,103 720,103 720,103 720,103 720,103 720,103 720,103 721,103 721,103 721,103 721,103 721,103 721,103 721,132 721,132 721,132 721,132 721,132 722,132 722,132 722,132 722,132 722,132 722,132 722,132 722,132 722,132 722,132 723,132 723,132 723,132 723,132 723,132 723,132 723,132 723,132 723,132 723,160 724,160 724,160 724,160 724,160 724,160 724,160 724,160 724,160 724,160 724,160 724,160 725,160 725,160 725,160 725,160 725,160 725,160 725,160 725,160 725,160 725,160 726,160 726,189 726,189 726,189 726,189 726,189 726,189 726,189 726,189 726,189 727,189 727,189 727,189 727,189 727,189 727,189 727,189 727,189 727,189 727,189 727,189 728,189 728,189 728,189 728,217 728,217 728,217 728,217 728,217 728,217 728,217 729,217 729,217 729,217 729,217 729,217 729,217 729,217 729,217 729,217 729,217 730,217 730,217 730,217 730,217 730,217 730,217 730,217 730,246 730,246 730,246 730,246 731,246 731,246 731,246 731,246 731,246 731,246 731,246 731,246 731,246 731,246 732,246 732,246 732,246 732,246 732,246 732,246 732,246 732,246 732,246 732,246 733,246 733,246 733,246 733,275 733,275 733,275 733,275 733,275 733,275 733,275 733,275 734,275 734,275 734,275 734,275 734,275 734,275 734,275 734,275 734,275 734,275 735,275 735,275 735,275 735,275 735,275 735,275 735,275 735,275 735,275 735,275 736,275 736,275 736,303 736,303 736,303 736,303 736,303 736,303 736,303 736,303 736,303 737,303 737,303 737,303 737,303 737,303 737,303 737,303 737,303 737,303 737,303 738,303 738,303 738,303 738,303 738,303 738,303 738,303 738,303 738,303 738,303 739,303 739,303 739,303 739,303 739,303 739,303 739,303 739,303 739,303 739,303 739,303 740,303 740,332 740,332 740,332 740,332 740,332 740,332 740,332 740,332 740,332 741,332 741,332 741,332 741,332 741,332 741,332 741,332 741,332 741,332 741,332 742,332 742,332 742,332 742,332 742,332 742,332 742,332 742,332 742,332 742,332 742,332 743,332 743,332 743,332 743,332 743,332 743,332 743,332 743,332 743,332 743,332 744,332 744,332 744,332 744,332 744,332 744,332 744,332 744,332 744,332 744,332 745,332 745,332 745,332 745,332 745,332 745,332 745,332 745,332 745,332 745,332 745,332 746,332 746,332 746,332 746,332 746,332 746,332 746,332 746,332 746,332 746,332 747,332 747,332 747,332 747,332 747,332 747,332 747,332 747,332 747,332 747,332 748,332 748,332 748,332 748,332 748,332 748,332 748,332 748,332 748,332 748,332 748,332 749,332 749,332 749,332 749,332 749,332 749,332 749,332 749,332 749,332 749,332 750,332 750,332 750,332 750,332 750,332 750,332 750,332 750,332 750,332 750,332 751,332 751,332 751,332 751,332 751,332 751,332 751,332 751,332 751,332 751,332 751,332 752,332 752,332 752,332 752,332 752,332 752,332 752,332 752,332 752,332 752,332 753,332 753,332 753,332 753,332 753,332 753,332 753,332 753,332 753,332 753,332 754,332 754,332 754,332 754,332 754,332 754,332 754,332 754,332 754,332 754,332 754,332 755,332 755,332 755,332 755,332 755,332 755,332 755,332 755,332 755,332 755,332 756,332 756,332 756,332 756,332 756,332 756,332 756,332 756,332 756,332 756,332 757,332 757,332 757,332 757,332 757,332 757,332 757,332 757,332 757,332 757,332 757,332 758,332 758,332 758,332 758,332 758,332 758,332 758,332 758,332 758,332 758,332 759,332 759,332 759,332 759,332 759,332 759,332 759,332 759,332 759,332 759,332 760,332 760,332 760,332 760,332 760,332 760,303 760,303 760,303 760,303 760,303 760,303 761,303 761,303 761,303 761,303 761,303 761,303 761,303 761,303 761,303 761,303 762,303 762,303 762,303 762,303 762,303 762,303 762,303 762,303 762,303 762,303 763,303 763,303 763,303 763,303 763,303 763,303 763,303 763,303 763,303 763,303 763,303 764,303 764,303 764,303 764,303 764,303 764,275 764,275 764,275 764,275 764,275 765,275 765,275 765,275 765,275 765,275 765,275 765,275 765,275 765,275 765,275 766,275 766,275 766,275 766,275 766,275 766,275 766,275 766,275 766,275 766,275 767,275 767,275 767,275 767,275 767,275 767,275 767,275 767,275 767,246 767,246 767,246 768,246 768,246 768,246 768,246 768,246 768,246 768,246 768,246 768,246 768,246 769,246 769,246 769,246 769,246 769,246 769,246 769,246 769,246 769,246 769,246 770,246 770,246 770,246 770,246 770,246 770,217 770,217 770,217 770,217 770,217 770,217 771,217 771,217 771,217 771,217 771,217 771,217 771,217 771,217 771,217 771,217 772,217 772,217 772,217 772,217 772,217 772,217 772,217 772,217 772,217 772,189 773,189 773,189 773,189 773,189 773,189 773,189 773,189 773,189 773,189 773,189 773,189 774,189 774,189 774,189 774,189 774,189 774,189 774,189 774,189 774,189 774,189 775,189 775,160 775,160 775,160 775,160 775,160 775,160 775,160 775,160 775,160 776,160 776,160 776,160 776,160 776,160 776,160 776,160 776,160 776,160 776,160 776,160 777,160 777,160 777,160 777,160 777,132 777,132 777,132 777,132 777,132 777,132 778,132 778,132 778,132 778,132 778,132 778,132 778,132 778,132 778,132 778,132 779,132 779,132 779,132 779,132 779,132 779,132 779,132 779,132 779,132 779,103 779,103 780,103 780,103 780,103 780,103 780,103 780,103 780,103 780,103 780,103 780,103 781,103 781,103 781,103 781,103 781,103 781,103 781,103 781,103 781,103 781,103 782,103 782,103 782,103 782,103 782,103 782,103 782,103 782,103 782,75 782,75 782,75 783,75 783,75 783,75 783,75 783,75 783,75 783,75 783,75 783,75 783,75 784,75 784,75 784,75 784,75 784,75 784,75 784,75 784,75 784,75 784,75 785,75 785,75 785,75 785,75 785,75 785,75 785,75 785,75 785,75 785,75 785,75 786,75 786,75 786,75 786,75 786,75 786,75 786,75 786,75 786,75 786,75 787,75 787,75 787,75 787,75 787,75 787,75 787,75 787,75 787,75 787,75 788,75 788,75 788,75 788,75 788,75 788,75 788,75 788,75 788,75 788,75 788,75 789,75 789,75 789,75 789,75 789,75 789,75 789,75 789,75 789,75 789,75 790,75 790,75 790,75 790,75 790,75 790,75 790,75 790,75 790,75 790,75 791,75 791,75 791,75 791,75 791,75 791,75 791,75 791,75 791,75 791,75 791,75 792,75 792,75 792,75 792,75 792,75 792,75 792,75 792,75 792,75 792,75 793,75 793,75 793,75 793,75 793,75 793,75 793,75 793,75 793,75 793,75 794,75 794,75 794,75 794,75 794,75 794,75 794,75 794,75 794,75 794,75 794,75 795,75 795,75 795,75 795,103 795,103 795,103 795,103 795,103 795,103 795,103 796,103 796,103 796,103 796,103 796,103 796,103 796,103 796,103 796,103 796,103 797,103 797,103 797,103 797,103 797,103 797,103 797,103 797,103 797,103 797,103 797,103 798,103 798,132 798,132 798,132 798,132 798,132 798,132 798,132 798,132 798,132 799,132 799,132 799,132 799,132 799,132 799,132 799,132 799,132 799,132 799,132 800,132 800,132 800,132 800,132 800,132 800,132 800,160 800,160 800,160 800,160 800,160 801,160 801,160 801,160 801,160 801,160 801,160 801,160 801,160 801,160 801,160 802,160 802,160 802,160 802,160 802,160 802,160 802,160 802,160 802,189 802,189 803,189 803,189 803,189 803,189 803,189 803,189 803,189 803,189 803,189 803,189 803,189 804,189 804,189 804,189 804,189 804,189 804,189 804,189 804,189 804,189 804,189 805,189 805,189 805,217 805,217 805,217 805,217 805,217 805,217 805,217 805,217 806,217 806,217 806,217 806,217 806,217 806,217 806,217 806,217 806,217 806,217 806,217 807,217 807,217 807,217 807,217 807,217 807,217 807,246 807,246 807,246 807,246 808,246 808,246 808,246 808,246 808,246 808,246 808,246 808,246 808,246 808,246 809,246 809,246 809,246 809,246 809,246 809,246 809,246 809,246 809,246 809,246 809,246 810,246 810,246 810,275 810,275 810,275 810,275 810,275 810,275 810,275 810,275 811,275 811,275 811,275 811,275 811,275 811,275 811,275 811,275 811,275 811,275 812,275 812,275 812,275 812,275 812,275 812,275 812,275 812,275 812,275 812,275 812,275 813,275 813,275 813,303 813,303 813,303 813,303 813,303 813,303 813,303 813,303 814,303 814,303 814,303 814,303 814,303 814,303 814,303 814,303 814,303 814,303 815,303 815,303 815,303 815,303 815,303 815,303 815,303 815,303 815,303 815,303 815,303 816,303 816,303 816,303 816,303 816,303 816,303 816,303 816,303 816,303 816,303 817,303 817,303 817,303 817,303 817,332 817,332 817,332 817,332 817,332 817,332 818,332 818,332 818,332 818,332 818,332 818,332 818,332 818,332 818,332 818,332 818,332 819,332 819,332 819,332 819,332 819,332 819,332 819,332 819,332 819,332 819,332 820,332 820,332 820,332 820,332 820,332 820,332 820,332 820,332 820,332 820,332 821,332 821,332 821,332 821,332 821,332 821,332 821,332 821,332 821,332 821,332 821,332 822,332 822,332 822,332 822,332 822,332 822,332 822,332 822,332 822,332 822,332 823,332 823,332 823,332 823,332 823,332 823,332 823,332 823,332 823,332 823,332 824,332 824,332 824,332 824,332 824,332 824,332 824,332 824,332 824,332 824,332 824,332 825,332 825,332 825,332 825,332 825,332 825,332 825,332 825,332 825,332 825,332 826,332 826,332 826,332 826,332 826,332 826,332 826,332 826,332 826,332 826,332 827,332 827,332 827,332 827,332 827,332 827,332 827,332 827,332 827,332 827,332 827,332 828,332 828,332 828,332 828,332 828,332 828,332 828,332 828,332 828,332 828,332 829,332 829,332 829,332 829,332 829,332 829,332 829,332 829,332 829,332 829,332 830,332 830,332 830,332 830,332 830,332 830,332 830,332 830,332 830,332 830,332 830,332 831,332 831,332 831,332 831,332 831,332 831,332 831,332 831,332 831,332 831,332 832,332 832,332 832,332 832,332 832,332 832,332 832,332 832,332 832,332 832,332 833,332 833,332 833,332 833,332 833,332 833,332 833,332 833,332 833,332 833,332 833,332 834,332 834,332 834,332 834,332 834,332 834,332 834,332 834,332 834,332 834,332 835,332 835,332 835,332 835,332 835,332 835,332 835,332 835,332 835,332 835,332 836,332 836,332 836,332 836,332 836,332 836,332 836,332 836,332 836,332 836,332 836,332 837,332 837,332 837,332 837,303 837,303 837,303 837,303 837,303 837,303 837,303 838,303 838,303 838,303 838,303 838,303 838,303 838,303 838,303 838,303 838,303 839,303 839,303 839,303 839,303 839,303 839,303 839,303 839,303 839,303 839,303 839,303 840,303 840,303 840,303 840,303 840,303 840,303 840,303 840,303 840,303 840,303 841,303 841,303 841,303 841,303 841,275 841,275 841,275 841,275 841,275 841,275 842,275 842,275 842,275 842,275 842,275 842,275 842,275 842,275 842,275 842,275 843,275 843,275 843,275 843,275 843,275 843,275 843,275 843,275 843,275 843,275 843,275 844,275 844,275 844,275 844,275 844,275 844,275 844,246 844,246 844,246 844,246 845,246 845,246 845,246 845,246 845,246 845,246 845,246 845,246 845,246 845,246 846,246 846,246 846,246 846,246 846,246 846,246 846,246 846,246 846,246 846,246 846,246 847,246 847,246 847,217 847,217 847,217 847,217 847,217 847,217 847,217 847,217 848,217 848,217 848,217 848,217 848,217 848,217 848,217 848,217 848,217 848,217 849,217 849,217 849,217 849,217 849,217 849,217 849,217 849,217 849,189 849,189 849,189 850,189 850,189 850,189 850,189 850,189 850,189 850,189 850,189 850,189 850,189 851,189 851,189 851,189 851,189 851,189 851,189 851,189 851,189 851,189 851,189 852,160 852,160 852,160 852,160 852,160 852,160 852,160 852,160 852,160 852,160 852,160 853,160 853,160 853,160 853,160 853,160 853,160 853,160 853,160 853,160 853,160 854,160 854,160 854,132 854,132 854,132 854,132 854,132 854,132 854,132 854,132 855,132 855,132 855,132 855,132 855,132 855,132 855,132 855,132 855,132 855,132 855,132 856,132 856,132 856,132 856,132 856,132 856,132 856,132 856,103 856,103 856,103 857,103 857,103 857,103 857,103 857,103 857,103 857,103 857,103 857,103 857,103 858,103 858,103 858,103 858,103 858,103 858,103 858,103 858,103 858,103 858,103 858,103 859,103 859,103 859,103 859,103 859,103 859,75 859,75 859,75 859,75 859,75 860,75 860,75 860,75 860,75 860,75 860,75 860,75 860,75 860,75 860,75 861,75 861,75 861,75 861,75 861,75 861,75 861,75 861,75 861,75 861,75 861,75 862,75 862,75 862,75 862,75 862,75 862,75 862,75 862,75 862,75 862,75 863,75 863,75 863,75 863,75 863,75 863,75 863,75 863,75 863,75 863,75 864,75 864,75 864,75 864,75 864,75 864,75 864,75 864,75 864,75 864,75 864,75 865,75 865,75 865,75 865,75 865,75 865,75 865,75 865,75 865,75 865,75 866,75 866,75 866,75 866,75 866,75 866,75 866,75 866,75 866,75 866,75 867,75 867,75 867,75 867,75 867,75 867,75 867,75 867,75 867,75 867,75 867,75 868,75 868,75 868,75 868,75 868,75 868,75 868,75 868,75 868,75 868,75 869,75 869,75 869,75 869,75 869,75 869,75 869,75 869,75 869,75 869,75 870,75 870,75 870,75 870,75 870,75 870,75 870,75 870,75 870,75 870,75 870,75 871,75 871,75 871,75 871,75 871,75 871,75 871,75 871,75 871,75 871,103 872,103 872,103 872,103 872,103 872,103 872,103 872,103 872,103 872,103 872,103 873,103 873,103 873,103 873,103 873,103 873,103 873,103 873,103 873,103 873,103 873,103 874,103 874,103 874,103 874,103 874,103 874,103 874,103 874,132 874,132 874,132 875,132 875,132 875,132 875,132 875,132 875,132 875,132 875,132 875,132 875,132 876,132 876,132 876,132 876,132 876,132 876,132 876,132 876,132 876,132 876,132 876,132 877,132 877,160 877,160 877,160 877,160 877,160 877,160 877,160 877,160 877,160 878,160 878,160 878,160 878,160 878,160 878,160 878,160 878,160 878,160 878,160 879,160 879,160 879,160 879,160 879,160 879,189 879,189 879,189 879,189 879,189 879,189 880,189 880,189 880,189 880,189 880,189 880,189 880,189 880,189 880,189 880,189 881,189 881,189 881,189 881,189 881,189 881,189 881,189 881,217 881,217 881,217 882,217 882,217 882,217 882,217 882,217 882,217 882,217 882,217 882,217 882,217 882,217 883,217 883,217 883,217 883,217 883,217 883,217 883,217 883,217 883,217 883,217 884,246 884,246 884,246 884,246 884,246 884,246 884,246 884,246 884,246 884,246 885,246 885,246 885,246 885,246 885,246 885,246 885,246 885,246 885,246 885,246 885,246 886,246 886,246 886,246 886,246 886,246 886,246 886,275 886,275 886,275 886,275 887,275 887,275 887,275 887,275 887,275 887,275 887,275 887,275 887,275 887,275 888,275 888,275 888,275 888,275 888,275 888,275 888,275 888,275 888,275 888,275 888,275 889,275 889,275 889,275 889,275 889,275 889,275 889,275 889,303 889,303 889,303 890,303 890,303 890,303 890,303 890,303 890,303 890,303 890,303 890,303 890,303 891,303 891,303 891,303 891,303 891,303 891,303 891,303 891,303 891,303 891,303 891,303 892,303 892,303 892,303 892,303 892,303 892,303 892,303 892,303 892,303 892,303 893,303 893,303 893,303 893,303 893,303 893,303 893,303 893,303 893,303 893,332 894,332 894,332 894,332 894,332 894,332 894,332 894,332 894,332 894,332 894,332 894,332 895,332 895,332 895,332 895,332 895,332 895,332 895,332 895,332 895,332 895,332 896,332 896,332 896,332 896,332 896,332 896,332 896,332 896,332 896,332 896,332 897,332 897,332 897,332 897,332 897,332 897,332 897,332 897,332 897,332 897,332 897,332 898,332 898,332 898,332 898,332 898,332 898,332 898,332 898,332 898,332 898,332 899,332 899,332 899,332 899,332 899,332 899,332 899,332 899,332 899,332 899,332 900,332 900,332 900,332 900,332 900,332 900,332 900,332 900,332 900,332 900,332 900,332 901,332 901,332 901,332 901,332 901,332 901,332 901,332 901,332 901,332 901,332 902,332 902,332 902,332 902,332 902,332 902,332 902,332 902,332 902,332 902,332 903,332 903,332 903,332 903,332 903,332 903,332 903,332 903,332 903,332 903,332 903,332 904,332 904,332 904,332 904,332 904,332 904,332 904,332 904,332 904,332 904,332 905,332 905,332 905,332 905,332 905,332 905,332 905,332 905,332 905,332 905,332 906,332 906,332 906,332 906,332 906,332 906,332 906,332 906,332 906,332 906,332 906,332 907,332 907,332 907,332 907,332 907,332 907,332 907,332 907,332 907,332 907,332 908,332 908,332 908,332 908,332 908,332 908,332 908,332 908,332 908,332 908,332 909,332 909,332 909,332 909,332 909,332 909,332 909,332 909,332 909,332 909,332 909,332 910,332 910,332 910,332 910,332 910,332 910,332 910,332 910,332 910,332 910,332 911,332 911,332 911,332 911,332 911,332 911,332 911,332 911,332 911,332 911,332 912,332 912,332 912,332 912,332 912,332 912,332 912,332 912,332 912,332 912,332 912,332 913,332 913,332 913,332 913,332 913,332 913,332 913,332 913,332 913,332 913,303 914,303 914,303 914,303 914,303 914,303 914,303 914,303 914,303 914,303 914,303 915,303 915,303 915,303 915,303 915,303 915,303 915,303 915,303 915,303 915,303 915,303 916,303 916,303 916,303 916,303 916,303 916,303 916,303 916,303 916,303 916,303 917,303 917,303 917,303 917,303 917,303 917,303 917,303 917,303 917,303 917,303 918,303 918,303 918,275 918,275 918,275 918,275 918,275 918,275 918,275 918,275 918,275 919,275 919,275 919,275 919,275 919,275 919,275 919,275 919,275 919,275 919,275 920,275 920,275 920,275 920,275 920,275 920,275 920,275 920,275 920,275 920,275 921,275 921,275 921,275 921,246 921,246 921,246 921,246 921,246 921,246 921,246 922,246 922,246 922,246 922,246 922,246 922,246 922,246 922,246 922,246 922,246 922,246 923,246 923,246 923,246 923,246 923,246 923,246 923,246 923,246 923,246 923,246 924,217 924,217 924,217 924,217 924,217 924,217 924,217 924,217 924,217 924,217 925,217 925,217 925,217 925,217 925,217 925,217 925,217 925,217 925,217 925,217 925,217 926,217 926,217 926,217 926,217 926,189 926,189 926,189 926,189 926,189 926,189 927,189 927,189 927,189 927,189 927,189 927,189 927,189 927,189 927,189 927,189 928,189 928,189 928,189 928,189 928,189 928,189 928,189 928,160 928,160 928,160 928,160 929,160 929,160 929,160 929,160 929,160 929,160 929,160 929,160 929,160 929,160 930,160 930,160 930,160 930,160 930,160 930,160 930,160 930,160 930,160 930,160 931,160 931,132 931,132 931,132 931,132 931,132 931,132 931,132 931,132 931,132 931,132 932,132 932,132 932,132 932,132 932,132 932,132 932,132 932,132 932,132 932,132 933,132 933,132 933,132 933,132 933,132 933,103 933,103 933,103 933,103 933,103 934,103 934,103 934,103 934,103 934,103 934,103 934,103 934,103 934,103 934,103 934,103 935,103 935,103 935,103 935,103 935,103 935,103 935,103 935,103 935,103 935,103 936,103 936,103 936,103 936,103 936,75 936,75 936,75 936,75 936,75 936,75 937,75 937,75 937,75 937,75 937,75 937,75 937,75 937,75 937,75 937,75 937,75 938,75 938,75 938,75 938,75 938,75 938,75 938,75 938,75 938,75 938,75 939,75 939,75 939,75 939,75 939,75 939,75 939,75 939,75 939,75 939,75 940,75 940,75 940,75 940,75 940,75 940,75 940,75 940,75 940,75 940,75 940,75 941,75 941,75 941,75 941,75 941,75 941,75 941,75 941,75 941,75 941,75 942,75 942,75 942,75 942,75 942,75 942,75 942,75 942,75 942,75 942,75 943,75 943,75 943,75 943,75 943,75 943,75 943,75 943,75 943,75 943,75 943,75 944,75 944,75 944,75 944,75 944,75 944,75 944,75 944,75 944,75 944,75 945,75 945,75 945,75 945,75 945,75 945,75 945,75 945,75 945,75 945,75 946,75 946,75 946,75 946,75 946,75 946,75 946,75 946,75 946,75 946,75 946,75 947,75 947,75 947,75 947,75 947,75 947,75 947,75 947,75 947,75 947,75 948,75 948,75 948,75 948,75 948,75 948,75 948,75 948,75 948,75 948,75 949,103 949,103 949,103 949,103 949,103 949,103 949,103 949,103 949,103 949,103 949,103 950,103 950,103 950,103 950,103 950,103 950,103 950,103 950,103 950,103 950,103 951,103 951,103 951,103 951,103 951,103 951,103 951,103 951,103 951,103 951,132 952,132 952,132 952,132 952,132 952,132 952,132 952,132 952,132 952,132 952,132 952,132 953,132 953,132 953,132 953,132 953,132 953,132 953,132 953,132 953,132 953,132 954,132 954,132 954,160 954,160 954,160 954,160 954,160 954,160 954,160 954,160 955,160 955,160 955,160 955,160 955,160 955,160 955,160 955,160 955,160 955,160 955,160 956,160 956,160 956,160 956,160 956,189 956,189 956,189 956,189 956,189 956,189 957,189 957,189 957,189 957,189 957,189 957,189 957,189 957,189 957,189 957,189 958,189 958,189 958,189 958,189 958,189 958,189 958,189 958,189 958,189 958,217 958,217 959,217 959,217 959,217 959,217 959,217 959,217 959,217 959,217 959,217 959,217 960,217 960,217 960,217 960,217 960,217 960,217 960,217 960,217 960,217 960,217 961,217 961,217 961,217 961,246 961,246 961,246 961,246 961,246 961,246 961,246 961,246 962,246 962,246 962,246 962,246 962,246 962,246 962,246 962,246 962,246 962,246 963,246 963,246 963,246 963,246 963,246 963,246 963,246 963,246 963,246 963,275 964,275 964,275 964,275 964,275 964,275 964,275 964,275 964,275 964,275 964,275 964,275 965,275 965,275 965,275 965,275 965,275 965,275 965,275 965,275 965,275 965,275 966,275 966,275 966,275 966,275 966,275 966,275 966,275 966,275 966,275 966,275 967,303 967,303 967,303 967,303 967,303 967,303 967,303 967,303 967,303 967,303 967,303 968,303 968,303 968,303 968,303 968,303 968,303 968,303 968,303 968,303 968,303 969,303 969,303 969,303 969,303 969,303 969,303 969,303 969,303 969,303 969,303 970,303 970,303 970,303 970,303 970,303 970,303 970,303 970,303 970,303 970,303 970,303 971,332 971,332 971,332 971,332 971,332 971,332 971,332 971,332 971,332 971,332 972,332 972,332 972,332 972,332 972,332 972,332 972,332 972,332 972,332 972,332 973,332 973,332 973,332 973,332 973,332 973,332 973,332 973,332 973,332 973,332 973,332 974,332 974,332 974,332 974,332 974,332 974,332 974,332 974,332 974,332 974,332 975,332 975,332 975,332 975,332 975,332 975,332 975,332 975,332 975,332 975,332 976,332 976,332 976,332 976,332 976,332 976,332 976,332 976,332 976,332 976,332 976,332 977,332 977,332 977,332 977,332 977,332 977,332 977,332 977,332 977,332 977,332 978,332 978,332 978,332 978,332 978,332 978,332 978,332 978,332 978,332 978,332 979,332 979,332 979,332 979,332 979,332 979,332 979,332 979,332 979,332 979,332 979,332 980,332 980,332 980,332 980,332 980,332 980,332 980,332 980,332 980,332 980,332 981,332 981,332 981,332 981,332 981,332 981,332 981,332 981,332 981,332 981,332 982,332 982,332 982,332 982,332 982,332 982,332 982,332 982,332 982,332 982,332 982,332 983,332 983,332 983,332 983,332 983,332 983,332 983,332 983,332 983,332 983,332 984,332 984,332 984,332 984,332 984,332 984,332 984,332 984,332 984,332 984,332 985,332 985,332 985,332 985,332 985,332 985,332 985,332 985,332 985,332 985,332 985,332 986,332 986,332 986,332 986,332 986,332 986,332 986,332 986,332 986,332 986,332 987,332 987,332 987,332 987,332 987,332 987,332 987,332 987,332 987,332 987,332 988,332 988,332 988,332 988,332 988,332 988,332 988,332 988,332 988,332 988,332 988,332 989,332 989,332 989,332 989,332 989,332 989,332 989,332 989,332 989,332 989,332 990,332 990,332 990,332 990,332 990,332 990,332 990,332 990,332 990,332 990,332 991,332 991,332 991,332 991,303 991,303 991,303 991,303 991,303 991,303 991,303 991,303 992,303 992,303 992,303 992,303 992,303 992,303 992,303 992,303 992,303 992,303 993,303 993,303 993,303 993,303 993,303 993,303 993,303 993,303 993,303 993,303 994,303 994,303 994,303 994,303 994,303 994,303 994,303 994,303 994,303 994,303 994,303 995,303 995,303 995,303 995,275 995,275 995,275 995,275 995,275 995,275 995,275 996,275 996,275 996,275 996,275 996,275 996,275 996,275 996,275 996,275 996,275 997,275 997,275 997,275 997,275 997,275 997,275 997,275 997,275 997,275 997,275 998,275 998,275 998,275 998,275 998,275 998,275 998,246 998,246 998,246 998,246 998,246 999,246 999,246 999,246 999,246 999,246 999,246 999,246 999,246 999,246 999,246 1000,246 1000,246 1000,246 1000,246 1000,246 1000,246 1000,246 1000,246 1000,246 1000,246 1001,246 1001,246 1001,246 1001,217 1001,217 1001,217 1001,217 1001,217 1001,217 1001,217 1001,217 1002,217 1002,217 1002,217 1002,217 1002,217 1002,217 1002,217 1002,217 1002,217 1002,217 1003,217 1003,217 1003,217 1003,217 1003,217 1003,217 1003,217 1003,189 1003,189 1003,189 1004,189 1004,189 1004,189 1004,189 1004,189 1004,189 1004,189 1004,189 1004,189 1004,189 1004,189 1005,189 1005,189 1005,189 1005,189 1005,189 1005,189 1005,189 1005,189 1005,189 1005,189 1006,160 1006,160 1006,160 1006,160 1006,160 1006,160 1006,160 1006,160 1006,160 1006,160 1007,160 1007,160 1007,160 1007,160 1007,160 1007,160 1007,160 1007,160 1007,160 1007,160 1007,160 1008,160 1008,160 1008,160 1008,132 1008,132 1008,132 1008,132 1008,132 1008,132 1008,132 1009,132 1009,132 1009,132 1009,132 1009,132 1009,132 1009,132 1009,132 1009,132 1009,132 1010,132 1010,132 1010,132 1010,132 1010,132 1010,132 1010,132 1010,103 1010,103 1010,103 1010,103 1011,103 1011,103 1011,103 1011,103 1011,103 1011,103 1011,103 1011,103 1011,103 1011,103 1012,103 1012,103 1012,103 1012,103 1012,103 1012,103 1012,103 1012,103 1012,103 1012,103 1013,103 1013,103 1013,103 1013,103 1013,103 1013,103 1013,75 1013,75 1013,75 1013,75 1013,75 1014,75 1014,75 1014,75 1014,75 1014,75 1014,75 1014,75 1014,75 1014,75 1014,75 1015,75 1015,75 1015,75 1015,75 1015,75 1015,75 1015,75 1015,75 1015,75 1015,75 1016,75 1016,75 1016,75 1016,75 1016,75 1016,75 1016,75 1016,75 1016,75 1016,75 1016,75 1017,75 1017,75 1017,75 1017,75 1017,75 1017,75 1017,75 1017,75 1017,75 1017,75 1018,75 1018,75 1018,75 1018,75 1018,75 1018,75 1018,75 1018,75 1018,75 1018,75 1019,75 1019,75 1019,75 1019,75 1019,75 1019,75 1019,75 1019,75 1019,75 1019,75 1019,75 1020,75 1020,75 1020,75 1020,75 1020,75 1020,75 1020,75 1020,75 1020,75 1020,75 1021,75 1021,75 1021,75 1021,75 1021,75 1021,75 1021,75 1021,75 1021,75 1021,75 1022,75 1022,75 1022,75 1022,75 1022,75 1022,75 1022,75 1022,75 1022,75 1022,75 1022,75 1023,75 1023,75 1023,75 1023,75 1023,75 1023,75 1023,75 1023,75 1023,75 1023,75 1024,75 1024,75 1024,75 1024,75 1024,75 1024,75 1024,75 1024,75 1024,75 1024,75 1025,75 1025,75 1025,75 1025,75 1025,75 1025,75 1025,75 1025,75 1025,75 1025,75 1025,75 1026,75 1026,75 1026,103 1026,103 1026,103 1026,103 1026,103 1026,103 1026,103 1026,103 1027,103 1027,103 1027,103 1027,103 1027,103 1027,103 1027,103 1027,103 1027,103 1027,103 1028,103 1028,103 1028,103 1028,103 1028,103 1028,103 1028,103 1028,103 1028,103 1028,103 1028,103 1029,103 1029,132 1029,132 1029,132 1029,132 1029,132 1029,132 1029,132 1029,132 1029,132 1030,132 1030,132 1030,132 1030,132 1030,132 1030,132 1030,132 1030,132 1030,132 1030,132 1031,132 1031,132 1031,132 1031,132 1031,132 1031,132 1031,160 1031,160 1031,160 1031,160 1031,160 1032,160 1032,160 1032,160 1032,160 1032,160 1032,160 1032,160 1032,160 1032,160 1032,160 1033,160 1033,160 1033,160 1033,160 1033,160 1033,160 1033,160 1033,160 1033,160 1033,160 1034,189 1034,189 1034,189 1034,189 1034,189 1034,189 1034,189 1034,189 1034,189 1034,189 1034,189 1035,189 1035,189 1035,189 1035,189 1035,189 1035,189 1035,189 1035,189 1035,189 1035,189 1036,189 1036,189 1036,217 1036,217 1036,217 1036,217 1036,217 1036,217 1036,217 1036,217 1037,217 1037,217 1037,217 1037,217 1037,217 1037,217 1037,217 1037,217 1037,217 1037,217 1037,217 1038,217 1038,217 1038,217 1038,217 1038,217 1038,217 1038,246 1038,246 1038,246 1038,246 1039,246 1039,246 1039,246 1039,246 1039,246 1039,246 1039,246 1039,246 1039,246 1039,246 1040,246 1040,246 1040,246 1040,246 1040,246 1040,246 1040,246 1040,246 1040,246 1040,246 1040,246 1041,246 1041,246 1041,246 1041,246 1041,275 1041,275 1041,275 1041,275 1041,275 1041,275 1042,275 1042,275 1042,275 1042,275 1042,275 1042,275 1042,275 1042,275 1042,275 1042,275 1043,275 1043,275 1043,275 1043,275 1043,275 1043,275 1043,275 1043,275 1043,275 1043,275 1043,275 1044,275 1044,275 1044,275 1044,303 1044,303 1044,303 1044,303 1044,303 1044,303 1044,303 1045,303 1045,303 1045,303 1045,303 1045,303 1045,303 1045,303 1045,303 1045,303 1045,303 1046,303 1046,303 1046,303 1046,303 1046,303 1046,303 1046,303 1046,303 1046,303 1046,303 1046,303 1047,303 1047,303 1047,303 1047,303 1047,303 1047,303 1047,303 1047,303 1047,303 1047,303 1048,303 1048,303 1048,303 1048,332 1048,332 1048,332 1048,332 1048,332 1048,332 1048,332 1049,332 1049,332 1049,332 1049,332 1049,332 1049,332 1049,332 1049,332 1049,332 1049,332 1049,332 1050,332 1050,332 1050,332 1050,332 1050,332 1050,332 1050,332 1050,332 1050,332 1050,332 1051,332 1051,332 1051,332 1051,332 1051,332 1051,332 1051,332 1051,332 1051,332 1051,332 1052,332 1052,332 1052,332 1052,332 1052,332 1052,332 1052,332 1052,332 1052,332 1052,332 1052,332 1053,332 1053,332 1053,332 1053,332 1053,332 1053,332 1053,332 1053,332 1053,332 1053,332 1054,332 1054,332 1054,332 1054,332 1054,332 1054,332 1054,332 1054,332 1054,332 1054,332 1055,332 1055,332 1055,332 1055,332 1055,332 1055,332 1055,332 1055,332 1055,332 1055,332 1055,332 1056,332 1056,332 1056,332 1056,332 1056,332 1056,332 1056,332 1056,332 1056,332 1056,332 1057,332 1057,332 1057,332 1057,332 1057,332 1057,332 1057,332 1057,332 1057,332 1057,332 1058,332 1058,332 1058,332 1058,332 1058,332 1058,332 1058,332 1058,332 1058,332 1058,332 1058,332 1059,332 1059,332 1059,332 1059,332 1059,332 1059,332 1059,332 1059,332 1059,332 1059,332 1060,332 1060,332 1060,332 1060,332 1060,332 1060,332 1060,332 1060,332 1060,332 1060,332 1061,332 1061,332 1061,332 1061,332 1061,332 1061,332 1061,332 1061,332 1061,332 1061,332 1061,332 1062,332 1062,332 1062,332 1062,332 1062,332 1062,332 1062,332 1062,332 1062,332 1062,332 1063,332 1063,332 1063,332 1063,332 1063,332 1063,332 1063,332 1063,332 1063,332 1063,332 1064,332 1064,332 1064,332 1064,332 1064,332 1064,332 1064,332 1064,332 1064,332 1064,332 1064,332 1065,332 1065,332 1065,332 1065,332 1065,332 1065,332 1065,332 1065,332 1065,332 1065,332 1066,332 1066,332 1066,332 1066,332 1066,332 1066,332 1066,332 1066,332 1066,332 1066,332 1067,332 1067,332 1067,332 1067,332 1067,332 1067,332 1067,332 1067,332 1067,332 1067,332 1067,332 1068,332 1068,332 1068,332 1068,303 1068,303 1068,303 1068,303 1068,303 1068,303 1068,303 1069,303 1069,303 1069,303 1069,303 1069,303 1069,303 1069,303 1069,303 1069,303 1069,303 1070,303 1070,303 1070,303 1070,303 1070,303 1070,303 1070,303 1070,303 1070,303 1070,303 1070,303 1071,303 1071,303 1071,303 1071,303 1071,303 1071,303 1071,303 1071,303 1071,303 1071,303 1072,303 1072,303 1072,303 1072,303 1072,303 1072,275 1072,275 1072,275 1072,275 1072,275 1073,275 1073,275 1073,275 1073,275 1073,275 1073,275 1073,275 1073,275 1073,275 1073,275 1074,275 1074,275 1074,275 1074,275 1074,275 1074,275 1074,275 1074,275 1074,275 1074,275 1074,275 1075,275 1075,275 1075,275 1075,275 1075,275 1075,275 1075,275 1075,246 1075,246 1075,246 1076,246 1076,246 1076,246 1076,246 1076,246 1076,246 1076,246 1076,246 1076,246 1076,246 1077,246 1077,246 1077,246 1077,246 1077,246 1077,246 1077,246 1077,246 1077,246 1077,246 1077,246 1078,246 1078,246 1078,246 1078,246 1078,217 1078,217 1078,217 1078,217 1078,217 1078,217 1079,217 1079,217 1079,217 1079,217 1079,217 1079,217 1079,217 1079,217 1079,217 1079,217 1080,217 1080,217 1080,217 1080,217 1080,217 1080,217 1080,217 1080,217 1080,217 1080,189 1080,189 1081,189 1081,189 1081,189 1081,189 1081,189 1081,189 1081,189 1081,189 1081,189 1081,189 1082,189 1082,189 1082,189 1082,189 1082,189 1082,189 1082,189 1082,189 1082,189 1082,189 1083,189 1083,160 1083,160 1083,160 1083,160 1083,160 1083,160 1083,160 1083,160 1083,160 1083,160 1084,160 1084,160 1084,160 1084,160 1084,160 1084,160 1084,160 1084,160 1084,160 1084,160 1085,160 1085,160 1085,160 1085,160 1085,132 1085,132 1085,132 1085,132 1085,132 1085,132 1086,132 1086,132 1086,132 1086,132 1086,132 1086,132 1086,132 1086,132 1086,132 1086,132 1086,132 1087,132 1087,132 1087,132 1087,132 1087,132 1087,132 1087,132 1087,103 1087,103 1087,103 1088,103 1088,103 1088,103 1088,103 1088,103 1088,103 1088,103 1088,103 1088,103 1088,103 1089,103 1089,103 1089,103 1089,103 1089,103 1089,103 1089,103 1089,103 1089,103 1089,103 1089,103 1090,103 1090,103 1090,103 1090,103 1090,103 1090,103 1090,75 1090,75 1090,75 1090,75 1091,75 1091,75 1091,75 1091,75 1091,75 1091,75 1091,75 1091,75 1091,75 1091,75 1092,75 1092,75 1092,75 1092,75 1092,75 1092,75 1092,75 1092,75 1092,75 1092,75 1092,75 1093,75 1093,75 1093,75 1093,75 1093,75 1093,75 1093,75 1093,75 1093,75 1093,75 1094,75 1094,75 1094,75 1094,75 1094,75 1094,75 1094,75 1094,75 1094,75 1094,75 1095,75 1095,75 1095,75 1095,75 1095,75 1095,75 1095,75 1095,75 1095,75 1095,75 1095,75 1096,75 1096,75 1096,75 1096,75 1096,75 1096,75 1096,75 1096,75 1096,75 1096,75 1097,75 1097,75 1097,75 1097,75 1097,75 1097,75 1097,75 1097,75 1097,75 1097,75 1098,75 1098,75 1098,75 1098,75 1098,75 1098,75 1098,75 1098,75 1098,75 1098,75 1098,75 1099,75 1099,75 1099,75 1099,75 1099,75 1099,75 1099,75 1099,75 1099,75 1099,75 1100,75 1100,75 1100,75 1100,75 1100,75 1100,75 1100,75 1100,75 1100,75 1100,75 1101,75 1101,75 1101,75 1101,75 1101,75 1101,75 1101,75 1101,75 1101,75 1101,75 1101,75 1102,75 1102,75 1102,75 1102,75 1102,75 1102,75 1102,75 1102,75 1102,75 1102,75 1103,75 1103,103 1103,103 1103,103 1103,103 1103,103 1103,103 1103,103 1103,103 1103,103 1104,103 1104,103 1104,103 1104,103 1104,103 1104,103 1104,103 1104,103 1104,103 1104,103 1104,103 1105,103 1105,103 1105,103 1105,103 1105,103 1105,103 1105,103 1105,103 1105,103 1105,132 1106,132 1106,132 1106,132 1106,132 1106,132 1106,132 1106,132 1106,132 1106,132 1106,132 1107,132 1107,132 1107,132 1107,132 1107,132 1107,132 1107,132 1107,132 1107,132 1107,132 1107,132 1108,132 1108,132 1108,132 1108,160 1108,160 1108,160 1108,160 1108,160 1108,160 1108,160 1109,160 1109,160 1109,160 1109,160 1109,160 1109,160 1109,160 1109,160 1109,160 1109,160 1110,160 1110,160 1110,160 1110,160 1110,160 1110,160 1110,189 1110,189 1110,189 1110,189 1110,189 1111,189 1111,189 1111,189 1111,189 1111,189 1111,189 1111,189 1111,189 1111,189 1111,189 1112,189 1112,189 1112,189 1112,189 1112,189 1112,189 1112,189 1112,189 1112,189 1112,217 1113,217 1113,217 1113,217 1113,217 1113,217 1113,217 1113,217 1113,217 1113,217 1113,217 1113,217 1114,217 1114,217 1114,217 1114,217 1114,217 1114,217 1114,217 1114,217 1114,217 1114,217 1115,217 1115,217 1115,217 1115,246 1115,246 1115,246 1115,246 1115,246 1115,246 1115,246 1116,246 1116,246 1116,246 1116,246 1116,246 1116,246 1116,246 1116,246 1116,246 1116,246 1116,246 1117,246 1117,246 1117,246 1117,246 1117,246 1117,246 1117,246 1117,246 1117,246 1117,275 1118,275 1118,275 1118,275 1118,275 1118,275 1118,275 1118,275 1118,275 1118,275 1118,275 1119,275 1119,275 1119,275 1119,275 1119,275 1119,275 1119,275 1119,275 1119,275 1119,275 1119,275 1120,275 1120,275 1120,275 1120,275 1120,275 1120,275 1120,275 1120,275 1120,275 1120,275 1121,303 1121,303 1121,303 1121,303 1121,303 1121,303 1121,303 1121,303 1121,303 1121,303 1122,303 1122,303 1122,303 1122,303 1122,303 1122,303 1122,303 1122,303 1122,303 1122,303 1122,303 1123,303 1123,303 1123,303 1123,303 1123,303 1123,303 1123,303 1123,303 1123,303 1123,303 1124,303 1124,303 1124,303 1124,303 1124,303 1124,303 1124,303 1124,303 1124,303 1124,303 1125,303 1125,332 1125,332 1125,332 1125,332 1125,332 1125,332 1125,332 1125,332 1125,332 1125,332 1126,332 1126,332 1126,332 1126,332 1126,332 1126,332 1126,332 1126,332 1126,332 1126,332 1127,332 1127,332 1127,332 1127,332 1127,332 1127,332 1127,332 1127,332 1127,332 1127,332 1128,332 1128,332 1128,332 1128,332 1128,332 1128,332 1128,332 1128,332 1128,332 1128,332 1128,332 1129,332 1129,332 1129,332 1129,332 1129,332 1129,332 1129,332 1129,332 1129,332 1129,332 1130,332 1130,332 1130,332 1130,332 1130,332 1130,332 1130,332 1130,332 1130,332 1130,332 1131,332 1131,332 1131,332 1131,332 1131,332 1131,332 1131,332 1131,332 1131,332 1131,332 1131,332 1132,332 1132,332 1132,332 1132,332 1132,332 1132,332 1132,332 1132,332 1132,332 1132,332 1133,332 1133,332 1133,332 1133,332 1133,332 1133,332 1133,332 1133,332 1133,332 1133,332 1134,332 1134,332 1134,332 1134,332 1134,332 1134,332 1134,332 1134,332 1134,332 1134,332 1134,332 1135,332 1135,332 1135,332 1135,332 1135,332 1135,332 1135,332 1135,332 1135,332 1135,332 1136,332 1136,332 1136,332 1136,332 1136,332 1136,332 1136,332 1136,332 1136,332 1136,332 1137,332 1137,332 1137,332 1137,332 1137,332 1137,332 1137,332 1137,332 1137,332 1137,332 1137,332 1138,332 1138,332 1138,332 1138,332 1138,332 1138,332 1138,332 1138,332 1138,332 1138,332 1139,332 1139,332 1139,332 1139,332 1139,332 1139,332 1139,332 1139,332 1139,332 1139,332 1140,332 1140,332 1140,332 1140,332 1140,332 1140,332 1140,332 1140,332 1140,332 1140,332 1140,332 1141,332 1141,332 1141,332 1141,332 1141,332 1141,332 1141,332 1141,332 1141,332 1141,332 1142,332 1142,332 1142,332 1142,332 1142,332 1142,332 1142,332 1142,332 1142,332 1142,332 1143,332 1143,332 1143,332 1143,332 1143,332 1143,332 1143,332 1143,332 1143,332 1143,332 1143,332 1144,332 1144,332 1144,332 1144,332 1144,332 1144,332 1144,332 1144,332 1144,332 1144,303 1145,303 1145,303 1145,303 1145,303 1145,303 1145,303 1145,303 1145,303 1145,303 1145,303 1146,303 1146,303 1146,303 1146,303 1146,303 1146,303 1146,303 1146,303 1146,303 1146,303 1146,303 1147,303 1147,303 1147,303 1147,303 1147,303 1147,303 1147,303 1147,303 1147,303 1147,303 1148,303 1148,303 1148,303 1148,303 1148,303 1148,303 1148,303 1148,303 1148,303 1148,303 1149,275 1149,275 1149,275 1149,275 1149,275 1149,275 1149,275 1149,275 1149,275 1149,275 1150,275 " style="fill:none;stroke:#32C814;stroke-width:3;stroke-linejoin:bevel" /><line x1="150" y1="75" x2="150" y2="475" style="stroke:black;stroke-width:2"/>
<line x1="150" y1="475" x2="1400" y2="475" style="stroke:black;stroke-width:2"/>
<text x="450.000000" y="25">Food_cycles</text>
<text x="10" y="275.000000">Qtt of food</text>
<text x="600.000000" y="515.000000">Time</text>
<text x="100.000000" y="475.000000">0.000</text>
<text x="100.000000" y="417.857147">2.000</text>
<text x="100.000000" y="360.714294">4.000</text>
<text x="100.000000" y="303.571411">6.000</text>
<text x="100.000000" y="246.428574">8.000</text>
<text x="100.000000" y="189.285706">10.00</text>
<text x="100.000000" y="132.142853">12.00</text>
<text x="100.000000" y="75.000000">14.00</text>
<text x="150.000000" y="490.000000">0.000</text>
<text x="350.000000" y="490.000000">4055.</text>
<text x="550.000000" y="490.000000">8110.</text>
<text x="750.000000" y="490.000000">12165</text>
<text x="950.000000" y="490.000000">16220</text>
<text x="1150.000000" y="490.000000">20275</text>
</svg>
