<?xml version="1.0" standalone="no"?>
<!DOCTYPE svg PUBLIC "-//W3C//DTD SVG 1.1//EN"
"http://www.w3.org/Graphics/SVG/1.1/DTD/svg11.dtd">
<svg width="1250.000000" height="550.000000"
xmlns="http://www.w3.org/2000/svg">
<polyline points="150,318 261,75 372,318 483,211 594,331 705,245 816,358 927,291 1038,338 1150,305 " style="fill:none;stroke:#0000FF;stroke-width:3;stroke-linejoin:bevel" /><line x1="150" y1="75" x2="150" y2="475" style="stroke:black;stroke-width:2"/>
<line x1="150" y1="475" x2="1400" y2="475" style="stroke:black;stroke-width:2"/>
<text x="450.000000" y="25">Interactions_over_time</text>
<text x="10" y="275.000000">Interactions</text>
<text x="600.000000" y="515.000000">Time</text>
<text x="100.000000" y="475.000000">0.000</text>
<text x="100.000000" y="417.857147">17.14</text>
<text x="100.000000" y="360.714294">34.28</text>
<text x="100.000000" y="303.571411">51.42</text>
<text x="100.000000" y="246.428558">68.57</text>
<text x="100.000000" y="189.285706">85.71</text>
<text x="100.000000" y="132.142853">102.8</text>
<text x="100.000000" y="75.000000">120.0</text>
<text x="150.000000" y="490.000000">0.000</text>
<text x="350.000000" y="490.000000">1.800</text>
<text x="550.000000" y="490.000000">3.600</text>
<text x="750.000000" y="490.000000">5.400</text>
<text x="950.000000" y="490.000000">7.200</text>
<text x="1150.000000" y="490.000000">9.000</text>
</svg>
