<?xml version="1.0" standalone="no"?>
<!DOCTYPE svg PUBLIC "-//W3C//DTD SVG 1.1//EN"
"http://www.w3.org/Graphics/SVG/1.1/DTD/svg11.dtd">
<svg width="1250.000000" height="550.000000"
xmlns="http://www.w3.org/2000/svg">
<polyline points="150,406 184,118 218,75 253,262 287,268 322,293 356,325 391,325 425,275 460,306 494,293 529,331 563,300 598,262 632,306 667,262 701,293 736,231 770,262 805,237 839,237 874,256 908,275 943,243 977,218 1012,275 1046,200 1081,225 1115,218 1150,156 " style="fill:none;stroke:#0000FF;stroke-width:3;stroke-linejoin:bevel" /><line x1="150" y1="75" x2="150" y2="475" style="stroke:black;stroke-width:2"/>
<line x1="150" y1="475" x2="1400" y2="475" style="stroke:black;stroke-width:2"/>
<text x="450.000000" y="25">Interactions_over_time</text>
<text x="10" y="275.000000">Interactions</text>
<text x="600.000000" y="515.000000">Time</text>
<text x="100.000000" y="475.000000">0.000</text>
<text x="100.000000" y="417.857147">9.142</text>
<text x="100.000000" y="360.714294">18.28</text>
<text x="100.000000" y="303.571411">27.42</text>
<text x="100.000000" y="246.428558">36.57</text>
<text x="100.000000" y="189.285706">45.71</text>
<text x="100.000000" y="132.142853">54.85</text>
<text x="100.000000" y="75.000000">64.00</text>
<text x="150.000000" y="490.000000">0.000</text>
<text x="350.000000" y="490.000000">9.400</text>
<text x="550.000000" y="490.000000">18.80</text>
<text x="750.000000" y="490.000000">28.20</text>
<text x="950.000000" y="490.000000">37.60</text>
<text x="1150.000000" y="490.000000">47.00</text>
</svg>
