<?xml version="1.0" standalone="no"?>
<!DOCTYPE svg PUBLIC "-//W3C//DTD SVG 1.1//EN"
"http://www.w3.org/Graphics/SVG/1.1/DTD/svg11.dtd">
<svg width="1250.000000" height="550.000000"
xmlns="http://www.w3.org/2000/svg">
<polyline points="150,241 261,132 372,75 483,117 594,170 705,165 816,168 927,193 1038,223 1150,215 " style="fill:none;stroke:#0000FF;stroke-width:3;stroke-linejoin:bevel" /><line x1="150" y1="75" x2="150" y2="475" style="stroke:black;stroke-width:2"/>
<line x1="150" y1="475" x2="1400" y2="475" style="stroke:black;stroke-width:2"/>
<text x="450.000000" y="25">Interactions_over_time</text>
<text x="10" y="275.000000">Interactions</text>
<text x="600.000000" y="515.000000">Time</text>
<text x="100.000000" y="475.000000">0.000</text>
<text x="100.000000" y="417.857147">22.71</text>
<text x="100.000000" y="360.714294">45.42</text>
<text x="100.000000" y="303.571411">68.14</text>
<text x="100.000000" y="246.428558">90.85</text>
<text x="100.000000" y="189.285706">113.5</text>
<text x="100.000000" y="132.142853">136.2</text>
<text x="100.000000" y="75.000000">159.0</text>
<text x="150.000000" y="490.000000">0.000</text>
<text x="350.000000" y="490.000000">3.400</text>
<text x="550.000000" y="490.000000">6.800</text>
<text x="750.000000" y="490.000000">10.20</text>
<text x="950.000000" y="490.000000">13.60</text>
<text x="1150.000000" y="490.000000">17.00</text>
</svg>
