<?xml version="1.0" standalone="no"?>
<!DOCTYPE svg PUBLIC "-//W3C//DTD SVG 1.1//EN"
"http://www.w3.org/Graphics/SVG/1.1/DTD/svg11.dtd">
<svg width="1250.000000" height="550.000000"
xmlns="http://www.w3.org/2000/svg">
<polyline points="150,344 150,330 150,316 150,384 150,413 150,382 150,378 150,378 150,367 150,375 150,376 151,370 151,362 151,371 151,352 151,349 151,349 151,340 151,322 151,306 151,286 152,278 152,262 152,271 152,357 152,333 152,322 152,306 152,294 152,298 152,295 153,278 153,290 153,278 153,279 153,289 153,265 153,252 153,217 153,170 153,209 153,260 154,213 154,221 154,214 154,213 154,217 154,194 154,224 154,232 154,203 154,228 155,217 155,176 155,208 155,232 155,214 155,198 155,241 155,249 155,208 155,236 156,225 156,228 156,225 156,170 156,251 156,208 156,167 156,154 156,162 156,181 156,171 157,186 157,186 157,214 157,249 157,219 157,186 157,232 157,222 157,232 157,208 158,173 158,182 158,121 158,133 158,128 158,127 158,154 158,181 158,213 158,200 159,192 159,192 159,179 159,186 159,163 159,138 159,175 159,201 159,190 159,186 159,201 160,182 160,181 160,179 160,178 160,216 160,224 160,222 160,171 160,184 160,171 161,186 161,152 161,201 161,192 161,179 161,170 161,163 161,214 161,194 161,192 162,116 162,138 162,144 162,200 162,228 162,213 162,217 162,217 162,203 162,189 162,179 163,236 163,205 163,184 163,176 163,148 163,167 163,184 163,198 163,171 163,154 164,114 164,132 164,149 164,197 164,173 164,144 164,178 164,201 164,163 164,122 165,94 165,148 165,205 165,189 165,149 165,170 165,160 165,206 165,152 165,157 165,154 166,184 166,181 166,148 166,140 166,170 166,154 166,155 166,163 166,181 166,190 167,181 167,151 167,201 167,232 167,227 167,219 167,216 167,252 167,233 167,246 168,225 168,173 168,171 168,151 168,132 168,122 168,117 168,122 168,154 168,149 168,128 169,97 169,121 169,144 169,127 169,167 169,200 169,208 169,221 169,190 169,195 170,159 170,170 170,113 170,138 170,162 170,148 170,170 170,171 170,162 170,167 171,175 171,171 171,179 171,133 171,182 171,144 171,148 171,136 171,136 171,108 171,141 172,171 172,168 172,178 172,216 172,222 172,235 172,208 172,235 172,219 172,160 173,171 173,138 173,159 173,192 173,152 173,78 173,105 173,146 173,144 173,105 174,122 174,121 174,146 174,165 174,216 174,184 174,178 174,162 174,201 174,232 174,260 175,255 175,241 175,273 175,238 175,200 175,214 175,136 175,86 175,65 175,43 176,-1 176,-39 176,-10 176,60 176,38 176,127 176,159 176,144 176,148 176,254 177,298 177,297 177,268 177,278 177,297 177,270 177,238 177,182 177,213 177,163 177,160 178,90 178,97 178,97 178,94 178,117 178,173 178,211 178,208 178,175 178,189 179,186 179,141 179,186 179,187 179,132 179,108 179,138 179,192 179,186 179,200 180,171 180,189 180,213 180,209 180,206 180,235 180,233 180,216 180,224 180,217 180,192 181,221 181,189 181,208 181,216 181,190 181,160 181,136 181,170 181,144 181,170 182,179 182,160 182,267 182,314 182,289 182,287 182,268 182,270 182,279 182,238 183,187 183,154 183,197 183,192 183,175 183,143 183,157 183,200 183,268 183,232 183,224 184,200 184,208 184,179 184,233 184,241 184,222 184,241 184,238 184,228 184,225 185,267 185,306 185,292 185,303 185,298 185,290 185,295 185,292 185,289 185,278 186,281 186,281 186,271 186,257 186,232 186,208 186,189 186,186 186,171 186,200 186,236 187,289 187,301 187,290 187,297 187,298 187,343 187,343 187,335 187,336 187,308 188,295 188,278 188,260 188,273 188,267 188,273 188,275 188,263 188,259 188,257 189,240 189,235 189,255 189,232 189,232 189,230 189,249 189,228 189,244 189,246 189,275 190,311 190,321 190,305 190,348 190,357 190,346 190,343 190,343 190,355 190,357 191,362 191,370 191,351 191,330 191,346 191,333 191,300 191,295 191,298 191,294 192,270 192,284 192,282 192,297 192,321 192,308 192,289 192,328 192,308 192,321 192,301 193,300 193,294 193,316 193,306 193,322 193,313 193,344 193,340 193,330 193,343 194,340 194,348 194,340 194,332 194,328 194,333 194,324 194,324 194,336 194,305 195,324 195,359 195,349 195,348 195,319 195,301 195,319 195,281 195,321 195,306 195,300 196,316 196,316 196,328 196,327 196,338 196,306 196,298 196,292 196,317 196,311 197,338 197,325 197,330 197,301 197,317 197,325 197,348 197,322 197,346 197,355 198,371 198,346 198,362 198,367 198,365 198,375 198,362 198,351 198,379 198,351 198,341 199,346 199,357 199,355 199,335 199,367 199,368 199,363 199,370 199,370 199,378 200,348 200,328 200,319 200,336 200,352 200,359 200,368 200,379 200,367 200,368 201,386 201,378 201,376 201,370 201,357 201,360 201,376 201,343 201,341 201,354 201,316 202,336 202,357 202,379 202,359 202,330 202,344 202,352 202,349 202,324 202,287 203,313 203,306 203,322 203,327 203,346 203,324 203,335 203,311 203,316 203,343 204,324 204,354 204,338 204,379 204,335 204,359 204,363 204,359 204,340 204,351 204,346 205,335 205,348 205,371 205,371 205,368 205,371 205,365 205,349 205,365 205,368 206,354 206,351 206,375 206,357 206,360 206,352 206,394 206,368 206,360 206,373 207,378 207,349 207,354 207,352 207,355 207,367 207,360 207,343 207,344 207,327 207,349 208,328 208,319 208,324 208,359 208,348 208,335 208,359 208,362 208,336 208,349 209,351 209,330 209,324 209,333 209,338 209,351 209,355 209,344 209,360 209,367 210,330 210,343 210,340 210,346 210,336 210,351 210,352 210,314 210,349 210,362 210,344 211,348 211,348 211,351 211,346 211,333 211,362 211,359 211,387 211,386 211,390 212,379 212,405 212,400 212,397 212,414 212,406 212,409 212,409 212,401 212,389 213,370 213,378 213,384 213,375 213,359 213,363 213,382 213,359 213,373 213,379 213,368 214,354 214,333 214,352 214,325 214,336 214,346 214,332 214,346 214,346 214,336 215,330 215,355 215,359 215,371 215,362 215,352 215,346 215,375 215,371 215,359 216,362 216,359 216,348 216,360 216,367 216,325 216,340 216,324 216,328 216,340 216,340 217,317 217,324 217,306 217,316 217,316 217,319 217,297 217,295 217,292 217,319 218,309 218,322 218,290 218,290 218,317 218,332 218,336 218,308 218,352 218,321 219,327 219,360 219,333 219,349 219,360 219,352 219,341 219,359 219,371 219,346 219,373 220,362 220,359 220,322 220,324 220,352 220,316 220,286 220,281 220,303 220,314 221,309 221,336 221,336 221,332 221,327 221,311 221,324 221,357 221,319 221,303 222,308 222,308 222,286 222,309 222,317 222,298 222,308 222,313 222,297 222,314 222,292 223,267 223,284 223,279 223,260 223,281 223,282 223,281 223,276 223,303 223,319 224,322 224,316 224,325 224,330 224,321 224,321 224,355 224,352 224,368 224,378 225,357 225,352 225,370 225,359 225,338 225,317 225,327 225,316 225,270 225,306 225,284 226,265 226,238 226,227 226,184 226,154 226,133 226,171 226,213 226,238 226,267 227,213 227,260 227,255 227,260 227,289 227,298 227,311 227,309 227,259 227,279 228,257 228,263 228,249 228,244 228,241 228,243 228,235 228,240 228,252 228,268 229,273 229,292 229,309 229,303 229,317 229,306 229,295 229,303 229,282 229,265 229,259 230,238 230,217 230,211 230,190 230,216 230,165 230,136 230,170 230,176 230,141 231,124 231,184 231,248 231,243 231,221 231,232 231,227 231,251 231,275 231,263 232,268 232,276 232,238 232,244 232,249 232,257 232,241 232,192 232,179 232,167 232,187 233,132 233,152 233,171 233,208 233,208 233,195 233,222 233,221 233,240 233,162 234,141 234,184 234,170 234,171 234,152 234,197 234,243 234,241 234,243 234,195 235,198 235,192 235,125 235,136 235,173 235,194 235,221 235,238 235,227 235,205 235,173 236,187 236,148 236,101 236,121 236,94 236,111 236,106 236,89 236,197 236,227 237,268 237,300 237,287 237,278 237,286 237,225 237,219 237,187 237,121 237,125 238,105 238,13 238,32 238,22 238,55 238,59 238,114 238,173 238,206 238,201 238,181 239,160 239,159 239,105 239,140 239,101 239,138 239,103 239,117 239,36 239,101 240,106 240,108 240,103 240,163 240,192 240,136 240,149 240,162 240,141 240,178 241,171 241,162 241,140 241,103 241,108 241,101 241,162 241,228 241,187 241,148 241,98 242,101 242,89 242,140 242,100 242,76 242,95 242,121 242,98 242,114 242,76 243,76 243,8 243,41 243,125 243,192 243,184 243,182 243,168 243,182 243,205 244,194 244,187 244,203 244,141 244,116 244,27 244,-42 244,35 244,71 244,33 244,70 245,54 245,8 245,22 245,14 245,67 245,95 245,182 245,208 245,170 245,178 246,184 246,168 246,201 246,176 246,155 246,121 246,111 246,86 246,33 246,16 247,3 247,119 247,92 247,179 247,205 247,165 247,170 247,159 247,140 247,184 247,176 248,178 248,206 248,217 248,200 248,184 248,170 248,151 248,141 248,108 248,51 249,-40 249,-59 249,25 249,30 249,-17 249,28 249,101 249,138 249,100 249,159 250,206 250,209 250,230 250,246 250,219 250,214 250,249 250,206 250,214 250,228 250,200 251,176 251,65 251,9 251,60 251,6 251,-17 251,59 251,114 251,124 251,68 252,119 252,68 252,119 252,119 252,90 252,92 252,148 252,155 252,208 252,214 253,238 253,159 253,103 253,55 253,87 253,143 253,108 253,122 253,138 253,182 253,168 254,219 254,186 254,189 254,175 254,128 254,114 254,168 254,151 254,82 254,79 255,117 255,160 255,176 255,206 255,209 255,206 255,205 255,192 255,171 255,198 256,157 256,171 256,178 256,173 256,105 256,49 256,98 256,75 256,136 256,200 256,240 257,265 257,289 257,287 257,267 257,259 257,236 257,159 257,162 257,173 257,111 258,143 258,100 258,113 258,149 258,149 258,178 258,227 258,194 258,213 258,238 259,262 259,267 259,260 259,252 259,219 259,184 259,194 259,157 259,217 259,119 259,148 260,178 260,217 260,194 260,206 260,241 260,244 260,251 260,267 260,273 260,224 261,216 261,222 261,224 261,238 261,241 261,248 261,275 261,268 261,254 261,235 262,232 262,240 262,260 262,278 262,279 262,306 262,275 262,255 262,235 262,246 262,222 263,233 263,233 263,225 263,230 263,240 263,241 263,213 263,241 263,278 263,265 264,263 264,303 264,255 264,252 264,279 264,292 264,286 264,319 264,282 264,297 265,292 265,294 265,316 265,305 265,263 265,254 265,260 265,265 265,262 265,248 265,252 266,251 266,275 266,271 266,275 266,271 266,305 266,289 266,244 266,297 266,308 267,300 267,332 267,325 267,281 267,281 267,282 267,295 267,298 267,306 267,287 268,273 268,314 268,330 268,282 268,316 268,298 268,298 268,292 268,289 268,297 268,308 269,308 269,343 269,355 269,376 269,378 269,371 269,354 269,348 269,379 269,363 270,348 270,352 270,327 270,327 270,322 270,314 270,297 270,265 270,276 270,298 271,284 271,300 271,292 271,295 271,287 271,298 271,336 271,284 271,309 271,319 271,309 272,352 272,328 272,341 272,362 272,367 272,370 272,365 272,359 272,354 272,352 273,332 273,341 273,338 273,340 273,351 273,359 273,343 273,324 273,321 273,313 274,340 274,338 274,352 274,354 274,341 274,327 274,343 274,292 274,344 274,325 274,325 275,328 275,322 275,340 275,325 275,324 275,335 275,327 275,348 275,359 275,354 276,376 276,363 276,373 276,375 276,367 276,362 276,363 276,363 276,355 276,354 277,365 277,344 277,344 277,332 277,349 277,322 277,351 277,343 277,340 277,351 277,351 278,322 278,328 278,335 278,333 278,330 278,352 278,327 278,317 278,357 278,373 279,370 279,354 279,373 279,384 279,395 279,371 279,384 279,376 279,389 279,406 280,376 280,390 280,395 280,379 280,370 280,370 280,373 280,352 280,365 280,341 280,330 281,343 281,313 281,309 281,309 281,300 281,303 281,297 281,305 281,292 281,300 282,319 282,338 282,351 282,362 282,354 282,368 282,357 282,373 282,387 282,392 283,371 283,365 283,390 283,382 283,373 283,406 283,379 283,367 283,389 283,401 283,386 284,403 284,398 284,390 284,384 284,389 284,382 284,365 284,365 284,346 284,340 285,368 285,325 285,336 285,335 285,338 285,327 285,316 285,333 285,327 285,330 286,305 286,319 286,301 286,321 286,328 286,309 286,298 286,336 286,322 286,324 286,328 287,341 287,324 287,346 287,328 287,325 287,344 287,341 287,336 287,352 287,344 288,379 288,338 288,368 288,349 288,328 288,349 288,343 288,332 288,316 288,346 289,341 289,365 289,363 289,367 289,352 289,362 289,360 289,346 289,362 289,355 289,360 290,324 290,348 290,319 290,340 290,352 290,322 290,354 290,333 290,340 290,344 291,343 291,330 291,349 291,343 291,365 291,341 291,344 291,338 291,349 291,340 292,370 292,375 292,363 292,368 292,371 292,381 292,370 292,368 292,363 292,343 292,359 293,363 293,330 293,384 293,338 293,344 293,330 293,340 293,341 293,325 293,357 294,333 294,332 294,319 294,363 294,355 294,338 294,344 294,349 294,362 294,348 295,365 295,349 295,363 295,352 295,352 295,343 295,379 295,362 295,367 295,332 295,351 296,362 296,333 296,332 296,333 296,328 296,313 296,309 296,333 296,336 296,351 297,348 297,333 297,351 297,338 297,325 297,338 297,335 297,321 297,297 297,292 298,300 298,327 298,351 298,336 298,341 298,321 298,313 298,363 298,348 298,297 298,289 299,313 299,313 299,292 299,275 299,260 299,275 299,332 299,330 299,357 299,322 300,309 300,362 300,352 300,365 300,344 300,335 300,322 300,349 300,321 300,328 301,330 301,311 301,319 301,321 301,327 301,311 301,305 301,319 301,336 301,333 301,321 302,322 302,316 302,335 302,348 302,305 302,327 302,322 302,327 302,335 302,284 303,275 303,270 303,287 303,251 303,270 303,268 303,259 303,276 303,284 303,295 304,287 304,298 304,289 304,286 304,273 304,259 304,278 304,287 304,308 304,311 305,355 305,324 305,324 305,290 305,298 305,276 305,259 305,268 305,248 305,225 305,221 306,175 306,216 306,216 306,273 306,254 306,265 306,300 306,314 306,298 306,297 307,284 307,278 307,303 307,311 307,300 307,289 307,275 307,270 307,233 307,233 308,227 308,233 308,205 308,187 308,198 308,135 308,119 308,178 308,179 308,268 308,267 309,281 309,290 309,309 309,309 309,292 309,308 309,321 309,314 309,327 309,328 310,319 310,316 310,298 310,286 310,273 310,284 310,265 310,217 310,205 310,205 311,190 311,170 311,168 311,189 311,151 311,125 311,130 311,94 311,136 311,170 311,141 312,154 312,160 312,176 312,222 312,251 312,238 312,254 312,255 312,217 312,257 313,281 313,254 313,244 313,224 313,178 313,167 313,130 313,168 313,136 313,98 314,162 314,95 314,141 314,170 314,154 314,214 314,181 314,219 314,192 314,205 314,240 315,240 315,192 315,184 315,198 315,190 315,186 315,149 315,124 315,167 315,154 316,130 316,187 316,182 316,178 316,155 316,114 316,101 316,178 316,148 316,171 317,170 317,205 317,198 317,222 317,187 317,186 317,200 317,211 317,203 317,95 317,122 318,106 318,89 318,114 318,103 318,113 318,144 318,175 318,159 318,135 318,95 319,173 319,119 319,176 319,173 319,189 319,132 319,140 319,113 319,114 319,106 320,124 320,136 320,144 320,101 320,90 320,71 320,73 320,65 320,119 320,84 320,127 321,86 321,135 321,144 321,209 321,200 321,170 321,187 321,155 321,105 321,179 322,221 322,205 322,192 322,140 322,94 322,27 322,22 322,-20 322,24 322,76 323,54 323,82 323,148 323,178 323,149 323,143 323,86 323,95 323,146 323,135 323,106 324,89 324,100 324,116 324,67 324,8 324,13 324,57 324,86 324,113 324,181 325,219 325,197 325,198 325,206 325,208 325,186 325,133 325,119 325,9 325,22 326,19 326,9 326,117 326,101 326,76 326,125 326,105 326,130 326,135 326,181 326,173 327,124 327,133 327,179 327,121 327,128 327,106 327,113 327,87 327,57 327,35 328,43 328,113 328,149 328,154 328,146 328,149 328,143 328,155 328,159 328,179 329,176 329,143 329,98 329,62 329,55 329,59 329,125 329,105 329,138 329,138 329,90 330,128 330,132 330,133 330,121 330,165 330,143 330,124 330,138 330,55 330,75 331,98 331,122 331,143 331,157 331,176 331,176 331,197 331,232 331,165 331,117 332,78 332,138 332,170 332,144 332,132 332,109 332,121 332,70 332,95 332,133 332,130 333,178 333,233 333,241 333,208 333,179 333,192 333,167 333,181 333,159 333,114 334,152 334,95 334,92 334,70 334,52 334,92 334,152 334,140 334,148 334,155 335,173 335,187 335,192 335,192 335,257 335,219 335,262 335,227 335,236 335,168 335,192 336,179 336,168 336,89 336,86 336,111 336,109 336,89 336,178 336,254 336,241 337,230 337,214 337,268 337,287 337,278 337,284 337,273 337,267 337,222 337,168 338,167 338,187 338,101 338,125 338,128 338,135 338,82 338,100 338,149 338,167 338,205 339,208 339,225 339,205 339,222 339,294 339,292 339,279 339,262 339,259 339,282 340,233 340,228 340,198 340,179 340,238 340,232 340,211 340,173 340,227 340,248 341,244 341,211 341,222 341,197 341,206 341,219 341,219 341,209 341,233 341,163 341,233 342,284 342,273 342,290 342,259 342,232 342,257 342,268 342,290 342,278 342,260 343,284 343,301 343,294 343,279 343,262 343,257 343,270 343,227 343,224 343,225 344,213 344,178 344,203 344,197 344,194 344,203 344,162 344,211 344,262 344,265 344,276 345,308 345,333 345,303 345,322 345,328 345,325 345,362 345,359 345,344 345,357 346,346 346,346 346,305 346,309 346,305 346,273 346,257 346,248 346,262 346,230 347,203 347,203 347,197 347,221 347,209 347,241 347,254 347,294 347,305 347,313 347,325 348,338 348,330 348,343 348,351 348,324 348,357 348,324 348,325 348,321 348,300 349,314 349,308 349,295 349,322 349,338 349,354 349,351 349,341 349,344 349,362 350,332 350,313 350,295 350,301 350,275 350,259 350,257 350,278 350,240 350,241 350,251 351,303 351,328 351,306 351,313 351,332 351,348 351,348 351,376 351,368 351,371 352,390 352,400 352,367 352,368 352,386 352,355 352,375 352,373 352,365 352,362 353,338 353,333 353,341 353,306 353,316 353,306 353,305 353,282 353,284 353,297 353,316 354,297 354,303 354,303 354,325 354,348 354,354 354,363 354,359 354,360 354,344 355,335 355,340 355,308 355,340 355,373 355,365 355,352 355,367 355,346 355,360 356,348 356,362 356,348 356,382 356,365 356,360 356,397 356,352 356,365 356,378 356,365 357,346 357,365 357,341 357,335 357,352 357,333 357,316 357,336 357,351 357,341 358,335 358,301 358,322 358,354 358,332 358,349 358,379 358,351 358,349 358,376 359,368 359,348 359,386 359,362 359,359 359,379 359,362 359,335 359,363 359,352 359,370 360,363 360,355 360,348 360,332 360,352 360,346 360,348 360,351 360,371 360,365 361,373 361,335 361,340 361,365 361,351 361,365 361,333 361,360 361,338 361,363 362,325 362,351 362,343 362,317 362,311 362,330 362,333 362,330 362,311 362,317 362,314 363,338 363,349 363,333 363,344 363,351 363,367 363,363 363,357 363,360 363,344 364,344 364,355 364,363 364,351 364,348 364,390 364,370 364,363 364,406 364,405 365,403 365,400 365,421 365,413 365,390 365,438 365,394 365,401 365,411 365,395 365,400 366,370 366,367 366,367 366,354 366,343 366,314 366,295 366,282 366,262 366,225 367,251 367,241 367,230 367,252 367,251 367,284 367,297 367,267 367,279 367,286 368,327 368,355 368,370 368,398 368,378 368,401 368,424 368,411 368,403 368,409 368,417 369,408 369,413 369,421 369,397 369,406 369,406 369,379 369,378 369,378 369,354 370,344 370,327 370,314 370,306 370,279 370,260 370,287 370,259 370,270 370,300 371,282 371,308 371,311 371,290 371,294 371,348 371,354 371,308 371,354 371,344 371,349 372,379 372,378 372,386 372,381 372,367 372,381 372,390 372,384 372,401 372,363 373,368 373,359 373,365 373,354 373,333 373,351 373,343 373,351 373,333 373,325 374,327 374,322 374,313 374,314 374,335 374,341 374,351 374,336 374,327 374,335 374,330 375,340 375,333 375,298 375,290 375,292 375,297 375,306 375,282 375,292 375,321 376,316 376,309 376,308 376,321 376,351 376,314 376,346 376,370 376,335 376,354 377,348 377,370 377,352 377,365 377,354 377,359 377,349 377,370 377,354 377,311 377,314 378,311 378,275 378,262 378,287 378,287 378,301 378,308 378,314 378,292 378,286 379,286 379,279 379,282 379,255 379,259 379,251 379,287 379,300 379,287 379,282 380,314 380,287 380,278 380,297 380,268 380,289 380,278 380,317 380,308 380,319 381,319 381,348 381,325 381,360 381,362 381,324 381,336 381,349 381,328 381,301 381,305 382,284 382,246 382,232 382,206 382,221 382,233 382,230 382,241 382,284 382,289 383,259 383,275 383,243 383,276 383,259 383,254 383,289 383,259 383,270 383,275 384,260 384,271 384,276 384,287 384,273 384,271 384,305 384,313 384,286 384,286 384,282 385,248 385,262 385,251 385,238 385,275 385,292 385,270 385,281 385,301 385,279 386,281 386,270 386,225 386,248 386,259 386,232 386,213 386,184 386,124 386,206 387,216 387,171 387,173 387,203 387,214 387,240 387,248 387,279 387,295 387,289 387,267 388,241 388,265 388,233 388,251 388,241 388,200 388,219 388,214 388,192 388,254 389,206 389,224 389,217 389,200 389,198 389,209 389,165 389,176 389,222 389,221 390,230 390,227 390,216 390,222 390,170 390,189 390,224 390,194 390,211 390,206 390,217 391,233 391,194 391,216 391,194 391,224 391,198 391,190 391,182 391,165 391,186 392,144 392,160 392,144 392,200 392,240 392,235 392,197 392,165 392,173 392,181 393,211 393,154 393,159 393,154 393,148 393,122 393,163 393,197 393,200 393,152 393,133 394,165 394,170 394,198 394,197 394,213 394,238 394,205 394,189 394,190 394,152 395,154 395,111 395,143 395,148 395,173 395,173 395,230 395,181 395,151 395,122 396,106 396,101 396,86 396,121 396,122 396,143 396,195 396,170 396,151 396,143 396,111 397,151 397,114 397,116 397,182 397,198 397,225 397,224 397,182 397,116 397,97 398,89 398,130 398,101 398,171 398,132 398,117 398,163 398,240 398,224 398,155 399,187 399,217 399,195 399,103 399,106 399,59 399,65 399,51 399,75 399,62 399,71 400,82 400,133 400,127 400,128 400,148 400,208 400,222 400,213 400,238 400,181 401,165 401,135 401,151 401,103 401,70 401,51 401,122 401,75 401,86 401,62 402,111 402,86 402,141 402,106 402,170 402,152 402,178 402,179 402,127 402,122 402,148 403,189 403,133 403,78 403,36 403,78 403,16 403,98 403,94 403,176 403,140 404,130 404,116 404,135 404,101 404,171 404,144 404,163 404,121 404,148 404,119 405,140 405,151 405,128 405,111 405,95 405,108 405,146 405,168 405,155 405,159 405,157 406,108 406,79 406,52 406,22 406,54 406,94 406,135 406,119 406,163 406,168 407,230 407,236 407,198 407,144 407,167 407,100 407,75 407,30 407,57 407,71 408,52 408,149 408,148 408,127 408,141 408,141 408,106 408,152 408,111 408,113 408,98 409,148 409,155 409,122 409,73 409,60 409,119 409,136 409,143 409,200 409,194 410,181 410,141 410,149 410,168 410,124 410,136 410,132 410,105 410,86 410,117 411,167 411,159 411,151 411,146 411,173 411,168 411,141 411,136 411,141 411,175 411,154 412,121 412,208 412,195 412,149 412,190 412,138 412,219 412,246 412,214 412,157 413,200 413,259 413,197 413,179 413,165 413,159 413,103 413,127 413,189 413,243 414,168 414,138 414,152 414,249 414,178 414,241 414,246 414,217 414,198 414,230 414,251 415,268 415,248 415,240 415,205 415,195 415,216 415,144 415,194 415,152 415,152 416,181 416,157 416,228 416,246 416,213 416,240 416,236 416,270 416,265 416,297 417,278 417,222 417,275 417,244 417,255 417,249 417,222 417,192 417,214 417,232 417,195 418,224 418,265 418,278 418,267 418,259 418,219 418,233 418,262 418,300 418,289 419,294 419,246 419,273 419,276 419,278 419,243 419,241 419,252 419,232 419,213 420,249 420,249 420,233 420,257 420,248 420,327 420,305 420,292 420,300 420,311 420,298 421,286 421,263 421,286 421,319 421,305 421,282 421,262 421,252 421,244 421,249 422,262 422,255 422,216 422,263 422,278 422,286 422,341 422,321 422,338 422,351 423,325 423,348 423,343 423,341 423,305 423,306 423,273 423,268 423,236 423,284 423,263 424,262 424,244 424,227 424,241 424,232 424,224 424,241 424,298 424,270 424,281 425,321 425,344 425,343 425,373 425,355 425,363 425,343 425,346 425,338 425,343 426,341 426,321 426,289 426,295 426,290 426,308 426,301 426,286 426,286 426,259 426,279 427,263 427,255 427,268 427,248 427,273 427,306 427,321 427,308 427,308 427,325 428,362 428,359 428,343 428,355 428,351 428,357 428,348 428,343 428,348 428,346 429,317 429,332 429,309 429,322 429,308 429,314 429,311 429,298 429,292 429,308 429,300 430,295 430,301 430,287 430,290 430,317 430,294 430,308 430,313 430,346 430,340 431,332 431,373 431,325 431,346 431,333 431,336 431,349 431,355 431,367 431,397 432,376 432,379 432,390 432,398 432,408 432,394 432,387 432,405 432,386 432,384 432,367 433,367 433,365 433,343 433,363 433,336 433,357 433,352 433,340 433,340 433,336 434,305 434,279 434,286 434,284 434,287 434,306 434,313 434,327 434,319 434,328 435,333 435,338 435,373 435,355 435,379 435,373 435,376 435,409 435,395 435,394 435,403 436,397 436,390 436,381 436,382 436,370 436,375 436,352 436,359 436,341 436,328 437,341 437,319 437,335 437,332 437,300 437,322 437,370 437,333 437,359 437,352 438,352 438,389 438,379 438,371 438,384 438,363 438,384 438,390 438,355 438,363 438,346 439,360 439,333 439,341 439,355 439,333 439,357 439,332 439,322 439,354 439,352 440,336 440,338 440,340 440,376 440,346 440,338 440,352 440,368 440,362 440,373 441,386 441,379 441,401 441,408 441,389 441,386 441,367 441,384 441,376 441,362 441,365 442,390 442,390 442,384 442,375 442,384 442,408 442,397 442,381 442,367 442,365 443,351 443,330 443,322 443,333 443,333 443,373 443,352 443,321 443,371 443,354 444,346 444,340 444,330 444,325 444,354 444,355 444,349 444,343 444,335 444,362 444,363 445,352 445,371 445,387 445,394 445,376 445,403 445,375 445,387 445,375 445,382 446,351 446,381 446,363 446,357 446,375 446,360 446,371 446,401 446,390 446,389 447,401 447,400 447,378 447,397 447,379 447,381 447,379 447,386 447,375 447,355 447,348 448,349 448,335 448,367 448,379 448,381 448,400 448,390 448,368 448,382 448,376 449,371 449,405 449,398 449,379 449,403 449,405 449,398 449,395 449,405 449,378 450,392 450,382 450,384 450,382 450,360 450,360 450,352 450,368 450,352 450,379 450,376 451,344 451,351 451,346 451,340 451,349 451,319 451,324 451,355 451,371 451,360 452,354 452,357 452,375 452,365 452,370 452,343 452,349 452,349 452,330 452,336 453,365 453,349 453,344 453,354 453,327 453,354 453,327 453,344 453,362 453,346 453,317 454,343 454,327 454,349 454,365 454,340 454,357 454,355 454,378 454,371 454,360 455,349 455,376 455,354 455,378 455,359 455,365 455,368 455,352 455,333 455,330 456,349 456,378 456,351 456,352 456,325 456,341 456,335 456,317 456,300 456,295 456,309 457,325 457,306 457,306 457,278 457,276 457,306 457,303 457,287 457,282 457,311 458,303 458,313 458,306 458,311 458,309 458,324 458,336 458,330 458,313 458,328 459,319 459,338 459,309 459,257 459,267 459,286 459,300 459,311 459,284 459,300 460,303 460,251 460,303 460,276 460,279 460,244 460,284 460,275 460,260 460,262 460,267 461,267 461,282 461,275 461,265 461,270 461,275 461,263 461,278 461,313 461,282 462,290 462,276 462,273 462,248 462,300 462,317 462,306 462,303 462,322 462,303 463,284 463,281 463,281 463,260 463,224 463,254 463,244 463,238 463,233 463,187 463,190 464,192 464,216 464,205 464,192 464,227 464,211 464,221 464,222 464,203 464,198 465,219 465,200 465,200 465,236 465,270 465,306 465,321 465,306 465,292 465,265 466,246 466,244 466,197 466,232 466,238 466,217 466,186 466,141 466,175 466,163 466,209 467,224 467,213 467,219 467,170 467,194 467,157 467,163 467,154 467,148 467,228 468,230 468,170 468,214 468,235 468,282 468,305 468,314 468,275 468,249 468,235 469,170 469,184 469,168 469,100 469,117 469,67 469,67 469,111 469,160 469,189 469,195 470,216 470,203 470,170 470,194 470,197 470,178 470,186 470,228 470,219 470,222 471,225 471,189 471,151 471,136 471,82 471,125 471,108 471,98 471,49 471,67 472,121 472,127 472,121 472,68 472,44 472,128 472,155 472,181 472,224 472,260 472,240 473,198 473,236 473,157 473,144 473,140 473,198 473,179 473,192 473,205 473,152 474,103 474,101 474,75 474,51 474,35 474,24 474,5 474,101 474,167 474,165 475,167 475,170 475,109 475,176 475,151 475,178 475,203 475,149 475,146 475,127 475,57 476,121 476,76 476,73 476,119 476,140 476,152 476,143 476,116 476,175 476,175 477,128 477,141 477,130 477,46 477,84 477,90 477,86 477,30 477,89 477,84 478,135 478,146 478,163 478,140 478,173 478,168 478,157 478,154 478,148 478,111 478,82 479,133 479,79 479,136 479,79 479,103 479,98 479,106 479,132 479,116 479,133 480,151 480,148 480,157 480,173 480,136 480,113 480,87 480,109 480,117 480,124 481,92 481,117 481,132 481,124 481,76 481,138 481,203 481,181 481,167 481,173 481,160 482,148 482,94 482,119 482,33 482,78 482,113 482,95 482,121 482,97 482,105 483,92 483,136 483,163 483,160 483,175 483,136 483,133 483,151 483,187 483,214 484,175 484,173 484,133 484,132 484,101 484,62 484,71 484,108 484,82 484,163 484,155 485,192 485,155 485,151 485,182 485,152 485,165 485,138 485,162 485,140 485,81 486,68 486,189 486,182 486,175 486,181 486,170 486,168 486,151 486,155 486,151 487,146 487,146 487,109 487,138 487,119 487,189 487,163 487,125 487,143 487,184 487,211 488,186 488,184 488,235 488,271 488,175 488,124 488,122 488,136 488,141 488,152 489,198 489,176 489,167 489,192 489,148 489,130 489,89 489,143 489,159 489,201 490,208 490,181 490,192 490,238 490,155 490,206 490,203 490,190 490,171 490,181 490,209 491,221 491,179 491,249 491,208 491,211 491,228 491,160 491,189 491,181 491,171 492,192 492,159 492,243 492,219 492,257 492,308 492,260 492,217 492,221 492,267 493,248 493,151 493,135 493,214 493,168 493,152 493,217 493,181 493,224 493,214 493,263 494,259 494,270 494,248 494,255 494,235 494,275 494,271 494,290 494,255 494,268 495,260 495,262 495,294 495,287 495,303 495,262 495,201 495,259 495,225 495,233 496,228 496,306 496,324 496,317 496,300 496,311 496,295 496,317 496,309 496,287 496,275 497,281 497,270 497,262 497,246 497,235 497,260 497,259 497,270 497,265 497,276 498,281 498,290 498,263 498,279 498,262 498,298 498,290 498,294 498,271 498,254 499,273 499,251 499,262 499,249 499,241 499,211 499,262 499,276 499,292 499,295 499,281 500,260 500,281 500,298 500,259 500,324 500,301 500,309 500,354 500,357 500,362 501,359 501,367 501,343 501,341 501,344 501,344 501,316 501,346 501,309 501,306 502,287 502,290 502,282 502,271 502,230 502,244 502,262 502,263 502,282 502,279 502,300 503,286 503,314 503,276 503,275 503,281 503,282 503,260 503,260 503,301 503,311 504,301 504,305 504,333 504,317 504,309 504,325 504,292 504,313 504,297 504,306 505,308 505,290 505,338 505,333 505,333 505,341 505,333 505,371 505,341 505,343 505,314 506,309 506,321 506,316 506,354 506,341 506,328 506,335 506,324 506,311 506,311 507,286 507,321 507,328 507,309 507,309 507,300 507,336 507,319 507,321 507,308 508,341 508,338 508,322 508,336 508,341 508,363 508,376 508,330 508,340 508,346 508,324 509,351 509,328 509,317 509,322 509,314 509,294 509,309 509,354 509,357 509,324 510,325 510,330 510,346 510,336 510,343 510,303 510,336 510,327 510,355 510,335 511,368 511,344 511,363 511,370 511,381 511,378 511,386 511,381 511,392 511,367 511,376 512,368 512,359 512,368 512,368 512,355 512,368 512,338 512,322 512,317 512,319 513,328 513,321 513,330 513,319 513,305 513,297 513,316 513,332 513,322 513,343 514,324 514,355 514,325 514,346 514,365 514,336 514,352 514,357 514,365 514,360 514,371 515,382 515,384 515,386 515,390 515,378 515,376 515,381 515,373 515,371 515,360 516,376 516,376 516,362 516,363 516,360 516,355 516,359 516,341 516,332 516,321 517,286 517,300 517,279 517,276 517,295 517,306 517,327 517,330 517,336 517,355 517,367 518,384 518,382 518,394 518,375 518,378 518,368 518,390 518,344 518,381 518,373 519,370 519,365 519,371 519,382 519,367 519,365 519,367 519,371 519,362 519,381 520,373 520,352 520,343 520,362 520,333 520,324 520,328 520,324 520,335 520,328 520,322 521,300 521,305 521,298 521,297 521,289 521,314 521,313 521,340 521,351 521,387 522,367 522,370 522,365 522,368 522,379 522,382 522,376 522,398 522,405 522,373 523,397 523,397 523,381 523,378 523,360 523,359 523,373 523,344 523,340 523,370 523,351 524,344 524,360 524,348 524,343 524,355 524,348 524,332 524,340 524,330 524,330 525,327 525,340 525,357 525,349 525,363 525,375 525,348 525,343 525,359 525,340 526,344 526,349 526,349 526,341 526,352 526,333 526,359 526,335 526,332 526,349 526,343 527,352 527,341 527,363 527,367 527,351 527,362 527,370 527,378 527,386 527,381 528,381 528,387 528,373 528,348 528,343 528,341 528,349 528,340 528,352 528,343 529,316 529,295 529,319 529,301 529,321 529,316 529,314 529,327 529,343 529,309 529,313 530,325 530,340 530,330 530,340 530,341 530,324 530,348 530,365 530,346 530,368 531,360 531,355 531,343 531,363 531,335 531,346 531,355 531,324 531,321 531,313 532,292 532,290 532,300 532,295 532,295 532,282 532,298 532,298 532,321 532,311 532,294 533,306 533,321 533,327 533,343 533,360 533,370 533,375 533,371 533,359 533,367 534,367 534,362 534,354 534,336 534,297 534,308 534,308 534,289 534,298 534,254 535,263 535,268 535,295 535,303 535,324 535,321 535,319 535,270 535,297 535,309 536,328 536,313 536,314 536,301 536,286 536,295 536,268 536,281 536,260 536,276 536,275 537,267 537,251 537,241 537,265 537,287 537,297 537,281 537,305 537,290 537,303 538,294 538,287 538,297 538,286 538,292 538,305 538,289 538,267 538,259 538,252 539,240 539,236 539,251 539,275 539,230 539,235 539,227 539,249 539,267 539,278 539,287 540,262 540,300 540,282 540,300 540,306 540,286 540,249 540,270 540,240 540,255 541,221 541,213 541,208 541,238 541,230 541,254 541,236 541,240 541,241 541,249 542,262 542,230 542,222 542,235 542,211 542,198 542,217 542,232 542,236 542,238 542,205 543,254 543,248 543,243 543,222 543,209 543,224 543,198 543,176 543,181 543,189 544,173 544,176 544,201 544,192 544,267 544,257 544,273 544,270 544,254 544,286 545,268 545,251 545,208 545,203 545,146 545,146 545,98 545,100 545,95 545,108 545,136 546,138 546,217 546,200 546,249 546,297 546,286 546,262 546,259 546,241 546,228 547,235 547,162 547,205 547,155 547,119 547,113 547,86 547,79 547,67 547,111 548,157 548,190 548,198 548,249 548,243 548,228 548,228 548,149 548,186 548,189 548,182 549,157 549,146 549,103 549,109 549,86 549,84 549,109 549,70 549,46 549,122 550,144 550,187 550,203 550,238 550,241 550,275 550,305 550,275 550,254 550,240 551,214 551,209 551,176 551,122 551,82 551,81 551,52 551,67 551,36 551,28 551,14 552,-1 552,108 552,154 552,179 552,179 552,116 552,167 552,124 552,125 552,81 553,46 553,87 553,94 553,125 553,119 553,143 553,117 553,132 553,78 553,92 554,81 554,132 554,109 554,151 554,176 554,187 554,149 554,144 554,144 554,114 554,40 555,59 555,17 555,22 555,81 555,81 555,90 555,116 555,148 555,163 555,184 556,209 556,151 556,168 556,205 556,213 556,163 556,125 556,157 556,138 556,101 557,108 557,86 557,75 557,27 557,75 557,86 557,73 557,124 557,116 557,114 557,144 558,125 558,163 558,143 558,159 558,122 558,106 558,132 558,70 558,79 558,152 559,167 559,133 559,124 559,138 559,121 559,116 559,106 559,78 559,113 559,149 560,187 560,205 560,209 560,189 560,184 560,224 560,192 560,175 560,168 560,141 560,65 561,81 561,140 561,178 561,184 561,168 561,149 561,84 561,144 561,138 561,175 562,149 562,109 562,100 562,59 562,95 562,136 562,124 562,179 562,101 562,125 563,103 563,95 563,119 563,141 563,105 563,136 563,167 563,95 563,100 563,60 563,51 564,16 564,82 564,151 564,144 564,155 564,184 564,233 564,251 564,225 564,192 565,200 565,157 565,109 565,151 565,111 565,98 565,106 565,86 565,81 565,136 566,130 566,119 566,117 566,195 566,186 566,190 566,192 566,176 566,200 566,163 566,194 567,160 567,146 567,117 567,138 567,108 567,106 567,163 567,148 567,219 567,213 568,162 568,181 568,184 568,197 568,171 568,211 568,217 568,203 568,186 568,171 569,203 569,162 569,171 569,162 569,154 569,146 569,192 569,181 569,195 569,190 569,181 570,252 570,236 570,238 570,214 570,216 570,236 570,233 570,195 570,165 570,225 571,214 571,184 571,213 571,233 571,254 571,257 571,235 571,221 571,217 571,198 572,141 572,163 572,186 572,187 572,198 572,252 572,217 572,217 572,206 572,227 572,262 573,246 573,178 573,222 573,228 573,246 573,236 573,252 573,233 573,255 573,265 574,270 574,255 574,281 574,273 574,249 574,278 574,295 574,301 574,289 574,303 575,273 575,259 575,246 575,230 575,225 575,224 575,222 575,184 575,181 575,170 575,197 576,254 576,254 576,267 576,248 576,282 576,306 576,327 576,338 576,311 576,309 577,292 577,289 577,327 577,290 577,290 577,292 577,300 577,305 577,303 577,301 578,281 578,289 578,328 578,328 578,330 578,335 578,303 578,309 578,313 578,267 578,249 579,224 579,249 579,246 579,267 579,254 579,248 579,255 579,282 579,271 579,254 580,286 580,325 580,298 580,333 580,332 580,330 580,311 580,344 580,340 580,355 581,362 581,349 581,316 581,332 581,313 581,300 581,290 581,309 581,281 581,251 581,259 582,251 582,240 582,268 582,271 582,262 582,263 582,309 582,335 582,352 582,340 583,338 583,352 583,363 583,349 583,360 583,362 583,368 583,352 583,365 583,346 584,357 584,338 584,362 584,351 584,319 584,317 584,294 584,286 584,262 584,282 584,284 585,275 585,252 585,235 585,284 585,298 585,316 585,324 585,316 585,328 585,327 586,352 586,346 586,354 586,348 586,365 586,355 586,371 586,386 586,401 586,357 587,389 587,389 587,363 587,381 587,363 587,382 587,373 587,376 587,346 587,344 587,362 588,343 588,344 588,306 588,333 588,321 588,303 588,289 588,316 588,338 588,357 589,349 589,351 589,348 589,352 589,368 589,368 589,365 589,373 589,359 589,359 590,360 590,376 590,384 590,357 590,362 590,379 590,375 590,355 590,363 590,373 590,333 591,349 591,332 591,359 591,354 591,363 591,341 591,340 591,338 591,297 591,324 592,303 592,298 592,279 592,278 592,278 592,316 592,328 592,341 592,378 592,360 593,367 593,390 593,387 593,384 593,392 593,344 593,381 593,357 593,376 593,370 593,378 594,359 594,359 594,352 594,365 594,340 594,346 594,340 594,357 594,354 594,362 595,336 595,351 595,336 595,316 595,328 595,319 595,313 595,311 595,338 595,346 596,325 596,300 596,311 596,335 596,340 596,355 596,367 596,362 596,378 596,365 596,352 597,375 597,384 597,392 597,387 597,382 597,349 597,363 597,368 597,381 597,379 598,386 598,394 598,390 598,384 598,373 598,394 598,386 598,386 598,381 598,386 599,389 599,348 599,352 599,343 599,319 599,321 599,316 599,297 599,292 599,297 599,262 600,257 600,270 600,263 600,259 600,292 600,333 600,344 600,384 600,360 600,378 601,397 601,387 601,403 601,394 601,376 601,386 601,394 601,375 601,351 601,362 602,387 602,363 602,348 602,365 602,343 602,319 602,308 602,343 602,352 602,352 602,349 603,327 603,321 603,321 603,332 603,322 603,348 603,322 603,330 603,325 603,336 604,344 604,338 604,316 604,344 604,398 604,371 604,359 604,381 604,370 604,359 605,395 605,397 605,397 605,376 605,376 605,397 605,382 605,386 605,394 605,373 605,349 606,298 606,327 606,336 606,317 606,319 606,316 606,328 606,309 606,305 606,325 607,297 607,292 607,270 607,259 607,305 607,289 607,301 607,276 607,271 607,306 608,294 608,359 608,373 608,349 608,384 608,365 608,397 608,389 608,394 608,400 608,389 609,386 609,371 609,362 609,341 609,346 609,322 609,298 609,314 609,254 609,267 610,276 610,263 610,265 610,284 610,251 610,248 610,281 610,306 610,314 610,316 611,324 611,327 611,330 611,352 611,344 611,332 611,316 611,322 611,287 611,321 612,324 612,292 612,292 612,301 612,308 612,303 612,284 612,271 612,276 612,268 612,259 613,251 613,275 613,282 613,311 613,317 613,319 613,327 613,295 613,294 613,271 614,252 614,252 614,260 614,265 614,241 614,270 614,255 614,244 614,281 614,289 615,298 615,317 615,305 615,327 615,303 615,300 615,308 615,346 615,284 615,286 615,249 616,238 616,225 616,222 616,213 616,268 616,268 616,303 616,322 616,308 616,306 617,279 617,270 617,267 617,248 617,246 617,209 617,135 617,152 617,186 617,136 618,178 618,187 618,246 618,244 618,260 618,276 618,327 618,338 618,354 618,348 618,346 619,321 619,317 619,289 619,271 619,244 619,238 619,176 619,140 619,111 619,81 620,59 620,54 620,57 620,106 620,168 620,167 620,205 620,227 620,268 620,375 621,379 621,343 621,230 621,219 621,236 621,208 621,181 621,152 621,163 621,189 621,203 622,219 622,197 622,230 622,201 622,178 622,200 622,195 622,184 622,173 622,184 623,181 623,144 623,117 623,135 623,182 623,182 623,176 623,121 623,140 623,143 624,170 624,184 624,167 624,179 624,198 624,198 624,240 624,222 624,224 624,170 624,189 625,192 625,167 625,160 625,159 625,167 625,186 625,167 625,201 625,206 625,197 626,184 626,144 626,168 626,114 626,157 626,157 626,97 626,103 626,141 626,68 627,59 627,63 627,140 627,170 627,200 627,241 627,241 627,236 627,206 627,194 627,175 628,200 628,175 628,106 628,84 628,87 628,94 628,44 628,55 628,78 628,38 629,101 629,181 629,168 629,175 629,155 629,163 629,70 629,90 629,84 629,52 630,73 630,70 630,82 630,119 630,146 630,187 630,201 630,186 630,189 630,171 630,122 631,78 631,75 631,41 631,48 631,97 631,140 631,184 631,170 631,98 631,21 632,40 632,51 632,73 632,138 632,100 632,168 632,230 632,252 632,232 632,254 633,206 633,179 633,167 633,140 633,116 633,63 633,22 633,-7 633,-34 633,9 633,86 634,136 634,162 634,149 634,136 634,143 634,151 634,148 634,124 634,138 634,143 635,144 635,143 635,90 635,97 635,78 635,78 635,119 635,151 635,109 635,98 636,117 636,65 636,89 636,68 636,152 636,189 636,217 636,270 636,216 636,192 636,138 637,181 637,143 637,84 637,121 637,63 637,48 637,41 637,8 637,90 637,46 638,103 638,155 638,130 638,62 638,149 638,167 638,201 638,170 638,167 638,144 639,116 639,117 639,63 639,70 639,82 639,95 639,108 639,127 639,146 639,151 639,181 640,159 640,128 640,151 640,97 640,127 640,144 640,151 640,109 640,71 640,94 641,141 641,125 641,141 641,114 641,108 641,128 641,221 641,236 641,192 641,189 642,157 642,128 642,125 642,143 642,159 642,65 642,136 642,94 642,81 642,122 642,116 643,100 643,130 643,189 643,148 643,186 643,214 643,236 643,224 643,263 643,230 644,225 644,195 644,190 644,175 644,143 644,108 644,148 644,100 644,95 644,97 645,173 645,159 645,181 645,194 645,225 645,243 645,214 645,206 645,200 645,187 645,203 646,195 646,151 646,163 646,122 646,178 646,195 646,190 646,171 646,168 646,152 647,181 647,163 647,130 647,222 647,230 647,289 647,275 647,284 647,267 647,260 648,236 648,268 648,300 648,286 648,251 648,246 648,211 648,228 648,246 648,240 648,246 649,227 649,217 649,208 649,219 649,211 649,201 649,243 649,225 649,222 649,251 650,268 650,259 650,262 650,290 650,265 650,249 650,249 650,275 650,290 650,252 651,252 651,243 651,249 651,228 651,225 651,198 651,190 651,176 651,190 651,216 651,209 652,163 652,187 652,241 652,278 652,273 652,294 652,287 652,303 652,301 652,289 653,265 653,246 653,265 653,244 653,238 653,240 653,267 653,260 653,249 653,221 654,224 654,233 654,270 654,305 654,292 654,290 654,324 654,308 654,340 654,294 654,254 655,289 655,314 655,314 655,290 655,294 655,297 655,259 655,278 655,267 655,262 656,260 656,248 656,268 656,259 656,281 656,284 656,278 656,286 656,305 656,287 657,298 657,294 657,278 657,278 657,290 657,303 657,295 657,309 657,284 657,319 657,330 658,328 658,362 658,313 658,340 658,322 658,319 658,309 658,295 658,281 658,300 659,294 659,281 659,262 659,243 659,249 659,244 659,254 659,290 659,319 659,341 660,354 660,351 660,355 660,362 660,375 660,375 660,359 660,373 660,378 660,338 660,322 661,346 661,325 661,316 661,294 661,328 661,341 661,330 661,343 661,309 661,338 662,336 662,336 662,340 662,311 662,308 662,324 662,313 662,321 662,313 662,295 663,297 663,281 663,271 663,287 663,294 663,321 663,354 663,349 663,354 663,341 663,368 664,328 664,354 664,352 664,360 664,352 664,390 664,376 664,375 664,363 664,375 665,352 665,371 665,375 665,359 665,359 665,352 665,362 665,355 665,352 665,336 666,343 666,309 666,319 666,319 666,330 666,325 666,309 666,309 666,348 666,355 666,343 667,371 667,359 667,370 667,354 667,376 667,401 667,397 667,376 667,397 667,400 668,390 668,400 668,378 668,367 668,381 668,352 668,367 668,357 668,348 668,354 669,341 669,322 669,335 669,322 669,330 669,328 669,292 669,325 669,305 669,328 669,300 670,314 670,271 670,314 670,340 670,371 670,367 670,375 670,397 670,392 670,390 671,392 671,392 671,397 671,408 671,405 671,387 671,408 671,398 671,387 671,376 672,386 672,359 672,346 672,351 672,368 672,328 672,313 672,308 672,317 672,316 672,327 673,333 673,327 673,332 673,327 673,308 673,349 673,321 673,338 673,330 673,336 674,336 674,370 674,333 674,344 674,333 674,359 674,362 674,344 674,367 674,363 675,360 675,359 675,359 675,354 675,354 675,349 675,354 675,352 675,346 675,344 675,365 676,349 676,335 676,344 676,351 676,354 676,340 676,354 676,381 676,405 676,365 677,395 677,400 677,370 677,375 677,390 677,386 677,363 677,355 677,360 677,381 678,357 678,338 678,330 678,340 678,317 678,316 678,295 678,322 678,308 678,298 678,308 679,327 679,338 679,351 679,325 679,324 679,317 679,314 679,343 679,348 679,344 680,373 680,400 680,386 680,389 680,390 680,411 680,389 680,417 680,397 680,392 681,397 681,371 681,386 681,367 681,362 681,343 681,336 681,359 681,330 681,321 681,314 682,290 682,275 682,286 682,294 682,290 682,311 682,327 682,301 682,313 682,327 683,321 683,349 683,332 683,362 683,360 683,355 683,359 683,370 683,359 683,357 684,341 684,322 684,325 684,336 684,333 684,335 684,340 684,341 684,322 684,341 684,348 685,341 685,306 685,330 685,338 685,349 685,349 685,319 685,335 685,351 685,360 686,360 686,371 686,382 686,352 686,354 686,367 686,351 686,344 686,314 686,325 687,311 687,322 687,305 687,257 687,286 687,265 687,255 687,270 687,292 687,271 687,273 688,297 688,298 688,330 688,359 688,327 688,325 688,313 688,341 688,349 688,348 689,332 689,338 689,343 689,319 689,325 689,332 689,308 689,301 689,289 689,255 690,243 690,248 690,236 690,221 690,243 690,263 690,297 690,297 690,297 690,321 691,316 691,322 691,330 691,325 691,321 691,348 691,338 691,333 691,338 691,330 691,351 692,346 692,344 692,370 692,338 692,332 692,311 692,303 692,281 692,265 692,255 693,254 693,235 693,208 693,211 693,184 693,163 693,159 693,162 693,165 693,232 694,236 694,232 694,303 694,289 694,268 694,313 694,300 694,319 694,340 694,340 694,311 695,295 695,279 695,271 695,281 695,321 695,316 695,316 695,335 695,327 695,330 696,292 696,273 696,265 696,255 696,222 696,213 696,219 696,168 696,163 696,106 697,71 697,70 697,128 697,155 697,194 697,225 697,267 697,281 697,246 697,268 697,319 698,328 698,335 698,319 698,344 698,330 698,303 698,295 698,273 698,254 698,224 699,221 699,157 699,127 699,157 699,114 699,163 699,140 699,127 699,149 699,152 700,213 700,201 700,265 700,270 700,284 700,292 700,301 700,254 700,271 700,236 700,241 701,235 701,201 701,200 701,195 701,197 701,173 701,143 701,163 701,171 701,151 702,114 702,165 702,198 702,224 702,214 702,205 702,179 702,195 702,232 702,217 703,203 703,195 703,195 703,187 703,163 703,206 703,213 703,194 703,179 703,149 703,148 704,128 704,165 704,146 704,148 704,192 704,194 704,148 704,170 704,155 704,198 705,168 705,179 705,149 705,176 705,175 705,214 705,201 705,167 705,173 705,149 706,132 706,162 706,175 706,182 706,197 706,209 706,198 706,178 706,122 706,141 706,121 707,122 707,90 707,90 707,121 707,105 707,43 707,63 707,128 707,149 707,144 708,233 708,205 708,214 708,197 708,232 708,227 708,217 708,175 708,184 708,154 709,113 709,73 709,49 709,36 709,43 709,109 709,109 709,184 709,273 709,267 709,228 710,187 710,233 710,262 710,289 710,273 710,267 710,260 710,213 710,168 710,144 711,71 711,76 711,46 711,62 711,6 711,-29 711,-50 711,-37 711,1 711,13 712,51 712,116 712,176 712,192 712,159 712,154 712,178 712,195 712,144 712,119 712,157 713,89 713,98 713,97 713,76 713,57 713,25 713,67 713,124 713,86 713,146 714,151 714,128 714,140 714,163 714,192 714,138 714,159 714,173 714,114 714,28 715,114 715,46 715,90 715,149 715,154 715,160 715,114 715,163 715,143 715,127 715,109 716,132 716,154 716,144 716,130 716,92 716,36 716,51 716,109 716,60 716,84 717,127 717,155 717,189 717,227 717,275 717,282 717,324 717,279 717,276 717,262 718,189 718,125 718,124 718,46 718,-53 718,-55 718,-136 718,-96 718,-58 718,5 718,87 719,179 719,240 719,279 719,267 719,244 719,244 719,197 719,201 719,175 719,140 720,84 720,55 720,27 720,76 720,73 720,106 720,135 720,167 720,198 720,197 721,187 721,227 721,240 721,271 721,238 721,221 721,190 721,159 721,117 721,86 721,65 722,14 722,89 722,135 722,195 722,179 722,219 722,192 722,222 722,195 722,225 723,217 723,179 723,155 723,100 723,84 723,155 723,114 723,168 723,113 723,175 724,182 724,170 724,168 724,140 724,233 724,211 724,224 724,268 724,305 724,278 724,278 725,243 725,217 725,181 725,189 725,159 725,152 725,143 725,148 725,167 725,181 726,141 726,168 726,179 726,221 726,246 726,270 726,254 726,224 726,221 726,248 727,249 727,278 727,279 727,243 727,222 727,214 727,228 727,208 727,224 727,178 727,184 728,201 728,211 728,155 728,213 728,224 728,238 728,260 728,279 728,295 728,340 729,348 729,362 729,348 729,352 729,344 729,325 729,306 729,292 729,265 729,251 730,221 730,159 730,152 730,130 730,140 730,165 730,198 730,208 730,152 730,197 730,235 731,278 731,286 731,295 731,278 731,276 731,321 731,330 731,325 731,322 731,317 732,325 732,333 732,338 732,322 732,309 732,301 732,290 732,290 732,313 732,313 733,297 733,290 733,267 733,279 733,276 733,243 733,216 733,236 733,281 733,270 733,273 734,262 734,270 734,275 734,243 734,265 734,276 734,308 734,305 734,316 734,322 735,321 735,346 735,348 735,341 735,349 735,327 735,330 735,292 735,301 735,305 736,268 736,249 736,228 736,255 736,246 736,297 736,290 736,282 736,292 736,292 736,282 737,322 737,324 737,351 737,376 737,373 737,400 737,376 737,368 737,373 737,367 738,368 738,365 738,362 738,340 738,348 738,336 738,311 738,338 738,306 738,303 739,316 739,324 739,308 739,287 739,300 739,284 739,314 739,325 739,317 739,306 739,324 740,319 740,297 740,332 740,351 740,338 740,311 740,357 740,314 740,316 740,306 741,340 741,344 741,336 741,349 741,332 741,354 741,313 741,335 741,363 741,365 742,367 742,386 742,395 742,400 742,390 742,394 742,401 742,379 742,373 742,365 742,370 743,335 743,360 743,351 743,316 743,287 743,298 743,309 743,279 743,275 743,275 744,298 744,322 744,311 744,336 744,321 744,357 744,394 744,362 744,386 744,389 745,382 745,379 745,389 745,382 745,378 745,387 745,363 745,357 745,363 745,362 745,360 746,362 746,352 746,363 746,346 746,343 746,348 746,362 746,341 746,321 746,311 747,325 747,298 747,316 747,311 747,325 747,324 747,346 747,325 747,367 747,352 748,363 748,398 748,363 748,390 748,400 748,375 748,395 748,390 748,390 748,406 748,397 749,389 749,379 749,381 749,376 749,368 749,371 749,357 749,340 749,338 749,311 750,314 750,309 750,289 750,308 750,303 750,271 750,289 750,276 750,287 750,311 751,289 751,317 751,322 751,330 751,338 751,376 751,379 751,365 751,395 751,392 751,397 752,394 752,400 752,395 752,390 752,406 752,403 752,387 752,370 752,405 752,362 753,354 753,367 753,375 753,341 753,333 753,344 753,343 753,306 753,305 753,275 754,275 754,238 754,251 754,233 754,257 754,300 754,306 754,368 754,390 754,406 754,405 755,414 755,406 755,403 755,403 755,403 755,387 755,379 755,382 755,376 755,389 756,365 756,333 756,332 756,344 756,333 756,328 756,298 756,300 756,290 756,309 757,322 757,305 757,286 757,300 757,300 757,308 757,303 757,309 757,333 757,370 757,378 758,392 758,401 758,378 758,395 758,386 758,375 758,370 758,352 758,376 758,368 759,370 759,360 759,379 759,370 759,360 759,370 759,355 759,360 759,360 759,346 760,346 760,335 760,325 760,316 760,317 760,309 760,316 760,319 760,322 760,300 760,282 761,292 761,279 761,281 761,289 761,338 761,332 761,338 761,357 761,368 761,384 762,375 762,363 762,360 762,373 762,373 762,355 762,341 762,354 762,341 762,354 763,333 763,333 763,362 763,325 763,306 763,306 763,319 763,286 763,287 763,301 763,295 764,290 764,289 764,275 764,303 764,327 764,344 764,336 764,324 764,321 764,294 765,284 765,271 765,292 765,279 765,273 765,270 765,265 765,270 765,241 765,263 766,306 766,325 766,330 766,332 766,349 766,371 766,348 766,338 766,360 766,382 767,344 767,343 767,319 767,330 767,308 767,297 767,263 767,251 767,243 767,233 767,252 768,251 768,275 768,282 768,263 768,265 768,273 768,271 768,292 768,292 768,301 769,294 769,251 769,273 769,311 769,319 769,319 769,289 769,276 769,286 769,279 770,282 770,282 770,305 770,252 770,254 770,279 770,251 770,243 770,221 770,219 770,238 771,267 771,248 771,267 771,251 771,248 771,275 771,233 771,232 771,267 771,244 772,240 772,217 772,238 772,279 772,295 772,287 772,308 772,314 772,321 772,316 773,294 773,313 773,308 773,316 773,284 773,255 773,255 773,205 773,167 773,127 773,122 774,155 774,136 774,109 774,122 774,106 774,127 774,179 774,216 774,267 774,297 775,306 775,295 775,267 775,284 775,251 775,284 775,262 775,224 775,194 775,186 776,136 776,121 776,105 776,68 776,65 776,79 776,109 776,227 776,278 776,281 776,281 777,276 777,281 777,290 777,243 777,268 777,251 777,275 777,240 777,240 777,205 778,232 778,190 778,175 778,138 778,78 778,148 778,49 778,13 778,87 778,105 779,82 779,133 779,168 779,176 779,195 779,219 779,224 779,243 779,216 779,228 779,255 780,228 780,232 780,240 780,214 780,163 780,89 780,89 780,86 780,27 780,62 781,78 781,106 781,135 781,101 781,167 781,175 781,144 781,122 781,175 781,168 782,209 782,160 782,163 782,160 782,152 782,182 782,259 782,249 782,232 782,178 782,205 783,192 783,97 783,41 783,-29 783,-1 783,24 783,89 783,103 783,117 783,89 784,101 784,175 784,232 784,309 784,317 784,325 784,327 784,290 784,255 784,236 785,213 785,206 785,175 785,60 785,25 785,-28 785,-115 785,-159 785,-148 785,-171 785,-67 786,52 786,136 786,203 786,195 786,227 786,217 786,214 786,219 786,163 786,132 787,121 787,75 787,19 787,27 787,30 787,81 787,125 787,111 787,52 787,119 788,163 788,125 788,128 788,143 788,187 788,175 788,197 788,200 788,192 788,136 788,125 789,135 789,119 789,105 789,82 789,19 789,40 789,70 789,89 789,111 789,136 790,57 790,81 790,124 790,170 790,179 790,168 790,162 790,182 790,203 790,235 791,232 791,197 791,136 791,143 791,135 791,84 791,86 791,87 791,132 791,109 791,49 792,60 792,48 792,57 792,108 792,163 792,201 792,171 792,138 792,141 792,140 793,160 793,168 793,217 793,128 793,109 793,168 793,143 793,116 793,36 793,51 794,-20 794,44 794,78 794,105 794,90 794,101 794,154 794,124 794,160 794,130 794,113 795,133 795,171 795,167 795,138 795,200 795,219 795,179 795,171 795,159 795,192 796,192 796,162 796,130 796,78 796,52 796,78 796,84 796,195 796,214 796,214 797,206 797,152 797,162 797,122 797,90 797,105 797,76 797,75 797,162 797,175 797,151 798,121 798,86 798,122 798,168 798,182 798,246 798,222 798,262 798,235 798,222 799,224 799,268 799,273 799,259 799,232 799,201 799,176 799,163 799,135 799,135 800,124 800,94 800,13 800,-7 800,82 800,103 800,146 800,228 800,254 800,251 800,265 801,251 801,225 801,276 801,297 801,294 801,298 801,289 801,313 801,270 801,249 802,214 802,162 802,73 802,38 802,19 802,60 802,54 802,132 802,127 802,173 803,197 803,198 803,249 803,255 803,244 803,260 803,267 803,275 803,265 803,255 803,289 804,276 804,327 804,311 804,328 804,289 804,271 804,249 804,248 804,236 804,211 805,170 805,181 805,170 805,116 805,97 805,155 805,106 805,167 805,217 805,198 806,238 806,292 806,313 806,319 806,314 806,321 806,332 806,332 806,309 806,292 806,286 807,297 807,313 807,330 807,322 807,330 807,295 807,308 807,301 807,248 807,252 808,205 808,195 808,182 808,160 808,195 808,127 808,140 808,205 808,244 808,238 809,265 809,297 809,311 809,282 809,305 809,282 809,292 809,305 809,305 809,330 809,333 810,341 810,335 810,327 810,316 810,321 810,313 810,301 810,267 810,286 810,286 811,279 811,316 811,279 811,319 811,322 811,321 811,333 811,292 811,295 811,278 812,263 812,301 812,278 812,259 812,270 812,268 812,262 812,286 812,298 812,335 812,309 813,316 813,276 813,279 813,267 813,300 813,308 813,301 813,316 813,322 813,340 814,355 814,384 814,379 814,375 814,386 814,389 814,378 814,367 814,392 814,389 815,379 815,379 815,363 815,378 815,354 815,360 815,348 815,328 815,325 815,316 815,313 816,260 816,275 816,276 816,289 816,303 816,309 816,330 816,340 816,338 816,335 817,309 817,301 817,281 817,289 817,273 817,260 817,279 817,278 817,278 817,305 818,317 818,321 818,341 818,367 818,355 818,376 818,386 818,387 818,390 818,379 818,389 819,375 819,370 819,368 819,376 819,351 819,387 819,392 819,392 819,384 819,375 820,378 820,384 820,375 820,368 820,363 820,367 820,362 820,362 820,335 820,351 821,346 821,330 821,311 821,309 821,328 821,325 821,343 821,338 821,309 821,338 821,370 822,330 822,378 822,348 822,352 822,333 822,319 822,373 822,343 822,359 822,327 823,363 823,363 823,344 823,333 823,349 823,362 823,352 823,346 823,321 823,333 824,349 824,344 824,354 824,376 824,355 824,370 824,338 824,389 824,365 824,379 824,375 825,355 825,360 825,360 825,378 825,365 825,373 825,397 825,376 825,401 825,375 826,381 826,384 826,365 826,344 826,360 826,367 826,333 826,349 826,357 826,348 827,333 827,343 827,335 827,317 827,316 827,305 827,278 827,278 827,271 827,260 827,275 828,286 828,292 828,352 828,360 828,384 828,375 828,382 828,384 828,403 828,386 829,405 829,397 829,389 829,400 829,392 829,392 829,373 829,389 829,375 829,359 830,363 830,367 830,362 830,348 830,316 830,336 830,319 830,324 830,273 830,265 830,270 831,281 831,281 831,251 831,271 831,295 831,301 831,351 831,362 831,363 831,378 832,384 832,395 832,386 832,389 832,389 832,394 832,403 832,397 832,406 832,381 833,389 833,395 833,368 833,381 833,371 833,379 833,376 833,389 833,362 833,382 833,394 834,371 834,343 834,332 834,365 834,322 834,308 834,305 834,294 834,284 834,278 835,281 835,284 835,278 835,281 835,290 835,305 835,340 835,316 835,341 835,359 836,373 836,382 836,394 836,392 836,403 836,397 836,394 836,422 836,403 836,398 836,416 837,386 837,379 837,379 837,373 837,351 837,354 837,349 837,341 837,328 837,317 838,284 838,282 838,270 838,249 838,270 838,281 838,260 838,279 838,287 838,290 839,281 839,297 839,333 839,338 839,360 839,325 839,357 839,352 839,351 839,344 839,367 840,354 840,362 840,341 840,370 840,360 840,332 840,332 840,328 840,328 840,290 841,286 841,284 841,309 841,306 841,327 841,308 841,332 841,340 841,336 841,328 842,346 842,317 842,333 842,330 842,349 842,322 842,313 842,308 842,305 842,325 843,314 843,303 843,292 843,278 843,268 843,284 843,270 843,248 843,260 843,265 843,260 844,295 844,290 844,265 844,286 844,325 844,306 844,321 844,317 844,300 844,308 845,343 845,319 845,351 845,316 845,325 845,301 845,297 845,325 845,273 845,259 846,214 846,230 846,249 846,251 846,236 846,257 846,249 846,278 846,270 846,235 846,265 847,301 847,265 847,259 847,271 847,289 847,270 847,265 847,263 847,273 847,251 848,236 848,252 848,219 848,221 848,230 848,221 848,222 848,187 848,192 848,197 849,206 849,228 849,267 849,252 849,289 849,309 849,327 849,314 849,301 849,297 849,294 850,321 850,286 850,279 850,246 850,265 850,241 850,214 850,203 850,211 850,198 851,144 851,143 851,97 851,87 851,143 851,179 851,219 851,262 851,243 851,273 852,257 852,265 852,262 852,289 852,284 852,286 852,290 852,286 852,301 852,279 852,252 853,221 853,205 853,155 853,75 853,82 853,9 853,38 853,-32 853,57 853,132 854,173 854,216 854,232 854,225 854,203 854,225 854,236 854,232 854,251 854,255 855,248 855,241 855,208 855,130 855,143 855,98 855,136 855,146 855,76 855,87 855,157 856,175 856,206 856,192 856,190 856,217 856,235 856,163 856,155 856,173 856,167 857,179 857,165 857,138 857,84 857,59 857,92 857,79 857,124 857,146 857,214 858,211 858,244 858,197 858,197 858,133 858,90 858,121 858,155 858,181 858,206 858,213 859,187 859,168 859,114 859,130 859,108 859,52 859,92 859,70 859,81 859,109 860,149 860,133 860,165 860,143 860,181 860,209 860,186 860,194 860,162 860,140 861,160 861,114 861,43 861,13 861,-56 861,16 861,1 861,21 861,49 861,144 861,184 862,170 862,201 862,186 862,121 862,101 862,135 862,159 862,130 862,127 862,178 863,116 863,81 863,71 863,30 863,-9 863,14 863,86 863,113 863,84 863,119 864,125 864,168 864,182 864,194 864,159 864,182 864,163 864,181 864,167 864,79 864,40 865,71 865,28 865,13 865,82 865,100 865,97 865,133 865,141 865,130 865,138 866,144 866,144 866,141 866,187 866,138 866,152 866,146 866,108 866,143 866,106 867,82 867,60 867,8 867,-5 867,44 867,82 867,133 867,143 867,190 867,232 867,209 868,163 868,144 868,184 868,124 868,111 868,82 868,103 868,95 868,106 868,52 869,43 869,127 869,148 869,114 869,167 869,176 869,190 869,171 869,157 869,170 870,132 870,89 870,57 870,-12 870,-1 870,0 870,63 870,105 870,178 870,178 870,152 871,208 871,173 871,175 871,119 871,138 871,103 871,121 871,143 871,125 871,160 872,154 872,132 872,86 872,95 872,187 872,179 872,167 872,146 872,116 872,98 873,98 873,135 873,119 873,159 873,105 873,159 873,163 873,114 873,157 873,149 873,133 874,151 874,149 874,155 874,108 874,98 874,167 874,157 874,138 874,151 874,176 875,241 875,259 875,228 875,201 875,182 875,171 875,167 875,143 875,92 875,122 876,124 876,135 876,98 876,148 876,105 876,81 876,173 876,197 876,214 876,214 876,273 877,278 877,286 877,260 877,281 877,282 877,263 877,249 877,246 877,236 877,176 878,173 878,179 878,113 878,49 878,59 878,60 878,95 878,113 878,163 878,230 879,235 879,260 879,273 879,308 879,338 879,319 879,314 879,294 879,292 879,276 879,263 880,238 880,213 880,184 880,178 880,106 880,84 880,30 880,73 880,195 880,221 881,259 881,279 881,235 881,227 881,228 881,254 881,236 881,268 881,268 881,260 882,275 882,214 882,217 882,189 882,200 882,233 882,206 882,221 882,243 882,246 882,257 883,294 883,305 883,300 883,295 883,281 883,306 883,298 883,290 883,262 883,254 884,238 884,232 884,203 884,225 884,259 884,263 884,303 884,305 884,301 884,286 885,273 885,267 885,240 885,257 885,268 885,257 885,268 885,270 885,241 885,227 885,233 886,262 886,303 886,268 886,254 886,240 886,268 886,267 886,268 886,316 886,309 887,324 887,313 887,346 887,305 887,333 887,328 887,319 887,343 887,354 887,360 888,346 888,338 888,306 888,311 888,306 888,290 888,295 888,268 888,279 888,260 888,243 889,262 889,238 889,251 889,263 889,276 889,289 889,317 889,301 889,319 889,336 890,348 890,375 890,365 890,365 890,362 890,368 890,381 890,362 890,363 890,355 891,327 891,306 891,333 891,314 891,301 891,271 891,301 891,275 891,244 891,262 891,240 892,275 892,286 892,287 892,317 892,362 892,348 892,357 892,362 892,373 892,375 893,359 893,387 893,387 893,367 893,365 893,365 893,359 893,343 893,324 893,328 894,317 894,343 894,338 894,351 894,338 894,336 894,313 894,303 894,330 894,327 894,328 895,324 895,332 895,325 895,341 895,336 895,332 895,309 895,303 895,311 895,284 896,314 896,325 896,338 896,343 896,376 896,378 896,381 896,389 896,394 896,387 897,387 897,370 897,386 897,375 897,359 897,371 897,390 897,363 897,367 897,360 897,351 898,328 898,357 898,352 898,346 898,330 898,321 898,367 898,327 898,322 898,328 899,348 899,303 899,298 899,298 899,301 899,282 899,314 899,368 899,352 899,341 900,346 900,384 900,379 900,371 900,398 900,381 900,398 900,397 900,400 900,376 900,376 901,367 901,363 901,335 901,362 901,346 901,352 901,324 901,290 901,294 901,305 902,324 902,351 902,360 902,333 902,346 902,332 902,352 902,341 902,332 902,346 903,343 903,359 903,360 903,370 903,384 903,382 903,381 903,390 903,370 903,376 903,378 904,359 904,371 904,373 904,368 904,335 904,359 904,346 904,360 904,344 904,357 905,325 905,340 905,316 905,355 905,362 905,368 905,371 905,365 905,375 905,348 906,336 906,349 906,336 906,355 906,340 906,351 906,336 906,355 906,346 906,349 906,362 907,340 907,352 907,316 907,313 907,324 907,294 907,328 907,332 907,330 907,324 908,341 908,354 908,368 908,365 908,379 908,400 908,406 908,382 908,381 908,389 909,378 909,382 909,373 909,394 909,382 909,346 909,352 909,336 909,321 909,324 909,338 910,324 910,325 910,322 910,308 910,333 910,292 910,290 910,324 910,332 910,336 911,328 911,327 911,341 911,382 911,371 911,381 911,390 911,375 911,357 911,371 912,378 912,371 912,371 912,373 912,390 912,371 912,376 912,365 912,365 912,363 912,340 913,336 913,352 913,328 913,330 913,336 913,340 913,314 913,325 913,330 913,343 914,322 914,306 914,343 914,325 914,317 914,327 914,316 914,328 914,344 914,359 915,341 915,321 915,338 915,349 915,367 915,351 915,346 915,343 915,335 915,328 915,321 916,322 916,319 916,309 916,344 916,335 916,311 916,340 916,336 916,324 916,332 917,316 917,328 917,370 917,357 917,349 917,344 917,340 917,316 917,335 917,367 918,325 918,336 918,324 918,324 918,325 918,314 918,322 918,349 918,328 918,301 918,295 919,309 919,300 919,300 919,273 919,259 919,275 919,278 919,278 919,284 919,281 920,308 920,303 920,328 920,338 920,316 920,344 920,335 920,335 920,335 920,336 921,338 921,324 921,336 921,300 921,289 921,292 921,289 921,297 921,305 921,308 922,278 922,281 922,278 922,257 922,222 922,222 922,208 922,213 922,240 922,292 922,289 923,311 923,290 923,300 923,267 923,301 923,292 923,275 923,306 923,292 923,301 924,303 924,324 924,313 924,324 924,297 924,290 924,289 924,292 924,279 924,216 925,271 925,228 925,227 925,230 925,211 925,222 925,236 925,224 925,241 925,243 925,222 926,268 926,254 926,219 926,236 926,248 926,244 926,224 926,249 926,251 926,257 927,255 927,254 927,262 927,259 927,240 927,243 927,243 927,240 927,262 927,232 928,273 928,192 928,197 928,209 928,197 928,182 928,140 928,165 928,192 928,192 928,205 929,176 929,211 929,246 929,228 929,252 929,255 929,235 929,222 929,189 929,152 930,179 930,200 930,189 930,186 930,171 930,187 930,213 930,228 930,233 930,236 931,200 931,206 931,230 931,230 931,194 931,170 931,194 931,190 931,216 931,214 931,214 932,228 932,184 932,154 932,149 932,151 932,178 932,189 932,152 932,151 932,179 933,170 933,154 933,144 933,160 933,141 933,154 933,190 933,163 933,221 933,225 934,217 934,186 934,146 934,173 934,163 934,127 934,125 934,101 934,79 934,55 934,57 935,44 935,67 935,138 935,135 935,136 935,203 935,251 935,267 935,230 935,187 936,209 936,216 936,181 936,157 936,128 936,127 936,63 936,49 936,49 936,24 937,101 937,116 937,124 937,94 937,171 937,230 937,211 937,186 937,152 937,176 937,168 938,190 938,114 938,101 938,103 938,54 938,40 938,43 938,133 938,133 938,155 939,186 939,163 939,184 939,171 939,170 939,108 939,105 939,78 939,55 939,22 940,21 940,14 940,62 940,94 940,144 940,200 940,240 940,254 940,236 940,214 940,233 941,173 941,173 941,86 941,63 941,65 941,17 941,-45 941,90 941,97 941,136 942,148 942,127 942,157 942,168 942,119 942,143 942,233 942,275 942,273 942,251 943,257 943,236 943,186 943,155 943,98 943,70 943,51 943,40 943,59 943,6 943,25 944,6 944,35 944,117 944,138 944,206 944,192 944,173 944,176 944,168 944,163 945,184 945,175 945,176 945,152 945,127 945,109 945,87 945,89 945,57 945,59 946,36 946,90 946,144 946,201 946,206 946,235 946,211 946,203 946,184 946,190 946,184 947,168 947,163 947,173 947,121 947,101 947,76 947,19 947,89 947,103 947,124 948,54 948,60 948,70 948,79 948,117 948,82 948,86 948,146 948,178 948,167 949,178 949,154 949,114 949,130 949,138 949,187 949,159 949,160 949,190 949,154 949,162 950,119 950,136 950,87 950,76 950,141 950,119 950,176 950,213 950,228 950,297 951,244 951,246 951,235 951,241 951,168 951,143 951,144 951,130 951,49 951,44 952,24 952,103 952,127 952,136 952,165 952,167 952,189 952,171 952,186 952,230 952,241 953,255 953,224 953,213 953,268 953,260 953,248 953,175 953,201 953,136 953,143 954,111 954,87 954,90 954,90 954,136 954,187 954,182 954,233 954,240 954,238 955,263 955,260 955,219 955,222 955,257 955,233 955,249 955,217 955,178 955,141 955,97 956,182 956,179 956,175 956,175 956,176 956,233 956,252 956,206 956,209 956,206 957,230 957,248 957,254 957,238 957,235 957,217 957,213 957,209 957,168 957,176 958,157 958,186 958,211 958,178 958,214 958,254 958,276 958,300 958,292 958,303 958,297 959,260 959,268 959,271 959,257 959,260 959,248 959,251 959,251 959,263 959,267 960,216 960,203 960,238 960,246 960,267 960,294 960,286 960,290 960,284 960,273 961,255 961,249 961,290 961,284 961,303 961,290 961,249 961,246 961,254 961,281 961,294 962,275 962,260 962,289 962,267 962,275 962,251 962,241 962,236 962,241 962,271 963,233 963,255 963,276 963,313 963,330 963,311 963,319 963,316 963,309 963,292 964,305 964,270 964,308 964,298 964,311 964,290 964,281 964,276 964,271 964,289 964,294 965,306 965,303 965,314 965,328 965,311 965,354 965,362 965,348 965,341 965,357 966,325 966,319 966,298 966,278 966,282 966,279 966,284 966,292 966,259 966,265 967,241 967,225 967,255 967,294 967,327 967,352 967,348 967,368 967,362 967,367 967,390 968,368 968,351 968,378 968,362 968,354 968,336 968,338 968,332 968,335 968,327 969,338 969,325 969,324 969,319 969,305 969,317 969,308 969,284 969,268 969,292 970,290 970,278 970,284 970,301 970,300 970,321 970,314 970,300 970,314 970,328 970,309 971,390 971,355 971,365 971,349 971,368 971,392 971,381 971,371 971,392 971,386 972,378 972,384 972,401 972,375 972,370 972,395 972,363 972,354 972,343 972,338 973,362 973,340 973,343 973,292 973,295 973,300 973,263 973,284 973,282 973,300 973,301 974,305 974,311 974,344 974,348 974,349 974,348 974,398 974,370 974,375 974,394 975,375 975,390 975,403 975,400 975,394 975,394 975,413 975,389 975,406 975,421 976,392 976,417 976,406 976,411 976,400 976,389 976,394 976,371 976,376 976,373 976,362 977,362 977,348 977,336 977,346 977,314 977,300 977,292 977,286 977,273 977,259 978,273 978,292 978,279 978,290 978,319 978,294 978,298 978,336 978,348 978,355 979,340 979,368 979,367 979,368 979,387 979,390 979,379 979,395 979,406 979,403 979,421 980,413 980,397 980,403 980,401 980,382 980,381 980,382 980,378 980,368 980,352 981,365 981,362 981,325 981,297 981,306 981,276 981,284 981,287 981,321 981,289 982,273 982,284 982,259 982,294 982,324 982,306 982,355 982,365 982,371 982,365 982,378 983,386 983,398 983,401 983,406 983,394 983,414 983,408 983,413 983,416 983,416 984,406 984,414 984,421 984,411 984,395 984,398 984,389 984,401 984,387 984,368 985,343 985,352 985,354 985,352 985,325 985,322 985,321 985,267 985,249 985,260 985,284 986,275 986,295 986,292 986,292 986,336 986,348 986,321 986,338 986,346 986,328 987,336 987,340 987,348 987,348 987,351 987,375 987,348 987,357 987,348 987,359 988,373 988,370 988,382 988,382 988,401 988,387 988,384 988,386 988,378 988,398 988,398 989,386 989,384 989,376 989,379 989,382 989,405 989,403 989,390 989,403 989,392 990,405 990,397 990,386 990,389 990,382 990,363 990,338 990,346 990,343 990,338 991,322 991,313 991,308 991,278 991,282 991,252 991,217 991,241 991,233 991,222 991,241 992,248 992,260 992,300 992,327 992,327 992,330 992,349 992,354 992,362 992,348 993,362 993,344 993,348 993,336 993,360 993,357 993,365 993,335 993,338 993,346 994,351 994,346 994,317 994,308 994,325 994,305 994,327 994,316 994,292 994,298 994,338 995,309 995,294 995,343 995,313 995,333 995,308 995,306 995,322 995,336 995,354 996,355 996,351 996,368 996,354 996,343 996,333 996,305 996,311 996,289 996,267 997,238 997,249 997,257 997,255 997,248 997,246 997,254 997,287 997,273 997,248 998,282 998,297 998,319 998,330 998,340 998,349 998,343 998,365 998,348 998,349 998,349 999,327 999,348 999,357 999,340 999,327 999,298 999,282 999,289 999,279 999,248 1000,246 1000,248 1000,219 1000,201 1000,208 1000,208 1000,216 1000,268 1000,267 1000,255 1001,241 1001,246 1001,268 1001,259 1001,278 1001,275 1001,246 1001,238 1001,244 1001,281 1001,265 1002,248 1002,243 1002,270 1002,290 1002,292 1002,282 1002,273 1002,286 1002,297 1002,301 1003,297 1003,271 1003,249 1003,217 1003,205 1003,233 1003,265 1003,251 1003,222 1003,244 1004,254 1004,263 1004,219 1004,198 1004,197 1004,201 1004,181 1004,195 1004,198 1004,216 1004,265 1005,241 1005,235 1005,240 1005,257 1005,265 1005,276 1005,246 1005,254 1005,244 1005,262 1006,270 1006,284 1006,303 1006,290 1006,246 1006,225 1006,214 1006,176 1006,189 1006,151 1007,100 1007,90 1007,95 1007,101 1007,55 1007,135 1007,227 1007,243 1007,224 1007,243 1007,262 1008,276 1008,292 1008,271 1008,254 1008,241 1008,235 1008,244 1008,243 1008,236 1008,243 1009,246 1009,222 1009,206 1009,152 1009,124 1009,143 1009,127 1009,127 1009,128 1009,76 1010,41 1010,68 1010,103 1010,119 1010,181 1010,201 1010,198 1010,197 1010,227 1010,222 1010,189 1011,186 1011,182 1011,189 1011,187 1011,163 1011,127 1011,127 1011,144 1011,136 1011,168 1012,109 1012,149 1012,154 1012,171 1012,249 1012,138 1012,151 1012,178 1012,230 1012,189 1013,246 1013,233 1013,216 1013,168 1013,152 1013,116 1013,138 1013,124 1013,84 1013,97 1013,103 1014,94 1014,114 1014,135 1014,148 1014,116 1014,155 1014,149 1014,121 1014,144 1014,198 1015,224 1015,238 1015,208 1015,162 1015,133 1015,108 1015,176 1015,135 1015,163 1015,176 1016,175 1016,117 1016,54 1016,54 1016,49 1016,70 1016,90 1016,67 1016,128 1016,62 1016,90 1017,108 1017,132 1017,162 1017,144 1017,175 1017,205 1017,160 1017,209 1017,167 1017,173 1018,125 1018,68 1018,54 1018,114 1018,67 1018,94 1018,86 1018,103 1018,132 1018,162 1019,201 1019,186 1019,155 1019,194 1019,184 1019,175 1019,175 1019,184 1019,203 1019,179 1019,182 1020,163 1020,114 1020,144 1020,127 1020,136 1020,106 1020,113 1020,146 1020,117 1020,168 1021,159 1021,154 1021,106 1021,105 1021,165 1021,148 1021,105 1021,75 1021,55 1021,70 1022,78 1022,51 1022,89 1022,132 1022,178 1022,162 1022,140 1022,168 1022,198 1022,160 1022,187 1023,162 1023,155 1023,195 1023,200 1023,184 1023,162 1023,116 1023,124 1023,103 1023,52 1024,44 1024,-2 1024,73 1024,113 1024,90 1024,124 1024,178 1024,190 1024,182 1024,178 1025,167 1025,108 1025,121 1025,111 1025,95 1025,57 1025,71 1025,79 1025,105 1025,119 1025,109 1026,159 1026,171 1026,143 1026,157 1026,167 1026,179 1026,184 1026,221 1026,208 1026,216 1027,211 1027,186 1027,103 1027,70 1027,54 1027,71 1027,98 1027,157 1027,154 1027,154 1028,140 1028,122 1028,108 1028,197 1028,214 1028,254 1028,236 1028,216 1028,190 1028,184 1028,141 1029,152 1029,98 1029,122 1029,122 1029,152 1029,170 1029,173 1029,182 1029,221 1029,228 1030,194 1030,144 1030,175 1030,149 1030,179 1030,198 1030,170 1030,175 1030,154 1030,171 1031,155 1031,149 1031,192 1031,165 1031,173 1031,136 1031,178 1031,233 1031,189 1031,219 1031,255 1032,265 1032,236 1032,222 1032,205 1032,194 1032,184 1032,171 1032,155 1032,173 1032,206 1033,213 1033,213 1033,187 1033,194 1033,194 1033,208 1033,224 1033,211 1033,213 1033,244 1034,262 1034,224 1034,238 1034,222 1034,203 1034,233 1034,200 1034,148 1034,190 1034,222 1034,221 1035,235 1035,255 1035,257 1035,270 1035,257 1035,238 1035,232 1035,240 1035,197 1035,152 1036,171 1036,222 1036,259 1036,263 1036,267 1036,251 1036,281 1036,268 1036,265 1036,232 1037,232 1037,246 1037,248 1037,214 1037,251 1037,248 1037,254 1037,257 1037,267 1037,243 1037,254 1038,275 1038,260 1038,201 1038,244 1038,221 1038,262 1038,265 1038,292 1038,271 1038,271 1039,262 1039,232 1039,228 1039,232 1039,241 1039,267 1039,275 1039,298 1039,313 1039,332 1040,327 1040,332 1040,316 1040,319 1040,333 1040,344 1040,355 1040,341 1040,355 1040,348 1040,362 1041,394 1041,387 1041,390 1041,382 1041,365 1041,349 1041,317 1041,341 1041,328 1041,286 1042,267 1042,248 1042,238 1042,203 1042,173 1042,148 1042,186 1042,170 1042,149 1042,175 1043,211 1043,278 1043,317 1043,311 1043,316 1043,341 1043,311 1043,325 1043,343 1043,309 1043,355 1044,346 1044,343 1044,327 1044,348 1044,363 1044,357 1044,379 1044,371 1044,363 1044,392 1045,365 1045,378 1045,367 1045,360 1045,362 1045,363 1045,349 1045,348 1045,344 1045,335 1046,324 1046,319 1046,311 1046,287 1046,286 1046,255 1046,267 1046,289 1046,273 1046,282 1046,317 1047,290 1047,284 1047,300 1047,300 1047,286 1047,271 1047,270 1047,276 1047,271 1047,294 1048,313 1048,346 1048,322 1048,333 1048,363 1048,355 1048,362 1048,370 1048,344 1048,355 1049,376 1049,381 1049,401 1049,413 1049,416 1049,408 1049,425 1049,425 1049,421 1049,438 1049,435 1050,419 1050,435 1050,428 1050,413 1050,424 1050,417 1050,405 1050,394 1050,413 1050,398 1051,389 1051,381 1051,360 1051,348 1051,338 1051,340 1051,300 1051,260 1051,246 1051,252 1052,206 1052,189 1052,127 1052,189 1052,221 1052,244 1052,271 1052,287 1052,319 1052,373 1052,382 1053,408 1053,403 1053,406 1053,413 1053,414 1053,414 1053,419 1053,408 1053,405 1053,390 1054,400 1054,390 1054,394 1054,397 1054,395 1054,370 1054,371 1054,355 1054,330 1054,333 1055,344 1055,290 1055,316 1055,321 1055,305 1055,290 1055,281 1055,300 1055,286 1055,271 1055,294 1056,308 1056,333 1056,327 1056,338 1056,349 1056,355 1056,367 1056,370 1056,371 1056,378 1057,394 1057,375 1057,397 1057,408 1057,386 1057,400 1057,395 1057,387 1057,381 1057,394 1058,367 1058,365 1058,354 1058,363 1058,355 1058,338 1058,354 1058,355 1058,362 1058,344 1058,335 1059,349 1059,338 1059,313 1059,321 1059,300 1059,297 1059,297 1059,290 1059,308 1059,306 1060,308 1060,319 1060,330 1060,344 1060,357 1060,351 1060,355 1060,368 1060,382 1060,355 1061,365 1061,386 1061,382 1061,384 1061,373 1061,384 1061,386 1061,376 1061,381 1061,367 1061,390 1062,386 1062,405 1062,386 1062,390 1062,394 1062,376 1062,379 1062,386 1062,363 1062,367 1063,376 1063,352 1063,359 1063,330 1063,344 1063,349 1063,340 1063,311 1063,313 1063,308 1064,314 1064,305 1064,325 1064,322 1064,317 1064,328 1064,346 1064,330 1064,341 1064,352 1064,352 1065,346 1065,349 1065,351 1065,381 1065,351 1065,336 1065,362 1065,373 1065,365 1065,373 1066,382 1066,375 1066,398 1066,390 1066,397 1066,392 1066,411 1066,392 1066,386 1066,384 1067,371 1067,355 1067,365 1067,316 1067,308 1067,298 1067,275 1067,279 1067,279 1067,281 1067,309 1068,343 1068,317 1068,336 1068,314 1068,322 1068,327 1068,349 1068,322 1068,349 1068,349 1069,368 1069,349 1069,363 1069,332 1069,355 1069,325 1069,335 1069,335 1069,317 1069,332 1070,305 1070,279 1070,286 1070,284 1070,322 1070,301 1070,319 1070,330 1070,348 1070,338 1070,344 1071,349 1071,352 1071,348 1071,348 1071,360 1071,348 1071,348 1071,362 1071,327 1071,328 1072,341 1072,311 1072,311 1072,290 1072,298 1072,313 1072,313 1072,286 1072,290 1072,281 1073,281 1073,265 1073,306 1073,303 1073,311 1073,314 1073,340 1073,341 1073,336 1073,322 1074,306 1074,301 1074,321 1074,330 1074,292 1074,286 1074,294 1074,300 1074,284 1074,286 1074,284 1075,260 1075,301 1075,286 1075,284 1075,289 1075,306 1075,335 1075,295 1075,308 1075,300 1076,297 1076,300 1076,294 1076,321 1076,328 1076,316 1076,319 1076,314 1076,287 1076,301 1077,284 1077,286 1077,265 1077,259 1077,244 1077,211 1077,219 1077,182 1077,225 1077,214 1077,248 1078,263 1078,275 1078,330 1078,354 1078,340 1078,321 1078,314 1078,314 1078,324 1078,298 1079,284 1079,252 1079,230 1079,203 1079,154 1079,194 1079,151 1079,198 1079,208 1079,213 1080,236 1080,222 1080,254 1080,267 1080,306 1080,314 1080,327 1080,309 1080,305 1080,265 1080,276 1081,255 1081,243 1081,263 1081,263 1081,241 1081,232 1081,249 1081,243 1081,236 1081,206 1082,219 1082,230 1082,224 1082,198 1082,205 1082,198 1082,235 1082,187 1082,197 1082,168 1083,216 1083,190 1083,186 1083,192 1083,195 1083,216 1083,205 1083,262 1083,270 1083,279 1083,278 1084,233 1084,213 1084,205 1084,175 1084,128 1084,76 1084,157 1084,170 1084,225 1084,219 1085,268 1085,301 1085,327 1085,335 1085,351 1085,336 1085,321 1085,295 1085,287 1085,263 1086,227 1086,176 1086,119 1086,73 1086,54 1086,-37 1086,-45 1086,-12 1086,-12 1086,57 1086,57 1087,98 1087,159 1087,224 1087,268 1087,275 1087,303 1087,314 1087,294 1087,298 1087,300 1088,268 1088,230 1088,189 1088,213 1088,171 1088,140 1088,55 1088,35 1088,21 1088,-12 1089,-4 1089,67 1089,75 1089,68 1089,140 1089,179 1089,178 1089,173 1089,257 1089,289 1089,306 1090,298 1090,316 1090,290 1090,267 1090,227 1090,235 1090,175 1090,138 1090,119 1090,54 1091,-1 1091,-94 1091,-134 1091,-166 1091,-101 1091,-45 1091,73 1091,138 1091,152 1091,181 1092,157 1092,201 1092,205 1092,217 1092,205 1092,171 1092,138 1092,92 1092,140 1092,154 1092,119 1093,168 1093,165 1093,124 1093,133 1093,121 1093,94 1093,95 1093,135 1093,127 1093,125 1094,109 1094,143 1094,97 1094,81 1094,71 1094,109 1094,143 1094,121 1094,116 1094,167 1095,111 1095,160 1095,136 1095,155 1095,167 1095,159 1095,141 1095,63 1095,101 1095,97 1095,82 1096,113 1096,119 1096,136 1096,108 1096,148 1096,133 1096,167 1096,167 1096,195 1096,140 1097,192 1097,162 1097,128 1097,128 1097,138 1097,73 1097,97 1097,117 1097,35 1097,40 1098,63 1098,68 1098,103 1098,141 1098,192 1098,240 1098,230 1098,219 1098,219 1098,244 1098,219 1099,167 1099,163 1099,160 1099,152 1099,124 1099,43 1099,48 1099,51 1099,36 1099,-5 1100,25 1100,-20 1100,13 1100,38 1100,122 1100,106 1100,186 1100,200 1100,233 1100,221 1101,252 1101,222 1101,206 1101,173 1101,121 1101,67 1101,75 1101,46 1101,52 1101,71 1101,24 1102,68 1102,144 1102,128 1102,168 1102,194 1102,208 1102,151 1102,152 1102,149 1102,163 1103,206 1103,198 1103,192 1103,190 1103,195 1103,209 1103,200 1103,168 1103,160 1103,109 1104,138 1104,98 1104,89 1104,82 1104,55 1104,54 1104,89 1104,108 1104,140 1104,162 1104,170 1105,170 1105,168 1105,173 1105,184 1105,200 1105,170 1105,187 1105,171 1105,206 1105,233 1106,235 1106,235 1106,221 1106,208 1106,146 1106,130 1106,144 1106,68 1106,17 1106,11 1107,81 1107,163 1107,216 1107,294 1107,325 1107,321 1107,316 1107,303 1107,308 1107,282 1107,246 1108,228 1108,214 1108,189 1108,141 1108,68 1108,11 1108,19 1108,11 1108,32 1108,86 1109,144 1109,187 1109,230 1109,244 1109,265 1109,271 1109,275 1109,270 1109,251 1109,252 1110,243 1110,246 1110,262 1110,249 1110,192 1110,189 1110,198 1110,179 1110,189 1110,122 1110,175 1111,149 1111,151 1111,176 1111,195 1111,179 1111,195 1111,235 1111,263 1111,251 1111,268 1112,276 1112,281 1112,270 1112,240 1112,241 1112,255 1112,246 1112,228 1112,206 1112,222 1113,182 1113,201 1113,175 1113,167 1113,160 1113,227 1113,235 1113,279 1113,286 1113,286 1113,292 1114,311 1114,300 1114,317 1114,319 1114,322 1114,317 1114,311 1114,313 1114,308 1114,268 1115,275 1115,236 1115,262 1115,235 1115,246 1115,216 1115,206 1115,240 1115,230 1115,225 1116,230 1116,248 1116,235 1116,263 1116,282 1116,270 1116,286 1116,284 1116,313 1116,330 1116,241 1117,282 1117,301 1117,324 1117,328 1117,300 1117,311 1117,308 1117,297 1117,282 1117,252 1118,246 1118,244 1118,268 1118,249 1118,255 1118,267 1118,292 1118,276 1118,319 1118,306 1119,306 1119,282 1119,303 1119,290 1119,294 1119,287 1119,267 1119,255 1119,235 1119,251 1119,281 1120,313 1120,295 1120,290 1120,303 1120,303 1120,328 1120,335 1120,309 1120,300 1120,295 1121,317 1121,311 1121,303 1121,303 1121,303 1121,306 1121,332 1121,359 1121,346 1121,355 1122,354 1122,375 1122,357 1122,354 1122,341 1122,351 1122,344 1122,343 1122,355 1122,330 1122,330 1123,336 1123,319 1123,333 1123,311 1123,292 1123,281 1123,271 1123,275 1123,263 1123,254 1124,286 1124,284 1124,306 1124,313 1124,314 1124,305 1124,311 1124,314 1124,313 1124,327 1125,338 1125,346 1125,365 1125,368 1125,370 1125,330 1125,343 1125,355 1125,375 1125,351 1125,387 1126,371 1126,362 1126,365 1126,375 1126,378 1126,387 1126,370 1126,371 1126,376 1126,381 1127,373 1127,352 1127,363 1127,346 1127,368 1127,351 1127,330 1127,346 1127,336 1127,327 1128,333 1128,338 1128,327 1128,341 1128,330 1128,309 1128,328 1128,328 1128,341 1128,355 1128,367 1129,363 1129,348 1129,360 1129,403 1129,371 1129,371 1129,371 1129,376 1129,359 1129,340 1130,371 1130,362 1130,360 1130,340 1130,351 1130,335 1130,343 1130,336 1130,332 1130,328 1131,305 1131,317 1131,340 1131,349 1131,354 1131,354 1131,348 1131,381 1131,390 1131,371 1131,370 1132,363 1132,363 1132,394 1132,368 1132,355 1132,357 1132,338 1132,354 1132,357 1132,351 1133,351 1133,357 1133,333 1133,341 1133,324 1133,309 1133,297 1133,306 1133,317 1133,332 1134,335 1134,309 1134,352 1134,338 1134,355 1134,343 1134,332 1134,338 1134,357 1134,363 1134,359 1135,365 1135,365 1135,376 1135,359 1135,389 1135,368 1135,355 1135,333 1135,355 1135,343 1136,322 1136,321 1136,341 1136,346 1136,352 1136,340 1136,365 1136,357 1136,368 1136,352 1137,343 1137,338 1137,354 1137,327 1137,348 1137,327 1137,313 1137,360 1137,328 1137,330 1137,335 1138,327 1138,325 1138,327 1138,333 1138,322 1138,311 1138,344 1138,328 1138,335 1138,309 1139,341 1139,367 1139,349 1139,379 1139,386 1139,395 1139,389 1139,392 1139,406 1139,400 1140,401 1140,394 1140,400 1140,365 1140,371 1140,378 1140,346 1140,341 1140,330 1140,330 1140,322 1141,328 1141,349 1141,328 1141,336 1141,381 1141,354 1141,330 1141,343 1141,338 1141,379 1142,355 1142,351 1142,348 1142,379 1142,367 1142,362 1142,370 1142,362 1142,368 1142,360 1143,363 1143,392 1143,370 1143,360 1143,363 1143,370 1143,365 1143,322 1143,346 1143,335 1143,313 1144,311 1144,303 1144,303 1144,308 1144,311 1144,313 1144,292 1144,332 1144,324 1144,332 1145,336 1145,325 1145,319 1145,336 1145,332 1145,359 1145,359 1145,368 1145,359 1145,344 1146,357 1146,373 1146,363 1146,390 1146,371 1146,387 1146,378 1146,378 1146,370 1146,371 1146,371 1147,357 1147,346 1147,317 1147,303 1147,309 1147,313 1147,263 1147,257 1147,254 1147,270 1148,219 1148,241 1148,267 1148,295 1148,287 1148,260 1148,294 1148,327 1148,317 1148,335 1149,346 1149,379 1149,398 1149,413 1149,408 1149,403 1149,419 1149,411 1149,406 1149,392 1150,386 " style="fill:none;stroke:#0000FF;stroke-width:3;stroke-linejoin:bevel" /><line x1="150" y1="75" x2="150" y2="475" style="stroke:black;stroke-width:2"/>
<line x1="150" y1="475" x2="1400" y2="475" style="stroke:black;stroke-width:2"/>
<text x="450.000000" y="25">Interactions_over_time</text>
<text x="10" y="275.000000">Interactions</text>
<text x="600.000000" y="515.000000">Time</text>
<text x="100.000000" y="475.000000">0.000</text>
<text x="100.000000" y="417.857147">36.00</text>
<text x="100.000000" y="360.714294">72.00</text>
<text x="100.000000" y="303.571411">108.0</text>
<text x="100.000000" y="246.428574">144.0</text>
<text x="100.000000" y="189.285706">180.0</text>
<text x="100.000000" y="132.142853">216.0</text>
<text x="100.000000" y="75.000000">252.0</text>
<text x="150.000000" y="490.000000">0.000</text>
<text x="350.000000" y="490.000000">4055.</text>
<text x="550.000000" y="490.000000">8110.</text>
<text x="750.000000" y="490.000000">12165</text>
<text x="950.000000" y="490.000000">16220</text>
<text x="1150.000000" y="490.000000">20275</text>
</svg>
