<?xml version="1.0" standalone="no"?>
<!DOCTYPE svg PUBLIC "-//W3C//DTD SVG 1.1//EN"
"http://www.w3.org/Graphics/SVG/1.1/DTD/svg11.dtd">
<svg width="1250.000000" height="550.000000"
xmlns="http://www.w3.org/2000/svg">
<polyline points="150,471 165,465 181,464 197,324 213,334 229,372 245,232 261,433 276,415 292,388 308,470 324,378 340,433 356,343 372,472 388,318 403,419 419,442 435,436 451,335 467,324 483,359 499,447 515,466 530,279 546,401 562,303 578,337 594,341 610,210 626,186 642,372 657,453 673,364 689,189 705,439 721,421 737,465 753,74 769,461 784,250 800,94 816,407 832,403 848,467 864,401 880,393 896,327 911,357 927,472 943,381 959,430 975,466 991,437 1007,266 1023,428 1038,397 1054,434 1070,465 1086,463 1102,461 1118,459 1134,311 1150,463 " style="fill:none;stroke:#0000FF;stroke-width:3;stroke-linejoin:bevel" /><line x1="150" y1="75" x2="150" y2="475" style="stroke:black;stroke-width:2"/>
<line x1="150" y1="475" x2="1400" y2="475" style="stroke:black;stroke-width:2"/>
<text x="450.000000" y="25">Nb_d_interactions</text>
<text x="10" y="275.000000">Interactions</text>
<text x="600.000000" y="515.000000">Temps</text>
<text x="100.000000" y="475.000000">0.000</text>
<text x="100.000000" y="417.857147">100.0</text>
<text x="100.000000" y="360.714264">200.0</text>
<text x="100.000000" y="303.571411">300.0</text>
<text x="100.000000" y="246.428543">400.0</text>
<text x="100.000000" y="189.285706">500.0</text>
<text x="100.000000" y="132.142853">600.0</text>
<text x="100.000000" y="74.999969">700.0</text>
<text x="150.000000" y="490.000000">0.000</text>
<text x="350.000000" y="490.000000">30.40</text>
<text x="550.000000" y="490.000000">60.79</text>
<text x="750.000000" y="490.000000">91.20</text>
<text x="950.000000" y="490.000000">121.5</text>
<text x="1150.000000" y="490.000000">152.0</text>
</svg>
