<?xml version="1.0" standalone="no"?>
<!DOCTYPE svg PUBLIC "-//W3C//DTD SVG 1.1//EN"
"http://www.w3.org/Graphics/SVG/1.1/DTD/svg11.dtd">
<svg width="1250.000000" height="550.000000"
xmlns="http://www.w3.org/2000/svg">
<polyline points="150,475 226,475 303,475 380,475 457,475 534,475 611,475 688,475 765,475 842,475 919,475 996,475 1073,475 1150,475 " style="fill:none;stroke:#0000FF;stroke-width:3;stroke-linejoin:bevel" /><line x1="150" y1="75" x2="150" y2="475" style="stroke:black;stroke-width:2"/>
<line x1="150" y1="475" x2="1400" y2="475" style="stroke:black;stroke-width:2"/>
<text x="450.000000" y="25">Nb_d_interactions</text>
<text x="10" y="275.000000">Interactions</text>
<text x="600.000000" y="515.000000">Temps</text>
<text x="100.000000" y="475.000000">0.000</text>
<text x="100.000000" y="417.857147">0.142</text>
<text x="100.000000" y="360.714294">0.285</text>
<text x="100.000000" y="303.571411">0.428</text>
<text x="100.000000" y="246.428558">0.571</text>
<text x="100.000000" y="189.285706">0.714</text>
<text x="100.000000" y="132.142853">0.857</text>
<text x="100.000000" y="75.000000">1.000</text>
<text x="150.000000" y="490.000000">0.000</text>
<text x="350.000000" y="490.000000">2800.</text>
<text x="550.000000" y="490.000000">5600.</text>
<text x="750.000000" y="490.000000">8400.</text>
<text x="950.000000" y="490.000000">11200</text>
<text x="1150.000000" y="490.000000">14000</text>
</svg>
