<?xml version="1.0" standalone="no"?>
<!DOCTYPE svg PUBLIC "-//W3C//DTD SVG 1.1//EN"
"http://www.w3.org/Graphics/SVG/1.1/DTD/svg11.dtd">
<svg width="1250.000000" height="550.000000"
xmlns="http://www.w3.org/2000/svg">
<polyline points="150,462 193,475 236,460 280,270 323,227 367,205 410,186 454,140 497,163 541,110 584,122 628,122 671,86 715,121 758,121 802,142 845,104 889,103 932,93 976,91 1019,91 1063,121 1106,101 1150,75 " style="fill:none;stroke:#0000FF;stroke-width:3;stroke-linejoin:bevel" /><line x1="150" y1="75" x2="150" y2="475" style="stroke:black;stroke-width:2"/>
<line x1="150" y1="475" x2="1400" y2="475" style="stroke:black;stroke-width:2"/>
<text x="450.000000" y="25">Nb_d_interactions</text>
<text x="10" y="275.000000">Interactions</text>
<text x="600.000000" y="515.000000">Temps</text>
<text x="100.000000" y="475.000000">0.000</text>
<text x="100.000000" y="417.857147">60.00</text>
<text x="100.000000" y="360.714294">120.0</text>
<text x="100.000000" y="303.571411">180.0</text>
<text x="100.000000" y="246.428558">240.0</text>
<text x="100.000000" y="189.285706">300.0</text>
<text x="100.000000" y="132.142853">360.0</text>
<text x="100.000000" y="75.000000">420.0</text>
<text x="150.000000" y="490.000000">0.000</text>
<text x="350.000000" y="490.000000">4800.</text>
<text x="550.000000" y="490.000000">9600.</text>
<text x="750.000000" y="490.000000">14400</text>
<text x="950.000000" y="490.000000">19200</text>
<text x="1150.000000" y="490.000000">24000</text>
</svg>
