<?xml version="1.0" standalone="no"?>
<!DOCTYPE svg PUBLIC "-//W3C//DTD SVG 1.1//EN"
"http://www.w3.org/Graphics/SVG/1.1/DTD/svg11.dtd">
<svg width="1250.000000" height="550.000000"
xmlns="http://www.w3.org/2000/svg">
<polyline points="150,312 183,427 216,312 250,381 283,321 316,204 350,438 383,285 416,350 450,246 483,396 516,438 550,354 583,328 616,303 650,407 683,383 716,75 750,354 783,365 816,431 850,418 883,365 916,219 950,168 983,332 1016,387 1050,453 1083,208 1116,411 1150,447 " style="fill:none;stroke:#0000FF;stroke-width:3;stroke-linejoin:bevel" /><line x1="150" y1="75" x2="150" y2="475" style="stroke:black;stroke-width:2"/>
<line x1="150" y1="475" x2="1400" y2="475" style="stroke:black;stroke-width:2"/>
<text x="450.000000" y="25">Nb_d_interactions</text>
<text x="10" y="275.000000">Interactions</text>
<text x="600.000000" y="515.000000">Temps</text>
<text x="100.000000" y="475.000000">0.000</text>
<text x="100.000000" y="417.857147">31.28</text>
<text x="100.000000" y="360.714294">62.57</text>
<text x="100.000000" y="303.571411">93.85</text>
<text x="100.000000" y="246.428574">125.1</text>
<text x="100.000000" y="189.285706">156.4</text>
<text x="100.000000" y="132.142853">187.7</text>
<text x="100.000000" y="75.000000">219.0</text>
<text x="150.000000" y="490.000000">0.000</text>
<text x="350.000000" y="490.000000">4.800</text>
<text x="550.000000" y="490.000000">9.600</text>
<text x="750.000000" y="490.000000">14.40</text>
<text x="950.000000" y="490.000000">19.20</text>
<text x="1150.000000" y="490.000000">24.00</text>
</svg>
