<?xml version="1.0" standalone="no"?>
<!DOCTYPE svg PUBLIC "-//W3C//DTD SVG 1.1//EN"
"http://www.w3.org/Graphics/SVG/1.1/DTD/svg11.dtd">
<svg width="1250.000000" height="550.000000"
xmlns="http://www.w3.org/2000/svg">
<polyline points="150,75 261,81 372,96 483,240 594,248 705,252 816,259 927,311 1038,315 1150,321 " style="fill:none;stroke:#0000FF;stroke-width:3;stroke-linejoin:bevel" /><line x1="150" y1="75" x2="150" y2="475" style="stroke:black;stroke-width:2"/>
<line x1="150" y1="475" x2="1400" y2="475" style="stroke:black;stroke-width:2"/>
<text x="450.000000" y="25">Population_over_time</text>
<text x="10" y="275.000000">Population</text>
<text x="600.000000" y="515.000000">Time</text>
<text x="100.000000" y="475.000000">0.000</text>
<text x="100.000000" y="417.857147">99.14</text>
<text x="100.000000" y="360.714294">198.2</text>
<text x="100.000000" y="303.571411">297.4</text>
<text x="100.000000" y="246.428574">396.5</text>
<text x="100.000000" y="189.285706">495.7</text>
<text x="100.000000" y="132.142853">594.8</text>
<text x="100.000000" y="75.000000">694.0</text>
<text x="150.000000" y="490.000000">0.000</text>
<text x="350.000000" y="490.000000">3.400</text>
<text x="550.000000" y="490.000000">6.800</text>
<text x="750.000000" y="490.000000">10.20</text>
<text x="950.000000" y="490.000000">13.60</text>
<text x="1150.000000" y="490.000000">17.00</text>
</svg>
