<?xml version="1.0" standalone="no"?>
<!DOCTYPE svg PUBLIC "-//W3C//DTD SVG 1.1//EN"
"http://www.w3.org/Graphics/SVG/1.1/DTD/svg11.dtd">
<svg width="1250.000000" height="550.000000"
xmlns="http://www.w3.org/2000/svg">
<polyline points="150,75 183,76 216,80 250,84 283,87 316,95 350,95 383,215 416,219 450,222 483,225 516,225 550,229 583,229 616,272 650,275 683,277 716,283 750,286 783,286 816,287 850,290 883,291 916,312 950,319 983,321 1016,321 1050,321 1083,327 1116,327 1150,327 " style="fill:none;stroke:#0000FF;stroke-width:3;stroke-linejoin:bevel" /><line x1="150" y1="75" x2="150" y2="475" style="stroke:black;stroke-width:2"/>
<line x1="150" y1="475" x2="1400" y2="475" style="stroke:black;stroke-width:2"/>
<text x="450.000000" y="25">Population_globale</text>
<text x="10" y="275.000000">Population</text>
<text x="600.000000" y="515.000000">Temps</text>
<text x="100.000000" y="475.000000">0.000</text>
<text x="100.000000" y="417.857147">98.28</text>
<text x="100.000000" y="360.714294">196.5</text>
<text x="100.000000" y="303.571411">294.8</text>
<text x="100.000000" y="246.428558">393.1</text>
<text x="100.000000" y="189.285706">491.4</text>
<text x="100.000000" y="132.142853">589.7</text>
<text x="100.000000" y="75.000000">688.0</text>
<text x="150.000000" y="490.000000">0.000</text>
<text x="350.000000" y="490.000000">4.800</text>
<text x="550.000000" y="490.000000">9.600</text>
<text x="750.000000" y="490.000000">14.40</text>
<text x="950.000000" y="490.000000">19.20</text>
<text x="1150.000000" y="490.000000">24.00</text>
</svg>
