<?xml version="1.0" standalone="no"?>
<!DOCTYPE svg PUBLIC "-//W3C//DTD SVG 1.1//EN"
"http://www.w3.org/Graphics/SVG/1.1/DTD/svg11.dtd">
<svg width="1250.000000" height="550.000000"
xmlns="http://www.w3.org/2000/svg">
<polyline points="150,74 165,76 181,81 197,104 213,240 229,252 245,331 261,332 276,357 292,363 308,363 324,365 340,365 356,370 372,370 388,371 403,369 419,372 435,374 451,374 467,377 483,381 499,383 515,383 530,377 546,363 562,367 578,373 594,371 610,375 626,383 642,389 657,388 673,376 689,367 705,367 721,361 737,360 753,265 769,263 784,253 800,215 816,222 832,225 848,227 864,229 880,217 896,228 911,247 927,247 943,240 959,235 975,235 991,233 1007,209 1023,209 1038,212 1054,211 1070,208 1086,205 1102,200 1118,195 1134,183 1150,178 " style="fill:none;stroke:#0000FF;stroke-width:3;stroke-linejoin:bevel" /><line x1="150" y1="75" x2="150" y2="475" style="stroke:black;stroke-width:2"/>
<line x1="150" y1="475" x2="1400" y2="475" style="stroke:black;stroke-width:2"/>
<text x="450.000000" y="25">Population_globale</text>
<text x="10" y="275.000000">Population</text>
<text x="600.000000" y="515.000000">Temps</text>
<text x="100.000000" y="475.000000">0.000</text>
<text x="100.000000" y="417.857147">100.0</text>
<text x="100.000000" y="360.714264">200.0</text>
<text x="100.000000" y="303.571411">300.0</text>
<text x="100.000000" y="246.428543">400.0</text>
<text x="100.000000" y="189.285706">500.0</text>
<text x="100.000000" y="132.142853">600.0</text>
<text x="100.000000" y="74.999969">700.0</text>
<text x="150.000000" y="490.000000">0.000</text>
<text x="350.000000" y="490.000000">30.40</text>
<text x="550.000000" y="490.000000">60.79</text>
<text x="750.000000" y="490.000000">91.20</text>
<text x="950.000000" y="490.000000">121.5</text>
<text x="1150.000000" y="490.000000">152.0</text>
</svg>
