<?xml version="1.0" standalone="no"?>
<!DOCTYPE svg PUBLIC "-//W3C//DTD SVG 1.1//EN"
"http://www.w3.org/Graphics/SVG/1.1/DTD/svg11.dtd">
<svg width="1250.000000" height="550.000000"
xmlns="http://www.w3.org/2000/svg">
<polyline points="150,117 150,231 150,270 150,299 150,302 150,314 150,321 150,319 150,323 150,325 150,326 151,326 151,318 151,313 151,310 151,301 151,297 151,285 151,270 151,253 151,241 152,229 152,220 152,304 152,295 152,277 152,271 152,260 152,252 152,249 152,239 153,234 153,235 153,237 153,223 153,211 153,197 153,185 153,161 153,181 153,183 153,180 154,167 154,166 154,166 154,166 154,168 154,166 154,176 154,165 154,174 154,169 155,149 155,163 155,175 155,176 155,167 155,183 155,199 155,190 155,191 155,187 156,178 156,179 156,175 156,167 156,175 156,154 156,137 156,150 156,144 156,140 156,149 157,164 157,172 157,182 157,183 157,170 157,169 157,161 157,174 157,177 157,158 158,139 158,133 158,121 158,124 158,114 158,124 158,143 158,144 158,161 158,159 159,151 159,143 159,144 159,138 159,120 159,129 159,153 159,160 159,149 159,151 159,151 160,151 160,157 160,176 160,163 160,174 160,178 160,161 160,148 160,141 160,153 161,152 161,151 161,155 161,149 161,149 161,151 161,165 161,169 161,149 161,137 162,131 162,130 162,168 162,185 162,189 162,196 162,189 162,173 162,171 162,173 162,172 163,176 163,151 163,137 163,139 163,139 163,144 163,159 163,135 163,137 163,124 164,120 164,133 164,151 164,161 164,150 164,156 164,154 164,149 164,140 164,122 165,124 165,160 165,156 165,149 165,137 165,154 165,153 165,156 165,136 165,137 165,151 166,160 166,146 166,143 166,133 166,135 166,132 166,143 166,149 166,144 166,158 167,151 167,173 167,181 167,185 167,174 167,182 167,194 167,203 167,184 167,174 168,170 168,144 168,138 168,130 168,117 168,112 168,110 168,116 168,121 168,102 168,87 169,87 169,116 169,116 169,129 169,146 169,148 169,155 169,156 169,159 169,149 170,129 170,120 170,116 170,119 170,143 170,139 170,134 170,144 170,154 170,156 171,146 171,130 171,119 171,119 171,132 171,110 171,97 171,92 171,108 171,121 171,131 172,149 172,139 172,163 172,171 172,178 172,187 172,183 172,182 172,163 172,157 173,149 173,150 173,156 173,141 173,129 173,104 173,112 173,117 173,114 173,103 174,121 174,118 174,138 174,143 174,156 174,138 174,152 174,169 174,186 174,203 174,224 175,209 175,200 175,188 175,178 175,155 175,146 175,109 175,82 175,70 175,38 176,8 176,18 176,57 176,57 176,70 176,110 176,115 176,139 176,169 176,211 177,232 177,234 177,227 177,226 177,220 177,207 177,179 177,161 177,159 177,155 177,126 178,102 178,99 178,107 178,109 178,134 178,147 178,161 178,173 178,156 178,153 179,151 179,136 179,131 179,116 179,104 179,105 179,126 179,144 179,137 179,136 180,146 180,157 180,166 180,164 180,168 180,179 180,177 180,173 180,162 180,163 180,157 181,156 181,155 181,150 181,154 181,133 181,120 181,141 181,134 181,139 181,145 182,160 182,179 182,229 182,240 182,236 182,231 182,217 182,210 182,201 182,170 183,146 183,153 183,153 183,144 183,134 183,137 183,149 183,182 183,191 183,183 183,167 184,158 184,155 184,152 184,161 184,173 184,184 184,176 184,168 184,168 184,176 185,202 185,217 185,223 185,223 185,222 185,225 185,225 185,227 185,220 185,214 186,201 186,201 186,196 186,182 186,161 186,154 186,140 186,131 186,154 186,174 186,195 187,207 187,223 187,228 187,242 187,249 187,262 187,272 187,260 187,253 187,243 188,229 188,215 188,210 188,223 188,211 188,202 188,208 188,196 188,191 188,187 189,183 189,183 189,187 189,167 189,158 189,166 189,175 189,174 189,173 189,186 189,208 190,229 190,247 190,251 190,262 190,272 190,275 190,284 190,287 190,298 190,295 191,293 191,292 191,283 191,268 191,266 191,265 191,251 191,243 191,240 191,236 192,225 192,223 192,230 192,237 192,234 192,237 192,241 192,242 192,243 192,249 192,237 193,225 193,228 193,240 193,242 193,249 193,246 193,258 193,250 193,252 193,258 194,254 194,265 194,262 194,250 194,265 194,268 194,264 194,257 194,270 194,262 195,269 195,278 195,267 195,257 195,250 195,246 195,247 195,239 195,243 195,235 195,241 196,248 196,244 196,245 196,250 196,250 196,237 196,230 196,230 196,229 196,238 197,237 197,245 197,242 197,237 197,245 197,257 197,263 197,257 197,265 197,279 198,277 198,275 198,279 198,286 198,282 198,282 198,279 198,272 198,277 198,272 198,266 199,265 199,274 199,271 199,270 199,282 199,289 199,287 199,285 199,279 199,283 200,265 200,260 200,265 200,278 200,283 200,292 200,290 200,298 200,298 200,305 201,311 201,306 201,307 201,309 201,312 201,298 201,297 201,289 201,286 201,280 201,265 202,277 202,299 202,297 202,289 202,284 202,277 202,269 202,262 202,255 202,244 203,240 203,231 203,242 203,249 203,254 203,244 203,245 203,235 203,237 203,247 204,248 204,265 204,272 204,271 204,267 204,272 204,273 204,269 204,276 204,260 204,267 205,268 205,289 205,290 205,292 205,296 205,294 205,288 205,288 205,284 205,284 206,281 206,282 206,291 206,288 206,292 206,289 206,297 206,293 206,292 206,289 207,287 207,283 207,275 207,279 207,284 207,284 207,272 207,263 207,262 207,260 207,265 208,262 208,254 208,258 208,270 208,275 208,265 208,273 208,267 208,267 208,255 209,261 209,254 209,244 209,249 209,257 209,265 209,270 209,267 209,272 209,275 210,266 210,262 210,259 210,258 210,255 210,251 210,259 210,257 210,254 210,256 210,260 211,263 211,263 211,266 211,264 211,273 211,289 211,300 211,315 211,319 211,321 212,325 212,329 212,338 212,338 212,346 212,350 212,347 212,345 212,334 212,322 213,319 213,317 213,316 213,314 213,307 213,307 213,305 213,307 213,310 213,309 213,293 214,288 214,284 214,286 214,284 214,279 214,277 214,275 214,279 214,279 214,279 215,276 215,289 215,292 215,294 215,297 215,282 215,284 215,287 215,290 215,293 216,285 216,293 216,283 216,280 216,277 216,269 216,262 216,255 216,252 216,250 216,247 217,245 217,247 217,244 217,240 217,235 217,235 217,220 217,231 217,222 217,227 218,237 218,237 218,235 218,244 218,246 218,250 218,247 218,250 218,257 218,244 219,253 219,272 219,273 219,281 219,277 219,277 219,278 219,285 219,288 219,281 219,280 220,275 220,270 220,249 220,247 220,253 220,250 220,236 220,225 220,240 220,244 221,245 221,246 221,247 221,245 221,246 221,245 221,247 221,250 221,241 221,230 222,231 222,230 222,224 222,242 222,234 222,235 222,229 222,230 222,220 222,222 222,211 223,198 223,209 223,216 223,207 223,215 223,210 223,210 223,211 223,230 223,240 224,247 224,251 224,259 224,257 224,268 224,280 224,292 224,307 224,309 224,313 225,305 225,292 225,294 225,286 225,278 225,261 225,253 225,246 225,234 225,236 225,215 226,205 226,182 226,156 226,134 226,119 226,122 226,146 226,173 226,176 226,182 227,181 227,198 227,208 227,215 227,218 227,216 227,227 227,222 227,210 227,209 228,208 228,204 228,195 228,193 228,188 228,177 228,186 228,188 228,186 228,206 229,220 229,224 229,228 229,242 229,244 229,235 229,225 229,217 229,208 229,193 229,183 230,178 230,168 230,163 230,165 230,149 230,133 230,134 230,132 230,129 230,121 231,124 231,142 231,172 231,167 231,158 231,182 231,178 231,194 231,200 231,203 232,200 232,189 232,190 232,193 232,199 232,180 232,176 232,155 232,135 232,138 232,122 233,109 233,125 233,144 233,151 233,153 233,145 233,156 233,153 233,141 233,124 234,112 234,126 234,127 234,129 234,142 234,154 234,170 234,171 234,165 234,156 235,146 235,134 235,113 235,144 235,153 235,167 235,179 235,173 235,176 235,159 235,151 236,136 236,120 236,95 236,82 236,90 236,106 236,116 236,147 236,177 236,203 237,231 237,246 237,235 237,233 237,215 237,199 237,179 237,145 237,118 237,113 238,99 238,66 238,63 238,75 238,87 238,99 238,131 238,153 238,156 238,149 238,139 239,140 239,127 239,116 239,107 239,98 239,104 239,86 239,81 239,79 239,92 240,104 240,97 240,121 240,126 240,114 240,125 240,138 240,139 240,135 240,150 241,128 241,114 241,113 241,115 241,114 241,137 241,162 241,160 241,147 241,131 241,112 242,101 242,88 242,79 242,92 242,99 242,103 242,108 242,105 242,100 242,83 243,73 243,86 243,109 243,133 243,151 243,156 243,153 243,162 243,168 243,176 244,166 244,162 244,147 244,116 244,84 244,55 244,51 244,61 244,88 244,75 244,60 245,52 245,40 245,52 245,60 245,89 245,128 245,135 245,141 245,133 245,136 246,151 246,157 246,156 246,139 246,119 246,99 246,82 246,84 246,47 246,30 247,72 247,92 247,100 247,132 247,146 247,134 247,136 247,129 247,138 247,151 247,161 248,175 248,176 248,179 248,158 248,163 248,145 248,131 248,126 248,96 248,52 249,11 249,32 249,47 249,54 249,56 249,88 249,102 249,109 249,117 249,153 250,173 250,176 250,194 250,187 250,183 250,186 250,195 250,200 250,186 250,186 250,153 251,133 251,87 251,68 251,55 251,31 251,56 251,94 251,105 251,109 251,107 252,107 252,85 252,104 252,92 252,97 252,124 252,131 252,145 252,164 252,168 253,163 253,121 253,87 253,92 253,99 253,105 253,112 253,121 253,136 253,134 253,138 254,144 254,134 254,128 254,124 254,110 254,124 254,114 254,103 254,80 254,99 255,112 255,134 255,138 255,161 255,157 255,166 255,173 255,153 255,153 255,153 256,146 256,141 256,129 256,119 256,83 256,63 256,72 256,100 256,141 256,158 256,198 257,214 257,233 257,224 257,207 257,197 257,178 257,149 257,121 257,133 257,117 258,105 258,96 258,98 258,121 258,129 258,141 258,167 258,166 258,178 258,188 259,200 259,192 259,183 259,176 259,159 259,149 259,144 259,145 259,148 259,136 259,144 260,146 260,168 260,165 260,184 260,189 260,198 260,204 260,205 260,204 260,192 261,185 261,188 261,196 261,203 261,201 261,198 261,198 261,193 261,188 261,174 262,186 262,207 262,218 262,233 262,228 262,224 262,209 262,204 262,195 262,186 262,172 263,154 263,162 263,154 263,164 263,165 263,172 263,157 263,174 263,188 263,205 264,203 264,205 264,202 264,196 264,216 264,235 264,236 264,245 264,230 264,224 265,225 265,229 265,226 265,220 265,208 265,208 265,191 265,193 265,184 265,193 265,180 266,192 266,192 266,193 266,200 266,220 266,215 266,210 266,213 266,237 266,231 267,239 267,247 267,235 267,228 267,226 267,227 267,222 267,230 267,226 267,217 268,220 268,232 268,240 268,223 268,231 268,225 268,230 268,225 268,227 268,225 268,238 269,250 269,275 269,283 269,289 269,290 269,296 269,293 269,293 269,300 269,294 270,278 270,269 270,266 270,253 270,252 270,239 270,235 270,213 270,218 270,222 271,223 271,218 271,208 271,208 271,209 271,215 271,223 271,223 271,233 271,240 271,235 272,253 272,248 272,265 272,279 272,282 272,288 272,290 272,281 272,282 272,273 273,266 273,258 273,255 273,262 273,267 273,279 273,272 273,259 273,250 273,248 274,264 274,265 274,265 274,264 274,257 274,252 274,255 274,247 274,257 274,243 274,250 275,252 275,243 275,254 275,258 275,257 275,262 275,265 275,287 275,293 275,292 276,292 276,288 276,295 276,293 276,284 276,281 276,286 276,286 276,275 276,272 277,278 277,267 277,270 277,269 277,268 277,261 277,278 277,275 277,268 277,272 277,268 278,254 278,256 278,258 278,264 278,252 278,262 278,262 278,270 278,287 278,298 279,293 279,290 279,301 279,309 279,312 279,307 279,316 279,320 279,319 279,320 280,321 280,321 280,316 280,311 280,303 280,294 280,291 280,279 280,272 280,268 280,261 281,249 281,237 281,231 281,225 281,213 281,218 281,220 281,220 281,220 281,232 282,240 282,257 282,261 282,260 282,275 282,284 282,285 282,294 282,301 282,309 283,298 283,302 283,309 283,314 283,322 283,326 283,322 283,321 283,334 283,335 283,337 284,348 284,340 284,336 284,325 284,333 284,319 284,310 284,298 284,287 284,279 285,276 285,267 285,263 285,270 285,265 285,259 285,255 285,255 285,255 285,243 286,229 286,233 286,227 286,240 286,242 286,234 286,233 286,244 286,242 286,247 286,252 287,260 287,265 287,258 287,255 287,252 287,264 287,272 287,273 287,274 287,279 288,274 288,270 288,282 288,263 288,262 288,267 288,257 288,260 288,262 288,267 289,270 289,282 289,277 289,279 289,282 289,279 289,282 289,275 289,276 289,267 289,267 290,254 290,250 290,244 290,257 290,265 290,252 290,255 290,255 290,256 290,260 291,257 291,257 291,258 291,263 291,264 291,264 291,275 291,272 291,273 291,271 292,291 292,287 292,289 292,283 292,286 292,286 292,287 292,282 292,279 292,272 292,277 293,272 293,272 293,268 293,263 293,265 293,265 293,263 293,261 293,266 293,269 294,257 294,255 294,266 294,278 294,270 294,276 294,266 294,272 294,276 294,276 295,286 295,278 295,278 295,282 295,278 295,275 295,283 295,278 295,276 295,264 295,265 296,268 296,255 296,240 296,257 296,242 296,243 296,242 296,252 296,260 296,266 297,261 297,265 297,268 297,262 297,250 297,250 297,247 297,245 297,229 297,235 298,249 298,258 298,262 298,260 298,257 298,257 298,252 298,250 298,237 298,225 298,220 299,227 299,218 299,213 299,209 299,207 299,225 299,243 299,247 299,252 299,244 300,259 300,275 300,267 300,270 300,262 300,250 300,257 300,254 300,245 300,255 301,247 301,239 301,238 301,238 301,237 301,247 301,245 301,249 301,262 301,256 301,257 302,256 302,255 302,262 302,264 302,252 302,245 302,247 302,250 302,236 302,228 303,219 303,213 303,200 303,200 303,193 303,204 303,195 303,194 303,192 303,210 304,213 304,220 304,222 304,204 304,204 304,213 304,233 304,244 304,245 304,249 305,254 305,258 305,245 305,239 305,230 305,221 305,203 305,192 305,183 305,168 305,154 306,156 306,167 306,186 306,197 306,201 306,217 306,233 306,236 306,235 306,228 307,225 307,233 307,241 307,241 307,236 307,223 307,212 307,197 307,183 307,174 308,162 308,162 308,149 308,138 308,129 308,102 308,114 308,157 308,175 308,206 308,207 309,223 309,230 309,245 309,247 309,252 309,274 309,275 309,276 309,272 309,274 310,263 310,255 310,244 310,233 310,220 310,223 310,203 310,181 310,168 310,155 311,137 311,124 311,134 311,137 311,124 311,103 311,103 311,105 311,119 311,115 311,122 312,139 312,151 312,151 312,180 312,190 312,182 312,187 312,177 312,190 312,201 313,205 313,195 313,168 313,157 313,131 313,120 313,134 313,121 313,104 313,98 314,89 314,99 314,117 314,130 314,144 314,144 314,150 314,173 314,161 314,167 314,183 315,169 315,150 315,161 315,168 315,158 315,142 315,121 315,116 315,129 315,129 316,132 316,144 316,137 316,126 316,115 316,112 316,121 316,136 316,146 316,151 317,154 317,156 317,176 317,162 317,151 317,161 317,156 317,148 317,133 317,91 317,106 318,99 318,98 318,93 318,88 318,102 318,134 318,135 318,130 318,121 318,114 319,129 319,129 319,156 319,145 319,141 319,129 319,132 319,114 319,109 319,118 320,129 320,116 320,111 320,97 320,104 320,75 320,75 320,87 320,99 320,83 320,96 321,109 321,135 321,146 321,171 321,150 321,146 321,140 321,139 321,139 321,155 322,157 322,158 322,139 322,124 322,90 322,57 322,44 322,51 322,76 322,94 323,97 323,121 323,146 323,140 323,116 323,120 323,112 323,102 323,109 323,89 323,97 324,93 324,106 324,89 324,62 324,56 324,68 324,84 324,100 324,139 324,151 325,176 325,163 325,163 325,167 325,151 325,136 325,112 325,79 325,50 325,44 326,57 326,71 326,95 326,87 326,89 326,99 326,99 326,115 326,144 326,149 326,131 327,126 327,134 327,131 327,121 327,113 327,102 327,92 327,85 327,70 327,60 328,90 328,107 328,129 328,129 328,135 328,129 328,129 328,128 328,136 328,151 329,126 329,105 329,80 329,70 329,63 329,85 329,94 329,104 329,113 329,112 329,119 330,113 330,112 330,112 330,122 330,124 330,113 330,102 330,90 330,72 330,89 331,108 331,112 331,123 331,132 331,144 331,152 331,158 331,155 331,131 331,107 332,111 332,130 332,124 332,113 332,103 332,88 332,115 332,104 332,92 332,112 332,148 333,170 333,185 333,183 333,165 333,154 333,144 333,139 333,150 333,135 333,120 334,105 334,87 334,71 334,67 334,72 334,98 334,118 334,113 334,131 334,138 335,137 335,162 335,161 335,168 335,193 335,193 335,181 335,175 335,161 335,145 335,141 336,139 336,102 336,81 336,97 336,97 336,116 336,124 336,182 336,196 336,198 337,203 337,207 337,219 337,222 337,222 337,213 337,210 337,189 337,156 337,145 338,128 338,129 338,109 338,114 338,107 338,101 338,95 338,107 338,126 338,140 338,158 339,161 339,164 339,165 339,193 339,207 339,210 339,220 339,211 339,207 339,199 340,190 340,178 340,161 340,166 340,170 340,162 340,166 340,178 340,188 340,188 341,179 341,175 341,172 341,156 341,163 341,176 341,180 341,176 341,170 341,175 341,203 342,215 342,209 342,216 342,200 342,208 342,215 342,215 342,227 342,215 342,219 343,235 343,241 343,227 343,220 343,216 343,207 343,204 343,186 343,176 343,162 344,151 344,141 344,134 344,136 344,141 344,149 344,158 344,183 344,194 344,223 344,233 345,239 345,245 345,242 345,260 345,267 345,274 345,284 345,286 345,289 345,283 346,278 346,269 346,246 346,236 346,222 346,210 346,195 346,185 346,171 346,151 347,139 347,141 347,139 347,160 347,168 347,183 347,207 347,223 347,236 347,251 347,252 348,262 348,267 348,277 348,277 348,265 348,265 348,260 348,245 348,247 348,237 349,254 349,255 349,256 349,274 349,282 349,294 349,282 349,274 349,259 349,260 350,243 350,228 350,220 350,205 350,191 350,192 350,182 350,185 350,170 350,178 350,201 351,216 351,229 351,231 351,253 351,262 351,274 351,289 351,289 351,301 351,309 352,309 352,312 352,315 352,307 352,303 352,297 352,297 352,299 352,289 352,281 353,275 353,261 353,259 353,250 353,247 353,243 353,234 353,219 353,223 353,229 353,226 354,225 354,229 354,245 354,258 354,272 354,275 354,278 354,271 354,270 354,260 355,260 355,256 355,260 355,265 355,282 355,281 355,270 355,272 355,281 355,282 356,279 356,287 356,282 356,287 356,289 356,289 356,297 356,286 356,281 356,289 356,284 357,279 357,277 357,260 357,257 357,263 357,253 357,246 357,255 357,257 357,254 358,256 358,247 358,252 358,262 358,270 358,277 358,284 358,282 358,284 358,284 359,288 359,283 359,294 359,292 359,284 359,291 359,284 359,277 359,277 359,278 359,284 360,282 360,275 360,270 360,265 360,280 360,268 360,275 360,282 360,291 360,281 361,286 361,272 361,277 361,280 361,277 361,279 361,273 361,287 361,270 361,272 362,272 362,268 362,272 362,260 362,247 362,250 362,245 362,250 362,240 362,248 362,252 363,266 363,270 363,268 363,270 363,277 363,275 363,284 363,277 363,270 363,281 364,266 364,279 364,287 364,290 364,291 364,311 364,316 364,324 364,349 364,351 365,357 365,351 365,356 365,359 365,353 365,361 365,363 365,362 365,360 365,346 365,343 366,321 366,315 366,293 366,275 366,260 366,251 366,233 366,218 366,203 366,183 367,176 367,173 367,159 367,175 367,190 367,203 367,199 367,215 367,214 367,225 368,265 368,280 368,294 368,314 368,321 368,340 368,347 368,349 368,348 368,359 368,360 369,358 369,356 369,354 369,349 369,344 369,337 369,326 369,316 369,304 369,288 370,272 370,258 370,247 370,225 370,207 370,201 370,204 370,199 370,210 370,211 371,208 371,207 371,219 371,224 371,250 371,261 371,265 371,274 371,284 371,284 371,282 372,294 372,295 372,304 372,299 372,306 372,302 372,308 372,307 372,307 372,287 373,294 373,292 373,285 373,283 373,274 373,273 373,273 373,268 373,263 373,262 374,255 374,255 374,250 374,257 374,267 374,271 374,273 374,270 374,271 374,270 374,258 375,261 375,251 375,236 375,223 375,228 375,221 375,221 375,230 375,245 375,252 376,247 376,245 376,249 376,250 376,264 376,277 376,274 376,279 376,281 376,282 377,287 377,287 377,292 377,293 377,283 377,286 377,281 377,275 377,264 377,251 377,248 378,231 378,232 378,231 378,230 378,245 378,242 378,234 378,235 378,221 378,217 379,213 379,210 379,194 379,191 379,196 379,215 379,224 379,225 379,220 379,230 380,225 380,225 380,213 380,223 380,207 380,207 380,220 380,228 380,232 380,250 381,262 381,269 381,285 381,289 381,284 381,276 381,271 381,273 381,256 381,237 381,230 382,221 382,199 382,189 382,172 382,171 382,180 382,183 382,200 382,197 382,210 383,200 383,191 383,197 383,197 383,199 383,195 383,211 383,196 383,195 383,202 384,197 384,206 384,210 384,211 384,206 384,214 384,231 384,222 384,205 384,214 384,212 385,200 385,191 385,193 385,200 385,217 385,228 385,224 385,223 385,225 385,222 386,213 386,203 386,198 386,215 386,204 386,187 386,160 386,143 386,124 386,154 387,152 387,145 387,154 387,166 387,175 387,189 387,199 387,223 387,233 387,230 387,215 388,203 388,198 388,190 388,190 388,174 388,158 388,161 388,156 388,166 388,184 389,167 389,178 389,163 389,151 389,146 389,138 389,135 389,158 389,180 389,173 390,172 390,163 390,170 390,165 390,151 390,162 390,169 390,160 390,169 390,161 390,176 391,168 391,154 391,170 391,169 391,168 391,162 391,170 391,141 391,142 391,153 392,145 392,146 392,158 392,179 392,184 392,179 392,163 392,156 392,147 392,151 393,151 393,151 393,144 393,133 393,127 393,128 393,134 393,155 393,149 393,138 393,128 394,137 394,144 394,160 394,165 394,168 394,171 394,163 394,158 394,154 394,135 395,129 395,126 395,140 395,137 395,151 395,151 395,150 395,124 395,109 395,102 396,98 396,89 396,78 396,94 396,104 396,143 396,151 396,139 396,120 396,121 396,114 397,116 397,131 397,144 397,164 397,172 397,179 397,168 397,145 397,124 397,116 398,127 398,135 398,121 398,126 398,128 398,145 398,178 398,197 398,191 398,159 399,168 399,169 399,152 399,114 399,112 399,86 399,84 399,75 399,91 399,67 399,79 400,97 400,124 400,124 400,137 400,151 400,179 400,181 400,176 400,176 400,156 401,146 401,136 401,127 401,109 401,75 401,91 401,113 401,91 401,106 401,88 402,105 402,97 402,114 402,120 402,141 402,149 402,137 402,126 402,118 402,118 402,133 403,136 403,110 403,79 403,77 403,77 403,78 403,99 403,120 403,137 403,115 404,131 404,111 404,121 404,124 404,144 404,121 404,117 404,133 404,129 404,127 405,134 405,117 405,106 405,114 405,108 405,125 405,132 405,149 405,142 405,142 405,122 406,91 406,84 406,65 406,52 406,92 406,121 406,120 406,126 406,140 406,162 407,174 407,171 407,153 407,136 407,132 407,94 407,64 407,57 407,72 407,84 408,104 408,127 408,129 408,126 408,127 408,126 408,122 408,116 408,107 408,104 408,116 409,122 409,118 409,107 409,88 409,92 409,113 409,123 409,151 409,147 409,148 410,136 410,134 410,142 410,126 410,136 410,125 410,126 410,104 410,114 410,131 411,129 411,124 411,141 411,126 411,137 411,128 411,122 411,127 411,125 411,145 411,130 412,131 412,156 412,145 412,146 412,146 412,151 412,178 412,181 412,176 412,188 413,176 413,164 413,156 413,144 413,151 413,125 413,128 413,131 413,167 413,167 414,143 414,140 414,150 414,163 414,172 414,178 414,192 414,191 414,186 414,188 414,200 415,204 415,196 415,175 415,165 415,157 415,146 415,134 415,133 415,112 415,134 416,131 416,147 416,168 416,178 416,180 416,200 416,203 416,211 416,225 416,217 417,197 417,200 417,208 417,203 417,187 417,181 417,174 417,158 417,173 417,183 417,203 418,198 418,209 418,220 418,200 418,187 418,188 418,208 418,229 418,231 418,225 419,211 419,194 419,215 419,209 419,198 419,186 419,193 419,183 419,173 419,184 420,191 420,198 420,200 420,210 420,230 420,250 420,245 420,249 420,247 420,254 420,240 421,221 421,220 421,244 421,242 421,237 421,224 421,223 421,210 421,208 421,199 422,198 422,186 422,202 422,217 422,224 422,240 422,256 422,266 422,279 422,279 423,277 423,274 423,275 423,270 423,247 423,224 423,214 423,208 423,203 423,198 423,190 424,183 424,182 424,178 424,178 424,181 424,183 424,193 424,210 424,207 424,235 425,261 425,270 425,286 425,292 425,295 425,291 425,286 425,275 425,285 425,266 426,260 426,247 426,240 426,235 426,236 426,231 426,230 426,228 426,220 426,207 426,203 427,206 427,206 427,199 427,204 427,213 427,233 427,249 427,246 427,265 427,272 428,283 428,292 428,284 428,284 428,289 428,285 428,286 428,282 428,274 428,267 429,254 429,254 429,246 429,248 429,249 429,242 429,235 429,228 429,230 429,233 429,232 430,232 430,223 430,217 430,224 430,238 430,237 430,242 430,255 430,262 430,261 431,265 431,278 431,270 431,262 431,267 431,282 431,282 431,300 431,306 431,317 432,314 432,317 432,334 432,336 432,337 432,339 432,336 432,342 432,330 432,325 432,319 433,309 433,300 433,297 433,287 433,279 433,271 433,269 433,268 433,256 433,242 434,227 434,216 434,223 434,214 434,218 434,235 434,238 434,236 434,239 434,249 435,255 435,275 435,287 435,294 435,296 435,308 435,313 435,319 435,322 435,330 435,331 436,326 436,321 436,317 436,314 436,302 436,294 436,280 436,279 436,270 436,255 437,260 437,248 437,252 437,251 437,252 437,257 437,275 437,283 437,288 437,289 438,301 438,307 438,316 438,307 438,309 438,308 438,302 438,299 438,297 438,294 438,286 439,283 439,277 439,280 439,275 439,270 439,269 439,270 439,268 439,279 439,276 440,273 440,267 440,275 440,282 440,273 440,281 440,290 440,306 440,305 440,316 441,322 441,326 441,336 441,336 441,327 441,315 441,319 441,322 441,312 441,319 441,321 442,331 442,333 442,329 442,330 442,335 442,336 442,325 442,312 442,301 442,291 443,278 443,262 443,260 443,277 443,283 443,283 443,275 443,270 443,275 443,275 444,261 444,261 444,259 444,260 444,274 444,276 444,275 444,272 444,258 444,279 444,288 445,290 445,304 445,319 445,315 445,314 445,325 445,307 445,310 445,312 445,304 446,287 446,297 446,291 446,303 446,299 446,312 446,324 446,339 446,332 446,331 447,334 447,329 447,316 447,318 447,312 447,309 447,303 447,304 447,296 447,290 447,290 448,290 448,297 448,302 448,316 448,320 448,321 448,316 448,309 448,314 448,317 449,325 449,331 449,334 449,339 449,340 449,348 449,339 449,339 449,335 449,321 450,324 450,324 450,318 450,313 450,295 450,299 450,296 450,297 450,292 450,297 450,294 451,290 451,279 451,274 451,278 451,280 451,265 451,275 451,292 451,284 451,289 452,289 452,293 452,301 452,296 452,298 452,286 452,272 452,272 452,270 452,266 453,284 453,272 453,273 453,271 453,268 453,275 453,272 453,277 453,281 453,275 453,269 454,267 454,270 454,277 454,279 454,284 454,287 454,289 454,299 454,307 454,300 455,301 455,307 455,305 455,303 455,298 455,291 455,290 455,284 455,279 455,275 456,290 456,298 456,288 456,278 456,270 456,268 456,253 456,236 456,235 456,230 456,235 457,234 457,225 457,225 457,219 457,220 457,227 457,220 457,219 457,210 457,229 458,236 458,247 458,237 458,249 458,245 458,242 458,252 458,256 458,242 458,246 459,251 459,242 459,240 459,226 459,223 459,228 459,242 459,240 459,235 459,229 460,225 460,214 460,219 460,213 460,212 460,221 460,222 460,216 460,215 460,208 460,205 461,203 461,208 461,208 461,210 461,214 461,214 461,215 461,233 461,232 461,222 462,221 462,215 462,212 462,229 462,247 462,252 462,249 462,243 462,241 462,238 463,225 463,215 463,211 463,200 463,207 463,214 463,198 463,179 463,165 463,153 463,153 464,151 464,163 464,154 464,163 464,174 464,171 464,181 464,167 464,164 464,160 465,165 465,158 465,186 465,198 465,217 465,246 465,243 465,235 465,220 465,204 466,198 466,192 466,168 466,187 466,178 466,156 466,141 466,132 466,165 466,160 466,181 467,173 467,170 467,151 467,146 467,146 467,152 467,139 467,132 467,151 467,178 468,163 468,166 468,181 468,221 468,234 468,244 468,235 468,212 468,200 468,171 469,153 469,141 469,120 469,93 469,97 469,102 469,121 469,127 469,157 469,165 469,164 470,171 470,174 470,178 470,172 470,166 470,165 470,173 470,184 470,194 470,176 471,162 471,145 471,126 471,116 471,106 471,94 471,94 471,77 471,77 471,86 472,97 472,102 472,82 472,70 472,73 472,102 472,129 472,155 472,180 472,184 472,169 473,166 473,163 473,137 473,139 473,136 473,157 473,158 473,152 473,150 473,116 474,104 474,79 474,74 474,53 474,28 474,45 474,67 474,109 474,129 474,123 475,129 475,125 475,120 475,138 475,146 475,133 475,141 475,134 475,112 475,96 475,95 476,92 476,87 476,101 476,94 476,127 476,128 476,131 476,129 476,130 476,126 477,115 477,101 477,100 477,76 477,86 477,77 477,73 477,75 477,91 477,97 478,87 478,115 478,121 478,131 478,139 478,141 478,128 478,112 478,103 478,88 478,105 479,97 479,92 479,92 479,89 479,99 479,113 479,102 479,112 479,133 479,133 480,123 480,135 480,130 480,124 480,111 480,118 480,118 480,121 480,119 480,118 481,112 481,117 481,115 481,123 481,131 481,154 481,160 481,161 481,148 481,148 481,129 482,116 482,104 482,85 482,72 482,103 482,106 482,105 482,94 482,100 482,107 483,109 483,134 483,137 483,129 483,133 483,122 483,138 483,139 483,157 483,161 484,141 484,135 484,127 484,115 484,91 484,72 484,99 484,101 484,116 484,139 484,142 485,151 485,138 485,133 485,150 485,139 485,129 485,113 485,129 485,105 485,97 486,134 486,156 486,151 486,148 486,145 486,149 486,141 486,146 486,129 486,136 487,112 487,125 487,131 487,131 487,140 487,144 487,131 487,126 487,148 487,163 487,155 488,154 488,178 488,183 488,171 488,142 488,126 488,121 488,141 488,143 488,140 489,151 489,134 489,133 489,136 489,119 489,107 489,97 489,128 489,134 489,154 490,155 490,147 490,163 490,174 490,159 490,160 490,161 490,147 490,156 490,158 490,178 491,171 491,166 491,173 491,178 491,168 491,165 491,144 491,154 491,153 491,149 492,144 492,178 492,203 492,214 492,225 492,217 492,197 492,195 492,188 492,182 493,182 493,147 493,136 493,127 493,145 493,141 493,151 493,185 493,193 493,200 493,210 494,210 494,205 494,201 494,201 494,215 494,225 494,218 494,219 494,210 494,218 495,229 495,230 495,247 495,235 495,230 495,204 495,201 495,205 495,208 495,221 496,242 496,258 496,269 496,265 496,242 496,245 496,240 496,250 496,250 496,229 496,220 497,224 497,214 497,200 497,203 497,195 497,205 497,203 497,206 497,204 497,198 498,218 498,212 498,208 498,205 498,215 498,228 498,225 498,218 498,215 498,198 499,195 499,197 499,192 499,178 499,177 499,178 499,200 499,205 499,221 499,218 499,215 500,199 500,216 500,223 500,229 500,248 500,247 500,270 500,296 500,294 500,291 501,286 501,289 501,283 501,284 501,281 501,273 501,265 501,265 501,247 501,237 502,229 502,228 502,230 502,208 502,196 502,203 502,204 502,213 502,215 502,215 502,230 503,222 503,225 503,221 503,214 503,209 503,210 503,208 503,228 503,239 503,235 504,241 504,241 504,244 504,240 504,234 504,236 504,232 504,233 504,242 504,245 505,233 505,245 505,262 505,265 505,262 505,265 505,262 505,275 505,270 505,257 505,250 506,248 506,252 506,254 506,261 506,258 506,260 506,254 506,245 506,237 506,233 507,235 507,230 507,242 507,234 507,241 507,233 507,237 507,246 507,250 507,245 508,257 508,261 508,260 508,265 508,275 508,288 508,285 508,278 508,267 508,265 508,257 509,255 509,261 509,257 509,257 509,250 509,242 509,256 509,265 509,267 509,265 510,259 510,257 510,252 510,240 510,240 510,240 510,254 510,252 510,265 510,263 511,280 511,277 511,291 511,304 511,304 511,307 511,311 511,308 511,310 511,301 511,305 512,306 512,297 512,286 512,291 512,284 512,284 512,276 512,260 512,255 512,252 513,261 513,252 513,245 513,246 513,242 513,231 513,246 513,257 513,252 513,264 514,266 514,265 514,260 514,267 514,284 514,281 514,282 514,287 514,285 514,301 514,309 515,314 515,316 515,321 515,321 515,319 515,317 515,314 515,310 515,307 515,304 516,311 516,299 516,293 516,291 516,285 516,276 516,267 516,255 516,245 516,228 517,213 517,205 517,209 517,210 517,215 517,223 517,242 517,240 517,262 517,282 517,290 518,298 518,308 518,314 518,308 518,303 518,296 518,296 518,297 518,304 518,302 519,304 519,300 519,304 519,309 519,307 519,299 519,303 519,308 519,309 519,304 520,297 520,286 520,276 520,275 520,263 520,256 520,243 520,243 520,243 520,242 520,239 521,235 521,233 521,220 521,211 521,217 521,237 521,255 521,260 521,273 521,291 522,288 522,289 522,292 522,297 522,307 522,313 522,316 522,324 522,325 522,319 523,323 523,316 523,315 523,311 523,302 523,299 523,296 523,297 523,302 523,301 523,290 524,287 524,278 524,270 524,267 524,277 524,265 524,262 524,260 524,257 524,253 525,261 525,274 525,288 525,289 525,286 525,295 525,286 525,273 525,279 525,277 526,274 526,274 526,270 526,270 526,268 526,265 526,266 526,264 526,269 526,273 526,287 527,284 527,288 527,289 527,297 527,304 527,314 527,320 527,311 527,314 527,312 528,312 528,312 528,305 528,297 528,289 528,280 528,273 528,267 528,267 528,262 529,247 529,241 529,236 529,246 529,244 529,240 529,255 529,260 529,264 529,254 529,260 530,267 530,261 530,265 530,262 530,262 530,265 530,274 530,282 530,282 530,292 531,290 531,299 531,282 531,283 531,279 531,275 531,273 531,255 531,247 531,235 532,230 532,224 532,224 532,220 532,223 532,222 532,225 532,235 532,237 532,237 532,242 533,247 533,270 533,275 533,287 533,294 533,303 533,306 533,306 533,304 533,305 534,303 534,297 534,282 534,274 534,256 534,239 534,241 534,228 534,229 534,210 535,234 535,233 535,236 535,245 535,247 535,249 535,240 535,242 535,250 535,256 536,251 536,246 536,238 536,230 536,220 536,227 536,213 536,210 536,197 536,199 536,206 537,196 537,186 537,198 537,218 537,220 537,228 537,223 537,230 537,229 537,230 538,230 538,223 538,220 538,223 538,226 538,223 538,206 538,197 538,190 538,186 539,177 539,171 539,188 539,182 539,174 539,181 539,185 539,195 539,204 539,218 539,216 540,221 540,239 540,235 540,228 540,224 540,203 540,203 540,191 540,182 540,178 541,167 541,150 541,166 541,168 541,181 541,183 541,188 541,195 541,193 541,189 542,181 542,168 542,176 542,163 542,156 542,157 542,173 542,176 542,191 542,181 542,173 543,179 543,175 543,163 543,151 543,154 543,151 543,139 543,143 543,136 543,134 544,139 544,146 544,165 544,181 544,205 544,205 544,226 544,220 544,222 544,219 545,211 545,182 545,161 545,149 545,131 545,121 545,106 545,91 545,97 545,100 545,133 546,157 546,177 546,185 546,207 546,228 546,225 546,210 546,203 546,194 546,187 547,186 547,159 547,138 547,119 547,102 547,84 547,81 547,79 547,95 547,116 548,146 548,163 548,164 548,182 548,186 548,173 548,163 548,148 548,154 548,154 548,146 549,127 549,111 549,105 549,107 549,93 549,86 549,75 549,59 549,82 549,120 550,131 550,150 550,184 550,200 550,200 550,219 550,228 550,222 550,208 550,198 551,176 551,159 551,140 551,102 551,82 551,77 551,77 551,61 551,56 551,40 551,70 552,89 552,119 552,143 552,146 552,131 552,127 552,125 552,109 552,102 552,76 553,72 553,101 553,102 553,113 553,107 553,116 553,100 553,100 553,89 553,94 554,111 554,123 554,131 554,147 554,145 554,150 554,134 554,131 554,105 554,83 554,63 555,54 555,51 555,60 555,68 555,99 555,114 555,119 555,141 555,156 555,159 556,171 556,151 556,156 556,159 556,140 556,139 556,124 556,125 556,102 556,99 557,78 557,65 557,67 557,72 557,89 557,77 557,92 557,101 557,97 557,116 557,119 558,123 558,119 558,121 558,107 558,102 558,99 558,95 558,77 558,103 558,127 559,125 559,115 559,112 559,124 559,108 559,101 559,91 559,102 559,121 559,150 560,158 560,177 560,176 560,179 560,182 560,177 560,171 560,159 560,144 560,134 560,128 561,144 561,161 561,166 561,154 561,146 561,145 561,151 561,155 561,153 561,154 562,136 562,109 562,107 562,107 562,123 562,124 562,115 562,115 562,108 562,122 563,119 563,114 563,116 563,124 563,120 563,118 563,129 563,88 563,79 563,60 563,57 564,76 564,103 564,131 564,140 564,151 564,166 564,183 564,180 564,173 564,153 565,146 565,123 565,114 565,104 565,105 565,103 565,103 565,96 565,110 565,112 566,126 566,124 566,137 566,159 566,164 566,167 566,169 566,151 566,154 566,147 566,156 567,132 567,109 567,106 567,109 567,107 567,117 567,141 567,146 567,158 567,152 568,153 568,148 568,156 568,156 568,164 568,160 568,166 568,158 568,153 568,154 569,149 569,134 569,146 569,136 569,144 569,144 569,151 569,156 569,158 569,157 569,176 570,183 570,180 570,173 570,182 570,186 570,178 570,161 570,156 570,156 570,166 571,158 571,170 571,176 571,185 571,205 571,198 571,193 571,181 571,161 571,153 572,140 572,144 572,141 572,154 572,171 572,178 572,171 572,172 572,178 572,183 572,186 573,169 573,164 573,185 573,184 573,182 573,200 573,198 573,191 573,203 573,210 574,206 574,194 574,205 574,207 574,213 574,225 574,235 574,238 574,227 574,225 575,213 575,198 575,183 575,178 575,168 575,160 575,161 575,140 575,139 575,144 575,171 576,188 576,194 576,202 576,205 576,214 576,230 576,251 576,249 576,238 576,228 577,221 577,218 577,228 577,233 577,229 577,230 577,241 577,245 577,250 577,247 578,247 578,274 578,276 578,277 578,271 578,260 578,245 578,241 578,237 578,220 578,201 579,200 579,203 579,208 579,208 579,198 579,193 579,214 579,210 579,211 579,215 580,241 580,250 580,253 580,269 580,267 580,260 580,264 580,277 580,287 580,291 581,289 581,270 581,255 581,253 581,241 581,230 581,233 581,229 581,215 581,195 581,199 582,195 582,200 582,200 582,212 582,210 582,223 582,246 582,255 582,271 582,276 583,270 583,279 583,285 583,282 583,289 583,292 583,299 583,295 583,300 583,287 584,286 584,292 584,284 584,270 584,259 584,244 584,224 584,216 584,199 584,207 584,203 585,196 585,195 585,208 585,218 585,223 585,234 585,240 585,239 585,247 585,242 586,264 586,270 586,264 586,275 586,283 586,292 586,302 586,309 586,307 586,299 587,307 587,313 587,305 587,304 587,303 587,303 587,305 587,296 587,282 587,273 587,275 588,267 588,255 588,250 588,245 588,242 588,241 588,238 588,250 588,261 588,266 589,272 589,273 589,281 589,294 589,294 589,298 589,299 589,298 589,287 589,294 590,295 590,302 590,304 590,302 590,299 590,306 590,300 590,293 590,287 590,282 590,277 591,277 591,274 591,275 591,277 591,273 591,261 591,250 591,245 591,230 591,226 592,222 592,216 592,219 592,220 592,234 592,249 592,265 592,282 592,298 592,291 593,299 593,309 593,313 593,309 593,302 593,291 593,304 593,305 593,300 593,299 593,299 594,292 594,287 594,286 594,281 594,275 594,273 594,272 594,281 594,271 594,272 595,267 595,264 595,262 595,250 595,246 595,242 595,249 595,250 595,260 595,262 596,249 596,241 596,250 596,255 596,259 596,278 596,284 596,287 596,302 596,298 596,299 597,314 597,314 597,319 597,314 597,307 597,299 597,306 597,305 597,314 597,316 598,326 598,330 598,330 598,330 598,324 598,328 598,319 598,327 598,319 598,308 599,304 599,286 599,277 599,264 599,245 599,231 599,235 599,223 599,215 599,207 599,200 600,208 600,195 600,198 600,213 600,234 600,269 600,284 600,295 600,299 600,312 601,315 601,321 601,324 601,319 601,311 601,312 601,312 601,304 601,302 601,301 602,298 602,295 602,289 602,280 602,266 602,261 602,265 602,270 602,266 602,270 602,264 603,260 603,257 603,255 603,250 603,249 603,257 603,245 603,253 603,259 603,267 604,274 604,262 604,270 604,288 604,295 604,296 604,299 604,304 604,312 604,323 605,328 605,329 605,341 605,344 605,339 605,332 605,331 605,324 605,316 605,304 605,296 606,276 606,267 606,273 606,269 606,259 606,255 606,256 606,258 606,257 606,258 607,249 607,231 607,222 607,223 607,224 607,218 607,228 607,222 607,225 607,242 608,257 608,287 608,299 608,307 608,308 608,319 608,322 608,326 608,329 608,327 608,322 609,303 609,302 609,284 609,277 609,262 609,255 609,239 609,231 609,210 609,205 610,200 610,198 610,195 610,202 610,206 610,204 610,220 610,239 610,250 610,254 611,271 611,272 611,271 611,270 611,265 611,255 611,245 611,244 611,236 611,241 612,234 612,228 612,225 612,230 612,217 612,211 612,207 612,205 612,202 612,187 612,189 613,193 613,211 613,231 613,242 613,249 613,247 613,245 613,229 613,220 613,203 614,195 614,200 614,188 614,186 614,199 614,212 614,210 614,213 614,226 614,232 615,244 615,246 615,250 615,249 615,244 615,239 615,235 615,240 615,228 615,212 615,201 616,194 616,183 616,180 616,198 616,217 616,234 616,256 616,261 616,242 616,239 617,231 617,224 617,205 617,188 617,163 617,149 617,129 617,137 617,140 617,133 618,153 618,171 618,200 618,216 618,229 618,252 618,272 618,279 618,287 618,287 618,280 619,263 619,246 619,230 619,210 619,188 619,171 619,141 619,119 619,92 619,79 620,64 620,63 620,75 620,102 620,129 620,141 620,158 620,173 620,192 620,191 621,197 621,200 621,204 621,195 621,183 621,154 621,145 621,135 621,146 621,160 621,158 622,156 622,151 622,157 622,147 622,155 622,156 622,146 622,147 622,145 622,144 623,139 623,111 623,109 623,126 623,128 623,129 623,111 623,105 623,114 623,112 624,132 624,141 624,136 624,150 624,159 624,163 624,171 624,163 624,156 624,139 624,134 625,141 625,139 625,131 625,127 625,140 625,141 625,156 625,154 625,161 625,151 626,155 626,149 626,149 626,134 626,135 626,127 626,113 626,112 626,101 626,78 627,84 627,115 627,141 627,151 627,183 627,197 627,199 627,186 627,161 627,155 627,156 628,147 628,134 628,95 628,102 628,87 628,75 628,70 628,84 628,82 628,84 629,117 629,135 629,149 629,143 629,129 629,112 629,87 629,90 629,79 629,70 630,86 630,81 630,93 630,126 630,139 630,165 630,157 630,161 630,155 630,139 630,110 631,82 631,74 631,77 631,83 631,102 631,139 631,133 631,119 631,72 631,55 632,64 632,79 632,84 632,114 632,137 632,161 632,179 632,182 632,184 632,181 633,153 633,148 633,139 633,121 633,92 633,60 633,34 633,23 633,49 633,81 633,109 634,129 634,137 634,139 634,116 634,124 634,130 634,125 634,133 634,136 634,132 635,132 635,109 635,91 635,90 635,79 635,89 635,97 635,107 635,104 635,92 636,85 636,82 636,97 636,114 636,149 636,167 636,189 636,187 636,168 636,154 636,136 637,134 637,111 637,105 637,101 637,84 637,82 637,89 637,75 637,68 637,77 638,101 638,114 638,91 638,94 638,135 638,157 638,143 638,145 638,119 638,109 639,102 639,99 639,75 639,85 639,79 639,100 639,104 639,134 639,135 639,131 639,140 640,127 640,126 640,121 640,110 640,122 640,119 640,103 640,84 640,99 640,107 641,109 641,98 641,108 641,104 641,124 641,151 641,173 641,170 641,141 641,138 642,136 642,126 642,121 642,115 642,110 642,107 642,114 642,102 642,106 642,95 642,101 643,114 643,134 643,146 643,161 643,165 643,191 643,190 643,192 643,207 643,193 644,185 644,169 644,152 644,144 644,119 644,102 644,93 644,99 644,91 644,118 645,130 645,139 645,153 645,172 645,177 645,175 645,177 645,169 645,162 645,166 645,163 646,144 646,129 646,119 646,112 646,137 646,149 646,136 646,123 646,119 646,115 647,136 647,126 647,146 647,175 647,208 647,220 647,215 647,220 647,221 647,216 648,210 648,219 648,229 648,219 648,196 648,195 648,199 648,210 648,205 648,202 648,193 649,180 649,168 649,173 649,186 649,176 649,181 649,184 649,181 649,183 649,193 650,200 650,209 650,214 650,219 650,205 650,205 650,205 650,212 650,215 650,200 651,200 651,189 651,182 651,169 651,162 651,147 651,142 651,144 651,163 651,157 651,153 652,155 652,163 652,196 652,210 652,216 652,223 652,213 652,218 652,221 652,207 653,199 653,198 653,190 653,178 653,171 653,175 653,198 653,182 653,173 653,165 654,181 654,195 654,215 654,225 654,233 654,225 654,237 654,245 654,233 654,223 654,223 655,225 655,233 655,235 655,228 655,223 655,213 655,195 655,208 655,197 655,206 656,203 656,200 656,201 656,202 656,217 656,213 656,215 656,219 656,230 656,219 657,222 657,212 657,210 657,220 657,225 657,225 657,232 657,230 657,243 657,241 657,260 658,260 658,269 658,270 658,271 658,255 658,248 658,243 658,228 658,215 658,218 659,210 659,205 659,195 659,179 659,184 659,191 659,208 659,233 659,250 659,264 660,275 660,284 660,292 660,293 660,292 660,298 660,292 660,294 660,297 660,279 660,265 661,264 661,263 661,247 661,260 661,265 661,275 661,274 661,279 661,265 661,270 662,272 662,268 662,264 662,245 662,245 662,247 662,242 662,236 662,233 662,211 663,209 663,205 663,211 663,226 663,244 663,256 663,271 663,279 663,275 663,278 663,278 664,266 664,273 664,287 664,294 664,296 664,309 664,311 664,304 664,295 664,300 665,292 665,292 665,294 665,289 665,282 665,279 665,279 665,272 665,267 665,256 666,252 666,243 666,251 666,244 666,250 666,238 666,236 666,261 666,267 666,272 666,272 667,282 667,287 667,289 667,289 667,299 667,316 667,314 667,320 667,328 667,328 668,327 668,323 668,309 668,299 668,295 668,289 668,277 668,283 668,276 668,270 669,258 669,251 669,243 669,233 669,237 669,230 669,231 669,235 669,224 669,227 669,223 670,222 670,223 670,245 670,267 670,289 670,306 670,309 670,318 670,320 670,331 671,330 671,334 671,336 671,341 671,340 671,341 671,338 671,336 671,324 671,312 672,303 672,283 672,276 672,270 672,267 672,262 672,249 672,249 672,242 672,237 672,242 673,248 673,253 673,254 673,251 673,249 673,257 673,266 673,260 673,254 673,255 674,256 674,258 674,255 674,260 674,263 674,277 674,282 674,277 674,279 674,281 675,280 675,277 675,275 675,286 675,281 675,274 675,272 675,271 675,267 675,270 675,284 676,272 676,267 676,274 676,269 676,280 676,289 676,296 676,311 676,321 676,318 677,321 677,327 677,322 677,321 677,319 677,309 677,303 677,297 677,292 677,291 678,283 678,274 678,265 678,257 678,242 678,236 678,235 678,249 678,245 678,247 678,245 679,255 679,265 679,260 679,250 679,250 679,250 679,261 679,267 679,283 679,292 680,312 680,322 680,320 680,331 680,336 680,345 680,342 680,346 680,339 680,333 681,332 681,316 681,314 681,302 681,295 681,291 681,279 681,273 681,261 681,245 681,238 682,228 682,220 682,223 682,216 682,215 682,232 682,241 682,240 682,241 682,247 683,247 683,264 683,270 683,268 683,276 683,274 683,279 683,282 683,283 683,272 684,270 684,270 684,267 684,276 684,274 684,276 684,272 684,275 684,263 684,267 684,265 685,263 685,258 685,267 685,275 685,277 685,282 685,276 685,285 685,289 685,294 686,298 686,300 686,299 686,287 686,280 686,279 686,276 686,263 686,245 686,240 687,240 687,236 687,227 687,210 687,210 687,213 687,211 687,217 687,227 687,215 687,227 688,246 688,240 688,256 688,262 688,254 688,247 688,260 688,267 688,275 688,272 689,273 689,264 689,265 689,260 689,255 689,252 689,238 689,221 689,206 689,188 690,183 690,174 690,176 690,177 690,193 690,193 690,208 690,222 690,240 690,235 691,247 691,252 691,255 691,262 691,262 691,277 691,270 691,277 691,275 691,273 691,284 692,290 692,293 692,290 692,275 692,261 692,245 692,228 692,221 692,200 692,188 693,183 693,163 693,163 693,138 693,134 693,121 693,124 693,129 693,136 693,173 694,181 694,213 694,230 694,229 694,235 694,243 694,247 694,258 694,263 694,260 694,247 695,235 695,233 695,241 695,257 695,263 695,262 695,267 695,270 695,270 695,260 696,245 696,228 696,205 696,189 696,180 696,173 696,153 696,127 696,116 696,105 697,84 697,97 697,131 697,154 697,178 697,208 697,211 697,218 697,227 697,237 697,260 698,267 698,265 698,279 698,272 698,260 698,239 698,230 698,213 698,198 698,175 699,161 699,134 699,123 699,124 699,120 699,133 699,133 699,126 699,134 699,151 700,159 700,186 700,211 700,223 700,242 700,239 700,223 700,210 700,210 700,193 700,183 701,172 701,171 701,173 701,157 701,142 701,130 701,129 701,128 701,133 701,119 702,137 702,159 702,178 702,174 702,173 702,164 702,164 702,175 702,179 702,172 703,171 703,164 703,155 703,152 703,161 703,170 703,176 703,163 703,146 703,154 703,141 704,136 704,133 704,122 704,140 704,154 704,148 704,147 704,153 704,158 704,152 705,149 705,149 705,147 705,145 705,163 705,168 705,155 705,139 705,140 705,136 706,133 706,143 706,150 706,150 706,169 706,165 706,158 706,131 706,114 706,104 706,107 707,112 707,97 707,92 707,105 707,99 707,81 707,97 707,130 707,140 707,158 708,172 708,178 708,179 708,193 708,193 708,181 708,163 708,151 708,131 708,114 709,104 709,82 709,72 709,79 709,97 709,131 709,155 709,209 709,225 709,219 709,212 710,223 710,244 710,238 710,247 710,246 710,229 710,210 710,189 710,158 710,134 711,107 711,97 711,67 711,66 711,48 711,28 711,37 711,33 711,54 711,75 712,114 712,139 712,153 712,166 712,143 712,131 712,158 712,162 712,136 712,132 712,118 713,107 713,107 713,91 713,84 713,68 713,90 713,97 713,108 713,110 713,144 714,118 714,131 714,148 714,155 714,152 714,135 714,134 714,121 714,99 714,85 715,87 715,103 715,121 715,131 715,135 715,129 715,131 715,131 715,117 715,109 715,105 716,116 716,127 716,120 716,105 716,82 716,74 716,73 716,94 716,92 716,106 717,143 717,172 717,193 717,223 717,240 717,248 717,251 717,237 717,228 717,193 718,151 718,133 718,97 718,50 718,10 718,-20 718,-41 718,-8 718,8 718,62 718,126 719,164 719,202 719,212 719,215 719,194 719,188 719,168 719,159 719,141 719,114 720,87 720,75 720,76 720,91 720,89 720,112 720,149 720,156 720,156 720,164 721,187 721,212 721,217 721,213 721,196 721,180 721,161 721,135 721,102 721,88 721,76 722,94 722,115 722,141 722,156 722,162 722,176 722,170 722,174 722,178 722,173 723,163 723,150 723,131 723,115 723,123 723,138 723,128 723,131 723,136 723,157 724,146 724,136 724,131 724,147 724,164 724,178 724,193 724,221 724,228 724,215 724,201 725,187 725,166 725,158 725,154 725,145 725,139 725,124 725,120 725,135 725,136 726,133 726,151 726,154 726,184 726,203 726,200 726,192 726,191 726,191 726,205 727,204 727,212 727,209 727,200 727,186 727,183 727,178 727,175 727,176 727,153 727,162 728,166 728,150 728,160 728,168 728,179 728,218 728,221 728,228 728,250 728,275 729,291 729,300 729,296 729,290 729,278 729,269 729,259 729,238 729,219 729,202 730,177 730,154 730,136 730,125 730,126 730,147 730,143 730,162 730,163 730,187 730,199 731,211 731,225 731,229 731,229 731,249 731,260 731,261 731,269 731,257 731,272 732,269 732,273 732,277 732,265 732,263 732,255 732,260 732,252 732,265 732,256 733,243 733,240 733,230 733,229 733,223 733,203 733,210 733,208 733,214 733,218 733,218 734,200 734,208 734,199 734,205 734,212 734,234 734,245 734,242 734,252 734,257 735,270 735,279 735,283 735,270 735,271 735,263 735,255 735,245 735,236 735,222 736,209 736,196 736,199 736,208 736,217 736,220 736,229 736,223 736,221 736,225 736,246 737,267 737,274 737,290 737,306 737,307 737,314 737,312 737,310 737,306 737,305 738,299 738,293 738,289 738,282 738,280 738,269 738,265 738,258 738,247 738,245 739,250 739,251 739,247 739,241 739,233 739,240 739,243 739,242 739,244 739,243 739,243 740,242 740,237 740,255 740,254 740,254 740,242 740,245 740,235 740,249 740,246 741,257 741,265 741,265 741,262 741,255 741,259 741,262 741,279 741,289 741,299 742,313 742,315 742,326 742,326 742,320 742,321 742,319 742,311 742,296 742,292 742,287 743,275 743,274 743,261 743,237 743,219 743,211 743,215 743,198 743,200 743,207 744,230 744,236 744,247 744,252 744,268 744,291 744,310 744,306 744,309 744,310 745,309 745,313 745,315 745,307 745,304 745,299 745,292 745,292 745,285 745,289 745,286 746,286 746,275 746,271 746,264 746,270 746,268 746,270 746,260 746,245 746,249 747,239 747,225 747,236 747,250 747,238 747,245 747,255 747,254 747,287 747,282 748,294 748,307 748,308 748,313 748,323 748,325 748,326 748,324 748,331 748,341 748,329 749,326 749,320 749,315 749,314 749,302 749,296 749,284 749,274 749,265 749,247 750,233 750,233 750,223 750,220 750,208 750,202 750,209 750,210 750,219 750,226 751,228 751,232 751,247 751,259 751,270 751,287 751,292 751,312 751,321 751,322 751,329 752,331 752,336 752,336 752,332 752,330 752,328 752,322 752,314 752,316 752,305 753,294 753,290 753,290 753,272 753,264 753,258 753,248 753,234 753,223 753,205 754,201 754,193 754,185 754,205 754,223 754,251 754,279 754,306 754,326 754,338 754,342 755,346 755,340 755,345 755,340 755,331 755,326 755,321 755,314 755,310 755,303 756,291 756,265 756,267 756,266 756,255 756,253 756,246 756,241 756,236 756,237 757,239 757,226 757,224 757,228 757,225 757,235 757,240 757,261 757,270 757,289 757,300 758,303 758,315 758,312 758,307 758,302 758,297 758,300 758,301 758,304 758,301 759,297 759,299 759,296 759,295 759,291 759,289 759,291 759,283 759,275 759,272 760,259 760,258 760,255 760,253 760,252 760,242 760,235 760,239 760,235 760,223 760,215 761,224 761,219 761,225 761,237 761,252 761,254 761,266 761,285 761,302 761,309 762,299 762,293 762,300 762,297 762,291 762,290 762,284 762,276 762,282 762,276 763,281 763,270 763,273 763,264 763,259 763,250 763,251 763,235 763,234 763,235 763,223 764,220 764,223 764,229 764,242 764,255 764,268 764,250 764,247 764,238 764,228 765,220 765,217 765,213 765,213 765,205 765,193 765,197 765,195 765,195 765,212 766,242 766,252 766,249 766,265 766,273 766,288 766,284 766,272 766,284 766,284 767,275 767,260 767,250 767,247 767,230 767,222 767,214 767,200 767,195 767,199 767,191 768,198 768,212 768,210 768,205 768,205 768,208 768,216 768,227 768,223 768,220 769,209 769,206 769,213 769,232 769,242 769,232 769,231 769,227 769,225 769,220 770,223 770,214 770,208 770,190 770,198 770,211 770,200 770,180 770,182 770,181 770,191 771,193 771,195 771,204 771,197 771,191 771,183 771,168 771,174 771,188 771,190 772,176 772,182 772,215 772,229 772,234 772,248 772,255 772,260 772,267 772,270 773,263 773,267 773,249 773,240 773,216 773,196 773,189 773,149 773,137 773,130 773,108 774,107 774,107 774,95 774,108 774,114 774,129 774,154 774,191 774,214 774,230 775,230 775,229 775,231 775,220 775,215 775,218 775,196 775,176 775,154 775,140 776,116 776,97 776,84 776,66 776,84 776,94 776,137 776,192 776,224 776,227 776,221 777,216 777,227 777,227 777,225 777,219 777,215 777,218 777,210 777,198 777,189 778,186 778,157 778,144 778,121 778,102 778,85 778,70 778,72 778,99 778,95 779,116 779,120 779,141 779,154 779,178 779,190 779,189 779,195 779,186 779,203 779,201 780,195 780,185 780,172 780,150 780,118 780,100 780,102 780,81 780,72 780,82 781,85 781,102 781,104 781,131 781,142 781,136 781,119 781,120 781,150 781,142 782,156 782,139 782,136 782,144 782,151 782,173 782,203 782,197 782,167 782,156 782,161 783,131 783,92 783,45 783,36 783,59 783,79 783,92 783,93 783,110 783,117 784,132 784,190 784,237 784,262 784,267 784,268 784,262 784,243 784,222 784,193 785,169 785,152 785,111 785,82 785,51 785,-5 785,-37 785,-57 785,-56 785,-42 785,33 786,87 786,130 786,149 786,158 786,166 786,181 786,169 786,165 786,144 786,118 787,92 787,73 787,50 787,62 787,69 787,89 787,89 787,87 787,78 787,109 788,119 788,112 788,124 788,135 788,155 788,156 788,163 788,152 788,150 788,123 788,119 789,112 789,108 789,86 789,70 789,66 789,80 789,83 789,88 789,97 789,94 790,87 790,104 790,126 790,138 790,156 790,143 790,158 790,165 790,178 790,174 791,169 791,154 791,138 791,129 791,119 791,93 791,93 791,106 791,109 791,97 791,92 792,75 792,79 792,90 792,109 792,146 792,153 792,151 792,139 792,141 792,141 793,140 793,156 793,146 793,132 793,141 793,134 793,117 793,97 793,66 793,53 794,64 794,84 794,95 794,97 794,111 794,112 794,120 794,125 794,124 794,121 794,124 795,139 795,163 795,149 795,164 795,172 795,188 795,173 795,158 795,154 795,156 796,142 796,124 796,111 796,93 796,102 796,108 796,129 796,155 796,161 796,156 797,157 797,140 797,133 797,122 797,121 797,90 797,91 797,119 797,139 797,125 797,121 798,110 798,107 798,139 798,156 798,179 798,201 798,199 798,208 798,206 798,198 799,209 799,220 799,214 799,199 799,175 799,158 799,142 799,139 799,130 799,109 800,91 800,69 800,50 800,58 800,94 800,126 800,153 800,184 800,191 800,200 800,215 801,208 801,214 801,240 801,255 801,253 801,250 801,245 801,235 801,208 801,183 802,145 802,111 802,83 802,51 802,51 802,67 802,67 802,100 802,125 802,138 803,148 803,168 803,189 803,181 803,196 803,205 803,206 803,211 803,210 803,216 803,235 804,248 804,260 804,250 804,242 804,228 804,222 804,210 804,195 804,181 804,164 805,144 805,134 805,124 805,107 805,97 805,100 805,100 805,131 805,152 805,171 806,205 806,233 806,249 806,254 806,256 806,271 806,275 806,264 806,262 806,260 806,250 807,255 807,264 807,259 807,257 807,255 807,245 807,226 807,210 807,195 807,179 808,154 808,142 808,146 808,137 808,129 808,133 808,144 808,154 808,183 808,183 809,214 809,228 809,232 809,221 809,230 809,230 809,239 809,250 809,257 809,266 809,277 810,282 810,278 810,267 810,255 810,249 810,243 810,249 810,243 810,235 810,228 811,240 811,237 811,239 811,255 811,256 811,254 811,251 811,236 811,221 811,208 812,204 812,217 812,203 812,198 812,208 812,202 812,208 812,223 812,228 812,233 812,228 813,230 813,225 813,223 813,221 813,229 813,233 813,240 813,255 813,266 813,277 814,301 814,309 814,308 814,309 814,318 814,316 814,312 814,310 814,320 814,318 815,316 815,313 815,299 815,302 815,304 815,292 815,282 815,267 815,263 815,256 815,245 816,235 816,245 816,240 816,250 816,252 816,252 816,258 816,255 816,252 816,256 817,241 817,221 817,214 817,211 817,209 817,200 817,195 817,199 817,218 817,231 818,247 818,251 818,272 818,282 818,294 818,299 818,304 818,307 818,312 818,310 818,315 819,311 819,311 819,309 819,323 819,319 819,327 819,326 819,335 819,334 819,319 820,317 820,324 820,323 820,315 820,305 820,304 820,292 820,284 820,280 820,284 821,270 821,264 821,249 821,257 821,260 821,261 821,262 821,268 821,260 821,273 821,284 822,270 822,279 822,272 822,268 822,260 822,257 822,273 822,272 822,277 822,270 823,275 823,279 823,275 823,271 823,275 823,277 823,273 823,270 823,259 823,267 824,278 824,277 824,281 824,299 824,297 824,303 824,298 824,306 824,304 824,305 824,307 825,299 825,304 825,298 825,313 825,316 825,319 825,335 825,321 825,324 825,317 826,309 826,311 826,302 826,295 826,295 826,293 826,288 826,288 826,289 826,282 827,266 827,259 827,252 827,250 827,238 827,233 827,211 827,198 827,206 827,203 827,220 828,234 828,250 828,281 828,293 828,299 828,309 828,321 828,324 828,334 828,334 829,344 829,334 829,329 829,334 829,327 829,319 829,315 829,309 829,303 829,299 830,287 830,287 830,282 830,265 830,252 830,240 830,234 830,218 830,196 830,198 830,193 831,208 831,206 831,201 831,221 831,236 831,248 831,270 831,279 831,299 831,315 832,309 832,316 832,316 832,323 832,324 832,327 832,338 832,339 832,338 832,326 833,329 833,331 833,323 833,326 833,317 833,319 833,319 833,324 833,319 833,312 833,315 834,298 834,285 834,269 834,265 834,254 834,240 834,233 834,231 834,223 834,210 835,209 835,213 835,207 835,210 835,215 835,233 835,264 835,261 835,279 835,296 836,304 836,316 836,324 836,326 836,333 836,334 836,339 836,349 836,346 836,340 836,334 837,318 837,314 837,306 837,297 837,286 837,278 837,272 837,262 837,251 837,242 838,225 838,212 838,204 838,200 838,191 838,191 838,193 838,211 838,213 838,209 839,218 839,229 839,251 839,265 839,260 839,264 839,275 839,275 839,279 839,284 839,287 840,282 840,284 840,280 840,283 840,280 840,268 840,257 840,247 840,237 840,242 841,234 841,246 841,239 841,242 841,244 841,249 841,257 841,268 841,262 841,267 842,259 842,260 842,262 842,265 842,263 842,254 842,247 842,249 842,247 842,251 843,240 843,227 843,213 843,208 843,207 843,213 843,200 843,198 843,205 843,213 843,206 844,210 844,234 844,229 844,244 844,243 844,244 844,248 844,242 844,251 844,250 845,260 845,260 845,260 845,241 845,240 845,240 845,233 845,223 845,213 845,206 846,184 846,185 846,176 846,191 846,192 846,197 846,195 846,215 846,209 846,201 846,203 847,217 847,210 847,211 847,221 847,218 847,209 847,209 847,203 847,190 847,185 848,181 848,185 848,166 848,161 848,163 848,158 848,164 848,156 848,158 848,167 849,181 849,186 849,198 849,212 849,236 849,251 849,258 849,256 849,245 849,246 849,250 850,249 850,224 850,216 850,206 850,203 850,189 850,171 850,168 850,162 850,142 851,113 851,109 851,102 851,109 851,136 851,172 851,186 851,198 851,203 851,206 852,223 852,228 852,233 852,245 852,240 852,247 852,250 852,237 852,221 852,220 852,206 853,182 853,154 853,125 853,99 853,74 853,53 853,55 853,47 853,91 853,121 854,149 854,175 854,177 854,175 854,179 854,194 854,193 854,195 854,205 854,191 855,184 855,171 855,152 855,122 855,123 855,112 855,116 855,97 855,99 855,130 855,151 856,143 856,165 856,163 856,165 856,166 856,170 856,146 856,151 856,146 856,148 857,141 857,136 857,125 857,101 857,98 857,94 857,110 857,131 857,155 857,176 858,175 858,178 858,165 858,151 858,124 858,126 858,150 858,150 858,167 858,172 858,163 859,148 859,132 859,128 859,107 859,94 859,82 859,93 859,100 859,107 859,119 860,121 860,128 860,134 860,146 860,166 860,168 860,167 860,158 860,136 860,123 861,111 861,94 861,60 861,41 861,25 861,44 861,42 861,76 861,106 861,127 861,151 862,154 862,152 862,144 862,121 862,137 862,129 862,136 862,127 862,129 862,128 863,107 863,97 863,82 863,65 863,55 863,68 863,87 863,103 863,101 863,110 864,126 864,148 864,160 864,160 864,166 864,151 864,134 864,125 864,113 864,84 864,82 865,78 865,55 865,79 865,91 865,97 865,112 865,118 865,126 865,127 865,136 866,134 866,134 866,144 866,146 866,139 866,129 866,119 866,115 866,109 866,94 867,74 867,55 867,42 867,52 867,78 867,105 867,129 867,143 867,167 867,166 867,163 868,154 868,145 868,124 868,104 868,98 868,92 868,103 868,92 868,87 868,83 869,94 869,121 869,136 869,130 869,144 869,150 869,153 869,154 869,146 869,139 870,120 870,80 870,58 870,53 870,63 870,62 870,85 870,123 870,144 870,152 870,139 871,145 871,138 871,135 871,129 871,109 871,109 871,122 871,132 871,129 871,135 872,135 872,116 872,107 872,126 872,131 872,146 872,131 872,117 872,109 872,114 873,114 873,124 873,112 873,127 873,127 873,136 873,129 873,126 873,131 873,123 873,124 874,133 874,127 874,128 874,120 874,114 874,145 874,132 874,129 874,152 874,180 875,191 875,197 875,185 875,165 875,156 875,139 875,131 875,114 875,102 875,112 876,109 876,123 876,116 876,100 876,109 876,128 876,140 876,151 876,171 876,205 876,225 877,229 877,226 877,220 877,231 877,229 877,214 877,199 877,186 877,165 877,154 878,146 878,124 878,102 878,79 878,72 878,82 878,99 878,116 878,151 878,178 879,200 879,222 879,250 879,265 879,280 879,270 879,260 879,243 879,245 879,233 879,206 880,193 880,173 880,148 880,121 880,87 880,86 880,102 880,128 880,169 880,188 881,209 881,207 881,203 881,191 881,184 881,191 881,198 881,206 881,218 881,210 882,208 882,180 882,179 882,173 882,179 882,179 882,185 882,183 882,208 882,205 882,215 883,230 883,236 883,234 883,233 883,239 883,243 883,237 883,220 883,209 883,205 884,203 884,183 884,178 884,197 884,213 884,213 884,230 884,239 884,234 884,217 885,217 885,210 885,197 885,198 885,201 885,198 885,198 885,209 885,186 885,183 885,184 886,188 886,186 886,199 886,191 886,199 886,203 886,206 886,214 886,228 886,237 887,257 887,252 887,260 887,258 887,257 887,262 887,267 887,274 887,279 887,273 888,265 888,253 888,235 888,231 888,226 888,218 888,214 888,206 888,208 888,198 888,196 889,195 889,191 889,192 889,199 889,208 889,225 889,242 889,250 889,260 889,273 890,287 890,294 890,293 890,294 890,298 890,290 890,301 890,294 890,294 890,287 891,274 891,257 891,242 891,231 891,226 891,212 891,210 891,192 891,202 891,200 891,190 892,211 892,213 892,228 892,249 892,275 892,288 892,286 892,304 892,304 892,304 893,307 893,309 893,319 893,313 893,308 893,289 893,294 893,288 893,279 893,272 894,270 894,273 894,279 894,279 894,268 894,260 894,251 894,257 894,258 894,256 894,252 895,253 895,257 895,263 895,258 895,256 895,242 895,228 895,225 895,230 895,234 896,250 896,263 896,270 896,277 896,295 896,297 896,304 896,314 896,316 896,314 897,312 897,304 897,305 897,305 897,301 897,299 897,304 897,296 897,296 897,292 897,279 898,260 898,269 898,270 898,272 898,257 898,257 898,266 898,261 898,252 898,252 899,257 899,240 899,231 899,240 899,235 899,236 899,254 899,272 899,269 899,279 900,289 900,308 900,316 900,312 900,321 900,326 900,328 900,321 900,317 900,312 900,300 901,291 901,284 901,283 901,279 901,272 901,264 901,247 901,245 901,246 901,257 902,265 902,272 902,280 902,263 902,268 902,267 902,268 902,264 902,264 902,267 903,280 903,286 903,299 903,299 903,302 903,313 903,313 903,312 903,307 903,304 903,303 904,299 904,301 904,298 904,297 904,289 904,288 904,279 904,281 904,278 904,283 905,268 905,273 905,281 905,283 905,287 905,291 905,292 905,286 905,288 905,284 906,287 906,275 906,279 906,279 906,272 906,275 906,274 906,275 906,270 906,275 906,281 907,265 907,259 907,248 907,247 907,237 907,231 907,255 907,252 907,262 907,261 908,282 908,282 908,291 908,300 908,314 908,320 908,317 908,325 908,321 908,320 909,317 909,307 909,312 909,305 909,305 909,279 909,275 909,273 909,257 909,261 909,262 910,251 910,245 910,237 910,242 910,247 910,239 910,237 910,252 910,257 910,269 911,272 911,284 911,288 911,304 911,307 911,305 911,313 911,311 911,307 911,301 912,310 912,307 912,309 912,308 912,310 912,306 912,299 912,288 912,290 912,282 912,276 913,272 913,261 913,260 913,248 913,258 913,256 913,250 913,257 913,251 913,251 914,245 914,241 914,250 914,244 914,246 914,253 914,249 914,257 914,265 914,259 915,264 915,262 915,268 915,279 915,279 915,273 915,272 915,262 915,252 915,255 915,251 916,245 916,250 916,252 916,256 916,257 916,260 916,260 916,264 916,262 916,261 917,258 917,269 917,276 917,272 917,272 917,273 917,260 917,255 917,260 917,268 918,259 918,261 918,258 918,265 918,271 918,262 918,262 918,257 918,248 918,239 918,236 919,236 919,232 919,229 919,218 919,209 919,214 919,224 919,226 919,245 919,246 920,250 920,255 920,264 920,273 920,264 920,275 920,278 920,266 920,265 920,266 921,263 921,264 921,257 921,242 921,237 921,235 921,235 921,223 921,228 921,220 922,213 922,204 922,198 922,185 922,171 922,169 922,169 922,189 922,208 922,218 922,223 923,230 923,225 923,220 923,221 923,225 923,228 923,229 923,245 923,245 923,241 924,245 924,259 924,251 924,247 924,231 924,227 924,222 924,210 924,198 924,198 925,201 925,190 925,198 925,188 925,188 925,191 925,195 925,190 925,196 925,182 925,194 926,203 926,195 926,188 926,184 926,188 926,193 926,190 926,193 926,199 926,198 927,205 927,200 927,193 927,203 927,195 927,209 927,206 927,200 927,185 927,181 928,179 928,157 928,154 928,146 928,151 928,136 928,126 928,140 928,144 928,148 928,159 929,156 929,166 929,181 929,181 929,172 929,179 929,165 929,157 929,141 929,133 930,156 930,151 930,145 930,146 930,151 930,155 930,168 930,173 930,176 930,166 931,169 931,166 931,173 931,168 931,161 931,161 931,173 931,164 931,176 931,174 931,174 932,171 932,147 932,147 932,137 932,158 932,155 932,141 932,131 932,136 932,143 933,146 933,134 933,144 933,137 933,133 933,153 933,167 933,168 933,182 933,181 934,164 934,149 934,144 934,130 934,126 934,115 934,97 934,80 934,76 934,65 934,60 935,68 935,94 935,124 935,135 935,161 935,189 935,196 935,193 935,194 935,175 936,171 936,162 936,161 936,139 936,118 936,95 936,76 936,65 936,63 936,83 937,99 937,112 937,124 937,130 937,162 937,163 937,161 937,148 937,134 937,144 937,145 938,133 938,102 938,92 938,81 938,75 938,61 938,94 938,115 938,141 938,134 939,154 939,137 939,152 939,139 939,128 939,107 939,108 939,82 939,70 939,58 940,44 940,58 940,82 940,109 940,154 940,175 940,188 940,193 940,188 940,191 940,173 941,152 941,124 941,86 941,68 941,62 941,52 941,57 941,75 941,104 941,126 942,131 942,137 942,145 942,149 942,141 942,182 942,215 942,223 942,218 942,213 943,197 943,178 943,147 943,127 943,109 943,77 943,70 943,64 943,55 943,50 943,55 944,60 944,89 944,133 944,141 944,149 944,158 944,158 944,162 944,164 944,154 945,141 945,132 945,131 945,124 945,121 945,101 945,88 945,81 945,72 945,65 946,84 946,122 946,156 946,173 946,171 946,176 946,176 946,170 946,166 946,170 946,156 947,134 947,134 947,127 947,102 947,93 947,77 947,70 947,92 947,89 947,94 948,82 948,77 948,92 948,99 948,84 948,97 948,112 948,139 948,136 948,139 949,138 949,119 949,107 949,129 949,121 949,149 949,142 949,136 949,134 949,125 949,122 950,116 950,107 950,110 950,109 950,132 950,144 950,167 950,195 950,206 950,224 951,209 951,205 951,192 951,183 951,147 951,132 951,108 951,91 951,71 951,71 952,91 952,120 952,138 952,136 952,139 952,149 952,154 952,149 952,187 952,195 952,202 953,199 953,195 953,201 953,206 953,195 953,193 953,167 953,163 953,124 953,121 954,109 954,107 954,114 954,120 954,138 954,149 954,165 954,191 954,189 954,208 955,215 955,198 955,194 955,186 955,195 955,189 955,173 955,163 955,149 955,136 955,124 956,136 956,144 956,149 956,151 956,171 956,176 956,176 956,165 956,163 956,167 957,172 957,183 957,188 957,173 957,173 957,162 957,155 957,141 957,134 957,134 958,123 958,139 958,149 958,150 958,191 958,203 958,218 958,231 958,228 958,230 958,223 959,206 959,202 959,195 959,189 959,193 959,184 959,192 959,198 959,210 959,200 960,182 960,185 960,197 960,205 960,214 960,218 960,223 960,218 960,222 960,215 961,217 961,229 961,225 961,219 961,229 961,222 961,204 961,210 961,225 961,237 961,232 962,226 962,214 962,211 962,205 962,199 962,188 962,187 962,188 962,192 962,203 963,203 963,215 963,227 963,235 963,247 963,238 963,242 963,239 963,242 963,235 964,233 964,225 964,230 964,231 964,231 964,225 964,214 964,207 964,208 964,214 964,229 965,248 965,254 965,254 965,257 965,259 965,276 965,275 965,272 965,264 965,270 966,262 966,245 966,233 966,224 966,220 966,224 966,221 966,216 966,207 966,201 967,199 967,203 967,207 967,252 967,253 967,272 967,284 967,287 967,297 967,294 967,299 968,299 968,293 968,288 968,284 968,280 968,267 968,272 968,262 968,261 968,258 969,259 969,253 969,257 969,242 969,239 969,244 969,228 969,225 969,218 969,218 970,218 970,217 970,222 970,224 970,229 970,236 970,245 970,245 970,257 970,264 970,268 971,289 971,288 971,284 971,286 971,302 971,312 971,313 971,308 971,317 971,322 972,314 972,311 972,317 972,315 972,304 972,302 972,292 972,283 972,272 972,269 973,268 973,260 973,247 973,229 973,223 973,212 973,200 973,210 973,208 973,220 973,222 974,227 974,233 974,254 974,277 974,281 974,286 974,301 974,298 974,303 974,304 975,312 975,324 975,335 975,337 975,334 975,343 975,351 975,349 975,352 975,351 976,356 976,355 976,353 976,350 976,339 976,329 976,329 976,316 976,310 976,307 976,301 977,292 977,275 977,271 977,260 977,233 977,223 977,214 977,201 977,205 977,192 978,196 978,202 978,210 978,216 978,230 978,236 978,235 978,248 978,260 978,263 979,274 979,292 979,304 979,310 979,321 979,321 979,332 979,338 979,356 979,358 979,356 980,349 980,341 980,340 980,335 980,331 980,322 980,316 980,309 980,306 980,285 981,283 981,279 981,263 981,245 981,233 981,224 981,230 981,230 981,225 981,214 982,205 982,205 982,219 982,237 982,245 982,256 982,277 982,288 982,302 982,305 982,314 983,329 983,336 983,339 983,344 983,346 983,357 983,362 983,364 983,366 983,368 984,366 984,363 984,363 984,356 984,342 984,339 984,330 984,326 984,316 984,309 985,289 985,283 985,271 985,265 985,261 985,250 985,235 985,223 985,217 985,222 985,218 986,224 986,228 986,226 986,246 986,257 986,267 986,261 986,265 986,265 986,254 987,260 987,270 987,279 987,279 987,281 987,283 987,279 987,284 987,290 987,294 988,304 988,312 988,319 988,320 988,326 988,326 988,328 988,338 988,334 988,341 988,339 989,337 989,335 989,334 989,344 989,354 989,349 989,354 989,354 989,355 989,351 990,347 990,341 990,327 990,319 990,307 990,297 990,288 990,271 990,274 990,265 991,255 991,243 991,230 991,209 991,202 991,178 991,168 991,164 991,154 991,166 991,177 992,198 992,218 992,235 992,242 992,247 992,250 992,267 992,269 992,272 992,275 993,270 993,267 993,270 993,271 993,278 993,277 993,280 993,276 993,275 993,271 994,269 994,262 994,253 994,242 994,250 994,237 994,241 994,235 994,235 994,237 994,250 995,241 995,238 995,247 995,245 995,260 995,253 995,257 995,265 995,281 995,296 996,292 996,287 996,292 996,281 996,270 996,258 996,248 996,233 996,210 996,188 997,178 997,187 997,186 997,181 997,191 997,192 997,214 997,209 997,205 997,213 998,222 998,237 998,246 998,253 998,261 998,271 998,281 998,287 998,281 998,282 998,277 999,274 999,279 999,277 999,272 999,259 999,235 999,231 999,227 999,212 999,200 1000,191 1000,177 1000,161 1000,156 1000,167 1000,178 1000,186 1000,200 1000,198 1000,188 1001,184 1001,198 1001,188 1001,199 1001,200 1001,204 1001,187 1001,192 1001,203 1001,200 1001,200 1002,197 1002,202 1002,217 1002,223 1002,223 1002,230 1002,233 1002,233 1002,240 1002,231 1003,228 1003,208 1003,177 1003,166 1003,185 1003,193 1003,200 1003,199 1003,198 1003,208 1004,208 1004,199 1004,186 1004,172 1004,171 1004,166 1004,160 1004,163 1004,182 1004,193 1004,200 1005,191 1005,191 1005,206 1005,210 1005,203 1005,208 1005,204 1005,205 1005,198 1005,220 1006,210 1006,229 1006,225 1006,223 1006,199 1006,176 1006,162 1006,150 1006,129 1006,113 1007,104 1007,94 1007,89 1007,84 1007,107 1007,139 1007,173 1007,182 1007,186 1007,200 1007,219 1008,212 1008,227 1008,217 1008,208 1008,215 1008,216 1008,211 1008,206 1008,200 1008,192 1009,186 1009,185 1009,166 1009,144 1009,139 1009,126 1009,121 1009,92 1009,83 1009,75 1010,79 1010,77 1010,108 1010,126 1010,140 1010,154 1010,152 1010,159 1010,170 1010,171 1010,155 1011,163 1011,162 1011,149 1011,146 1011,141 1011,118 1011,114 1011,123 1011,120 1011,125 1012,114 1012,134 1012,136 1012,139 1012,142 1012,149 1012,162 1012,177 1012,187 1012,191 1013,191 1013,180 1013,160 1013,150 1013,133 1013,124 1013,125 1013,121 1013,103 1013,120 1013,107 1014,112 1014,114 1014,128 1014,121 1014,113 1014,123 1014,141 1014,129 1014,142 1014,171 1015,179 1015,175 1015,165 1015,152 1015,143 1015,144 1015,154 1015,146 1015,148 1015,149 1016,131 1016,109 1016,77 1016,77 1016,67 1016,92 1016,97 1016,84 1016,82 1016,80 1016,114 1017,111 1017,134 1017,122 1017,134 1017,151 1017,159 1017,145 1017,147 1017,129 1017,112 1018,104 1018,97 1018,85 1018,94 1018,86 1018,87 1018,94 1018,92 1018,126 1018,154 1019,160 1019,146 1019,153 1019,162 1019,159 1019,156 1019,159 1019,171 1019,163 1019,143 1019,147 1020,130 1020,134 1020,131 1020,116 1020,114 1020,117 1020,126 1020,131 1020,135 1020,142 1021,134 1021,116 1021,116 1021,121 1021,126 1021,115 1021,95 1021,84 1021,65 1021,90 1022,91 1022,85 1022,90 1022,123 1022,119 1022,119 1022,128 1022,129 1022,143 1022,144 1022,158 1023,136 1023,158 1023,161 1023,152 1023,141 1023,132 1023,112 1023,115 1023,96 1023,69 1024,62 1024,60 1024,89 1024,92 1024,100 1024,134 1024,144 1024,147 1024,147 1024,141 1025,122 1025,104 1025,92 1025,84 1025,78 1025,80 1025,79 1025,86 1025,102 1025,105 1025,124 1026,132 1026,129 1026,132 1026,125 1026,149 1026,156 1026,159 1026,166 1026,168 1026,164 1027,145 1027,127 1027,89 1027,67 1027,65 1027,83 1027,88 1027,112 1027,124 1027,113 1028,121 1028,120 1028,129 1028,156 1028,166 1028,175 1028,161 1028,174 1028,149 1028,139 1028,117 1029,111 1029,114 1029,115 1029,124 1029,127 1029,131 1029,148 1029,167 1029,168 1029,169 1030,144 1030,139 1030,138 1030,138 1030,148 1030,148 1030,143 1030,135 1030,136 1030,132 1031,124 1031,118 1031,128 1031,135 1031,136 1031,139 1031,155 1031,156 1031,165 1031,179 1031,189 1032,194 1032,181 1032,173 1032,167 1032,156 1032,145 1032,142 1032,144 1032,158 1032,160 1033,156 1033,156 1033,157 1033,156 1033,161 1033,162 1033,168 1033,175 1033,188 1033,193 1034,193 1034,183 1034,182 1034,181 1034,172 1034,170 1034,149 1034,157 1034,163 1034,176 1034,181 1035,191 1035,208 1035,206 1035,210 1035,206 1035,184 1035,180 1035,165 1035,149 1035,147 1036,166 1036,184 1036,188 1036,203 1036,210 1036,217 1036,210 1036,207 1036,203 1036,197 1037,188 1037,192 1037,197 1037,183 1037,203 1037,192 1037,188 1037,195 1037,198 1037,184 1037,197 1038,193 1038,178 1038,181 1038,194 1038,197 1038,211 1038,218 1038,208 1038,211 1038,205 1039,191 1039,180 1039,180 1039,196 1039,192 1039,198 1039,206 1039,233 1039,243 1039,255 1040,257 1040,267 1040,262 1040,265 1040,282 1040,285 1040,297 1040,304 1040,312 1040,314 1040,330 1041,345 1041,342 1041,335 1041,318 1041,312 1041,299 1041,279 1041,271 1041,260 1041,240 1042,210 1042,187 1042,182 1042,158 1042,153 1042,137 1042,141 1042,128 1042,145 1042,163 1043,195 1043,220 1043,237 1043,235 1043,248 1043,252 1043,255 1043,251 1043,268 1043,280 1043,287 1044,289 1044,291 1044,291 1044,295 1044,304 1044,312 1044,314 1044,320 1044,316 1044,318 1045,316 1045,317 1045,312 1045,304 1045,309 1045,304 1045,297 1045,287 1045,278 1045,260 1046,252 1046,245 1046,231 1046,233 1046,220 1046,221 1046,211 1046,207 1046,213 1046,215 1046,233 1047,230 1047,230 1047,222 1047,220 1047,218 1047,207 1047,209 1047,208 1047,213 1047,229 1048,240 1048,262 1048,265 1048,270 1048,279 1048,289 1048,293 1048,306 1048,301 1048,314 1049,327 1049,335 1049,354 1049,363 1049,366 1049,368 1049,383 1049,382 1049,391 1049,393 1049,395 1050,395 1050,393 1050,387 1050,378 1050,375 1050,370 1050,361 1050,353 1050,351 1050,334 1051,326 1051,313 1051,297 1051,281 1051,270 1051,251 1051,225 1051,210 1051,188 1051,179 1052,153 1052,139 1052,141 1052,160 1052,178 1052,195 1052,225 1052,247 1052,272 1052,305 1052,326 1053,339 1053,339 1053,349 1053,351 1053,354 1053,346 1053,351 1053,346 1053,344 1053,339 1054,340 1054,339 1054,330 1054,325 1054,322 1054,309 1054,293 1054,280 1054,268 1054,260 1055,257 1055,246 1055,238 1055,232 1055,221 1055,215 1055,211 1055,210 1055,208 1055,222 1055,230 1056,238 1056,249 1056,260 1056,267 1056,272 1056,283 1056,289 1056,293 1056,297 1056,312 1057,319 1057,326 1057,326 1057,333 1057,325 1057,326 1057,326 1057,321 1057,317 1057,309 1058,302 1058,299 1058,292 1058,289 1058,289 1058,282 1058,277 1058,282 1058,283 1058,284 1058,273 1059,271 1059,260 1059,252 1059,237 1059,224 1059,220 1059,228 1059,229 1059,234 1059,233 1060,240 1060,247 1060,252 1060,264 1060,269 1060,275 1060,280 1060,288 1060,293 1060,293 1061,297 1061,306 1061,307 1061,309 1061,310 1061,314 1061,313 1061,307 1061,313 1061,320 1061,326 1062,329 1062,333 1062,327 1062,322 1062,321 1062,317 1062,319 1062,316 1062,311 1062,307 1063,301 1063,295 1063,282 1063,273 1063,276 1063,272 1063,257 1063,250 1063,243 1063,247 1064,237 1064,242 1064,245 1064,245 1064,245 1064,251 1064,253 1064,261 1064,267 1064,269 1064,270 1065,274 1065,268 1065,281 1065,287 1065,284 1065,288 1065,299 1065,304 1065,309 1065,312 1066,319 1066,322 1066,332 1066,331 1066,332 1066,331 1066,329 1066,321 1066,318 1066,307 1067,294 1067,285 1067,277 1067,255 1067,242 1067,235 1067,216 1067,213 1067,215 1067,227 1067,245 1068,263 1068,255 1068,251 1068,260 1068,256 1068,266 1068,277 1068,274 1068,280 1068,282 1069,280 1069,276 1069,275 1069,266 1069,270 1069,269 1069,259 1069,257 1069,252 1069,240 1070,222 1070,225 1070,228 1070,233 1070,247 1070,245 1070,255 1070,256 1070,265 1070,269 1070,277 1071,276 1071,277 1071,277 1071,279 1071,289 1071,287 1071,273 1071,272 1071,264 1071,265 1072,260 1072,246 1072,233 1072,233 1072,237 1072,237 1072,233 1072,216 1072,212 1072,213 1073,217 1073,214 1073,229 1073,237 1073,240 1073,247 1073,256 1073,256 1073,252 1073,247 1074,234 1074,238 1074,237 1074,244 1074,230 1074,235 1074,236 1074,225 1074,216 1074,208 1074,208 1075,212 1075,213 1075,226 1075,220 1075,228 1075,228 1075,245 1075,247 1075,249 1075,237 1076,242 1076,231 1076,238 1076,253 1076,256 1076,250 1076,242 1076,247 1076,230 1076,227 1077,221 1077,209 1077,196 1077,193 1077,175 1077,171 1077,162 1077,159 1077,177 1077,179 1077,205 1078,211 1078,234 1078,265 1078,263 1078,261 1078,255 1078,246 1078,243 1078,251 1078,232 1079,218 1079,193 1079,186 1079,173 1079,153 1079,161 1079,149 1079,163 1079,166 1079,172 1080,176 1080,181 1080,204 1080,222 1080,244 1080,245 1080,255 1080,252 1080,239 1080,227 1080,235 1081,215 1081,213 1081,214 1081,213 1081,199 1081,208 1081,212 1081,207 1081,202 1081,191 1082,197 1082,191 1082,182 1082,179 1082,175 1082,172 1082,178 1082,163 1082,154 1082,155 1083,160 1083,149 1083,151 1083,158 1083,172 1083,178 1083,184 1083,207 1083,215 1083,206 1083,203 1084,188 1084,168 1084,159 1084,136 1084,115 1084,126 1084,140 1084,166 1084,193 1084,210 1085,250 1085,267 1085,278 1085,283 1085,284 1085,282 1085,261 1085,250 1085,221 1085,197 1086,170 1086,130 1086,96 1086,65 1086,57 1086,29 1086,30 1086,39 1086,42 1086,88 1086,102 1087,123 1087,156 1087,195 1087,230 1087,239 1087,260 1087,260 1087,264 1087,260 1087,248 1088,228 1088,208 1088,193 1088,178 1088,157 1088,132 1088,109 1088,80 1088,62 1088,35 1089,74 1089,73 1089,84 1089,109 1089,126 1089,149 1089,161 1089,189 1089,231 1089,242 1089,253 1090,250 1090,241 1090,226 1090,211 1090,199 1090,173 1090,141 1090,120 1090,90 1090,52 1091,23 1091,-21 1091,-53 1091,-38 1091,0 1091,62 1091,92 1091,121 1091,134 1091,136 1092,151 1092,171 1092,168 1092,172 1092,154 1092,137 1092,129 1092,123 1092,118 1092,121 1092,119 1093,129 1093,124 1093,136 1093,116 1093,98 1093,102 1093,110 1093,118 1093,107 1093,114 1094,114 1094,108 1094,98 1094,80 1094,97 1094,114 1094,124 1094,115 1094,116 1094,136 1095,117 1095,126 1095,134 1095,136 1095,125 1095,124 1095,104 1095,99 1095,87 1095,97 1095,97 1096,106 1096,107 1096,117 1096,112 1096,126 1096,131 1096,144 1096,148 1096,145 1096,135 1097,146 1097,138 1097,121 1097,118 1097,107 1097,102 1097,99 1097,90 1097,70 1097,59 1098,94 1098,106 1098,129 1098,151 1098,181 1098,196 1098,192 1098,198 1098,198 1098,185 1098,178 1099,161 1099,167 1099,155 1099,143 1099,118 1099,92 1099,76 1099,70 1099,52 1099,40 1100,47 1100,48 1100,65 1100,85 1100,124 1100,123 1100,158 1100,177 1100,188 1100,191 1101,190 1101,173 1101,157 1101,134 1101,109 1101,93 1101,77 1101,64 1101,75 1101,85 1101,92 1102,109 1102,136 1102,139 1102,152 1102,160 1102,160 1102,150 1102,149 1102,152 1102,180 1103,172 1103,174 1103,171 1103,177 1103,169 1103,179 1103,168 1103,154 1103,137 1103,123 1104,116 1104,90 1104,78 1104,77 1104,69 1104,99 1104,108 1104,113 1104,136 1104,133 1104,142 1105,148 1105,149 1105,158 1105,158 1105,156 1105,153 1105,169 1105,181 1105,180 1105,190 1106,186 1106,182 1106,173 1106,149 1106,121 1106,115 1106,89 1106,60 1106,52 1106,59 1107,124 1107,164 1107,212 1107,240 1107,254 1107,266 1107,265 1107,252 1107,249 1107,226 1107,206 1108,195 1108,175 1108,146 1108,112 1108,75 1108,52 1108,52 1108,54 1108,74 1108,100 1109,128 1109,166 1109,182 1109,201 1109,214 1109,210 1109,207 1109,210 1109,208 1109,206 1110,204 1110,189 1110,199 1110,181 1110,174 1110,156 1110,154 1110,146 1110,131 1110,131 1110,141 1111,132 1111,137 1111,142 1111,158 1111,159 1111,168 1111,183 1111,195 1111,208 1111,213 1112,207 1112,203 1112,200 1112,187 1112,186 1112,187 1112,178 1112,174 1112,163 1112,158 1113,147 1113,146 1113,137 1113,149 1113,158 1113,190 1113,203 1113,213 1113,220 1113,228 1113,247 1114,252 1114,250 1114,265 1114,269 1114,265 1114,260 1114,252 1114,244 1114,230 1114,216 1115,213 1115,203 1115,202 1115,191 1115,184 1115,181 1115,176 1115,184 1115,176 1115,184 1116,194 1116,198 1116,209 1116,217 1116,212 1116,213 1116,216 1116,228 1116,223 1116,223 1116,225 1117,245 1117,247 1117,255 1117,259 1117,255 1117,247 1117,241 1117,232 1117,219 1117,216 1118,208 1118,203 1118,205 1118,204 1118,205 1118,210 1118,218 1118,215 1118,223 1118,226 1119,228 1119,216 1119,220 1119,222 1119,212 1119,196 1119,190 1119,186 1119,193 1119,202 1119,218 1120,234 1120,223 1120,236 1120,235 1120,238 1120,247 1120,250 1120,245 1120,237 1120,237 1121,242 1121,234 1121,235 1121,243 1121,246 1121,258 1121,266 1121,280 1121,270 1121,284 1122,290 1122,289 1122,290 1122,287 1122,280 1122,279 1122,276 1122,273 1122,275 1122,270 1122,265 1123,253 1123,247 1123,242 1123,233 1123,222 1123,214 1123,208 1123,199 1123,203 1123,202 1124,209 1124,212 1124,225 1124,225 1124,225 1124,235 1124,232 1124,239 1124,243 1124,257 1125,267 1125,272 1125,279 1125,275 1125,276 1125,272 1125,269 1125,280 1125,288 1125,292 1125,302 1126,297 1126,305 1126,312 1126,312 1126,309 1126,312 1126,304 1126,304 1126,306 1126,302 1127,297 1127,296 1127,293 1127,292 1127,281 1127,284 1127,279 1127,275 1127,265 1127,263 1128,265 1128,265 1128,255 1128,262 1128,260 1128,255 1128,264 1128,276 1128,272 1128,279 1128,290 1129,296 1129,289 1129,299 1129,306 1129,304 1129,304 1129,304 1129,300 1129,292 1129,282 1130,286 1130,287 1130,289 1130,281 1130,282 1130,273 1130,268 1130,269 1130,264 1130,257 1131,268 1131,275 1131,275 1131,287 1131,304 1131,299 1131,301 1131,314 1131,314 1131,312 1131,309 1132,307 1132,309 1132,314 1132,307 1132,295 1132,282 1132,284 1132,286 1132,282 1132,279 1133,284 1133,276 1133,267 1133,257 1133,252 1133,244 1133,242 1133,246 1133,247 1133,247 1134,253 1134,252 1134,262 1134,266 1134,271 1134,262 1134,270 1134,282 1134,289 1134,298 1134,293 1135,292 1135,292 1135,296 1135,290 1135,297 1135,287 1135,280 1135,272 1135,267 1135,265 1136,257 1136,263 1136,268 1136,277 1136,278 1136,283 1136,283 1136,284 1136,285 1136,275 1137,272 1137,267 1137,262 1137,260 1137,260 1137,264 1137,255 1137,267 1137,263 1137,261 1137,257 1138,256 1138,249 1138,255 1138,257 1138,249 1138,234 1138,244 1138,241 1138,250 1138,255 1139,262 1139,285 1139,298 1139,305 1139,316 1139,326 1139,330 1139,331 1139,336 1139,333 1140,341 1140,335 1140,323 1140,314 1140,302 1140,294 1140,279 1140,277 1140,265 1140,255 1140,255 1141,257 1141,270 1141,267 1141,273 1141,286 1141,279 1141,279 1141,274 1141,275 1141,292 1142,288 1142,292 1142,298 1142,298 1142,303 1142,294 1142,300 1142,301 1142,308 1142,307 1143,318 1143,315 1143,313 1143,299 1143,297 1143,292 1143,281 1143,267 1143,266 1143,262 1143,257 1144,246 1144,228 1144,219 1144,218 1144,229 1144,231 1144,237 1144,249 1144,253 1144,257 1145,255 1145,260 1145,249 1145,260 1145,276 1145,291 1145,290 1145,292 1145,295 1145,295 1146,307 1146,326 1146,316 1146,323 1146,324 1146,319 1146,316 1146,318 1146,319 1146,317 1146,311 1147,296 1147,280 1147,265 1147,255 1147,247 1147,235 1147,214 1147,210 1147,194 1147,196 1148,191 1148,205 1148,211 1148,215 1148,216 1148,225 1148,233 1148,253 1148,272 1148,298 1149,315 1149,339 1149,350 1149,361 1149,366 1149,368 1149,367 1149,367 1149,358 1149,343 1150,338 " style="fill:none;stroke:#0000FF;stroke-width:3;stroke-linejoin:bevel" /><line x1="150" y1="75" x2="150" y2="475" style="stroke:black;stroke-width:2"/>
<line x1="150" y1="475" x2="1400" y2="475" style="stroke:black;stroke-width:2"/>
<text x="450.000000" y="25">Population_over_time</text>
<text x="10" y="275.000000">Population</text>
<text x="600.000000" y="515.000000">Time</text>
<text x="100.000000" y="475.000000">0.000</text>
<text x="100.000000" y="417.857147">80.28</text>
<text x="100.000000" y="360.714294">160.5</text>
<text x="100.000000" y="303.571411">240.8</text>
<text x="100.000000" y="246.428558">321.1</text>
<text x="100.000000" y="189.285706">401.4</text>
<text x="100.000000" y="132.142853">481.7</text>
<text x="100.000000" y="75.000000">562.0</text>
<text x="150.000000" y="490.000000">0.000</text>
<text x="350.000000" y="490.000000">4055.</text>
<text x="550.000000" y="490.000000">8110.</text>
<text x="750.000000" y="490.000000">12165</text>
<text x="950.000000" y="490.000000">16220</text>
<text x="1150.000000" y="490.000000">20275</text>
</svg>
