<?xml version="1.0" standalone="no"?>
<!DOCTYPE svg PUBLIC "-//W3C//DTD SVG 1.1//EN"
"http://www.w3.org/Graphics/SVG/1.1/DTD/svg11.dtd">
<svg width="1250.000000" height="550.000000"
xmlns="http://www.w3.org/2000/svg">
<polyline points="150,77 184,75 218,247 253,283 287,299 322,305 356,315 391,321 425,328 460,332 494,333 529,333 563,328 598,327 632,326 667,326 701,320 736,318 770,316 805,314 839,311 874,310 908,308 943,302 977,299 1012,293 1046,289 1081,287 1115,288 1150,283 " style="fill:none;stroke:#0000FF;stroke-width:3;stroke-linejoin:bevel" /><line x1="150" y1="75" x2="150" y2="475" style="stroke:black;stroke-width:2"/>
<line x1="150" y1="475" x2="1400" y2="475" style="stroke:black;stroke-width:2"/>
<text x="450.000000" y="25">Population_over_time</text>
<text x="10" y="275.000000">Population</text>
<text x="600.000000" y="515.000000">Time</text>
<text x="100.000000" y="475.000000">0.000</text>
<text x="100.000000" y="417.857147">71.14</text>
<text x="100.000000" y="360.714294">142.2</text>
<text x="100.000000" y="303.571411">213.4</text>
<text x="100.000000" y="246.428558">284.5</text>
<text x="100.000000" y="189.285706">355.7</text>
<text x="100.000000" y="132.142853">426.8</text>
<text x="100.000000" y="75.000000">498.0</text>
<text x="150.000000" y="490.000000">0.000</text>
<text x="350.000000" y="490.000000">9.400</text>
<text x="550.000000" y="490.000000">18.80</text>
<text x="750.000000" y="490.000000">28.20</text>
<text x="950.000000" y="490.000000">37.60</text>
<text x="1150.000000" y="490.000000">47.00</text>
</svg>
