<?xml version="1.0" standalone="no"?>
<!DOCTYPE svg PUBLIC "-//W3C//DTD SVG 1.1//EN"
"http://www.w3.org/Graphics/SVG/1.1/DTD/svg11.dtd">
<svg width="1250.000000" height="550.000000"
xmlns="http://www.w3.org/2000/svg">
<polyline points="150,75 226,202 303,249 380,137 457,226 534,137 611,209 688,218 765,226 842,240 919,220 996,244 1073,231 1150,244 " style="fill:none;stroke:#0000FF;stroke-width:3;stroke-linejoin:bevel" /><line x1="150" y1="75" x2="150" y2="475" style="stroke:black;stroke-width:2"/>
<line x1="150" y1="475" x2="1400" y2="475" style="stroke:black;stroke-width:2"/>
<text x="450.000000" y="25">Population_globale</text>
<text x="10" y="275.000000">Population</text>
<text x="600.000000" y="515.000000">Temps</text>
<text x="100.000000" y="475.000000">0.000</text>
<text x="100.000000" y="417.857147">25.57</text>
<text x="100.000000" y="360.714294">51.14</text>
<text x="100.000000" y="303.571411">76.71</text>
<text x="100.000000" y="246.428558">102.2</text>
<text x="100.000000" y="189.285706">127.8</text>
<text x="100.000000" y="132.142853">153.4</text>
<text x="100.000000" y="75.000031">179.0</text>
<text x="150.000000" y="490.000000">0.000</text>
<text x="350.000000" y="490.000000">2800.</text>
<text x="550.000000" y="490.000000">5600.</text>
<text x="750.000000" y="490.000000">8400.</text>
<text x="950.000000" y="490.000000">11200</text>
<text x="1150.000000" y="490.000000">14000</text>
</svg>
