<?xml version="1.0" standalone="no"?>
<!DOCTYPE svg PUBLIC "-//W3C//DTD SVG 1.1//EN"
"http://www.w3.org/Graphics/SVG/1.1/DTD/svg11.dtd">
<svg width="1250.000000" height="550.000000"
xmlns="http://www.w3.org/2000/svg">
<polyline points="150,326 193,285 236,199 280,289 323,220 367,282 410,217 454,187 497,200 541,83 584,75 628,110 671,94 715,134 758,178 802,171 845,91 889,106 932,106 976,129 1019,165 1063,202 1106,147 1150,211 " style="fill:none;stroke:#0000FF;stroke-width:3;stroke-linejoin:bevel" /><line x1="150" y1="75" x2="150" y2="475" style="stroke:black;stroke-width:2"/>
<line x1="150" y1="475" x2="1400" y2="475" style="stroke:black;stroke-width:2"/>
<text x="450.000000" y="25">Population_globale</text>
<text x="10" y="275.000000">Population</text>
<text x="600.000000" y="515.000000">Temps</text>
<text x="100.000000" y="475.000000">0.000</text>
<text x="100.000000" y="417.857147">38.57</text>
<text x="100.000000" y="360.714294">77.14</text>
<text x="100.000000" y="303.571411">115.7</text>
<text x="100.000000" y="246.428574">154.2</text>
<text x="100.000000" y="189.285706">192.8</text>
<text x="100.000000" y="132.142853">231.4</text>
<text x="100.000000" y="75.000000">270.0</text>
<text x="150.000000" y="490.000000">0.000</text>
<text x="350.000000" y="490.000000">4800.</text>
<text x="550.000000" y="490.000000">9600.</text>
<text x="750.000000" y="490.000000">14400</text>
<text x="950.000000" y="490.000000">19200</text>
<text x="1150.000000" y="490.000000">24000</text>
</svg>
